RobotoDelta-opszmax-wghtmax-wdthmin.ufo
<glyph name="exclam" format="1">
  <advance width="623"/>
  <unicode hex="0021"/>
  <outline>
    <contour>
      <point x="105" y="145" type="qcurve" smooth="yes"/>
      <point x="105" y="76"/>
      <point x="212" y="-22"/>
      <point x="311" y="-22" type="qcurve" smooth="yes"/>
      <point x="410" y="-22"/>
      <point x="518" y="76"/>
      <point x="518" y="145" type="qcurve" smooth="yes"/>
      <point x="518" y="214"/>
      <point x="410" y="312"/>
      <point x="311" y="312" type="qcurve" smooth="yes"/>
      <point x="212" y="312"/>
      <point x="105" y="214"/>
    </contour>
    <contour>
      <point x="163" y="467" type="line"/>
      <point x="462" y="467" type="line"/>
      <point x="490" y="1456" type="line"/>
      <point x="133" y="1456" type="line"/>
    </contour>
  </outline>
</glyph>
<glyph name="quotedbl" format="1">
  <advance width="802"/>
  <unicode hex="0022"/>
  <outline>
    <contour>
      <point x="56" y="797" type="line"/>
      <point x="291" y="797" type="line"/>
      <point x="315" y="1273" type="line"/>
      <point x="315" y="1456" type="line"/>
      <point x="31" y="1456" type="line"/>
      <point x="31" y="1273" type="line"/>
    </contour>
    <contour>
      <point x="511" y="797" type="line"/>
      <point x="746" y="797" type="line"/>
      <point x="770" y="1273" type="line"/>
      <point x="770" y="1456" type="line"/>
      <point x="487" y="1456" type="line"/>
      <point x="487" y="1273" type="line"/>
    </contour>
  </outline>
</glyph>
<glyph name="numbersign" format="1">
  <advance width="1406.8427410808902"/>
  <unicode hex="0023"/>
  <outline>
    <contour>
      <point x="259.9857824090427" y="-20.0" type="line"/>
      <point x="463.29805722359595" y="-20.0" type="line"/>
      <point x="789.2759802190038" y="1476.0" type="line"/>
      <point x="587.120452137054" y="1476.0" type="line"/>
    </contour>
    <contour>
      <point x="617.5713528788414" y="-20.0" type="line"/>
      <point x="821.3979335923701" y="-20.0" type="line"/>
      <point x="1146.3426527728718" y="1476.0" type="line"/>
      <point x="943.5446838572942" y="1476.0" type="line"/>
    </contour>
    <contour>
      <point x="152.76792652772872" y="390.3428117273048" type="line"/>
      <point x="1200.3732073472272" y="390.3428117273048" type="line"/>
      <point x="1200.3732073472272" y="554.9146944542565" type="line"/>
      <point x="152.76792652772872" y="554.9146944542565" type="line"/>
    </contour>
    <contour>
      <point x="206.28417520310845" y="900.0566937477923" type="line"/>
      <point x="1253.5605086541857" y="900.0566937477923" type="line"/>
      <point x="1253.5605086541857" y="1064.628576474744" type="line"/>
      <point x="206.28417520310845" y="1064.628576474744" type="line"/>
    </contour>
  </outline>
</glyph>
<glyph name="dollar" format="1">
  <advance width="939.316898622395"/>
  <unicode hex="0024"/>
  <outline>
    <contour>
      <point x="47" y="438" type="line" smooth="yes"/>
      <point x="47.0" y="207.0"/>
      <point x="250.0" y="0.0"/>
      <point x="476" y="0" type="qcurve" smooth="yes"/>
      <point x="701.0" y="0.0"/>
      <point x="902.0" y="194.0"/>
      <point x="902" y="411" type="qcurve" smooth="yes"/>
      <point x="902.0" y="591.0"/>
      <point x="732.0" y="794.0"/>
      <point x="542" y="840" type="qcurve"/>
      <point x="426.0" y="865.0"/>
      <point x="322.0" y="976.0"/>
      <point x="322" y="1075" type="qcurve" smooth="yes"/>
      <point x="322.0" y="1185.0"/>
      <point x="392.0" y="1284.0"/>
      <point x="470" y="1284" type="qcurve" smooth="yes"/>
      <point x="552.0" y="1284.0"/>
      <point x="625.0" y="1161.0"/>
      <point x="625" y="1024" type="qcurve" smooth="yes"/>
      <point x="625" y="1012" type="line"/>
      <point x="880" y="1012" type="line"/>
      <point x="880" y="1024" type="line" smooth="yes"/>
      <point x="880.0" y="1252.0"/>
      <point x="686.0" y="1456.0"/>
      <point x="469" y="1456" type="qcurve" smooth="yes"/>
      <point x="256.0" y="1456.0"/>
      <point x="65.0" y="1268.0"/>
      <point x="65" y="1059" type="qcurve" smooth="yes"/>
      <point x="65.0" y="884.0"/>
      <point x="240.0" y="688.0"/>
      <point x="435" y="645" type="qcurve" smooth="yes"/>
      <point x="547.0" y="620.0"/>
      <point x="647.0" y="502.0"/>
      <point x="647" y="396" type="qcurve" smooth="yes"/>
      <point x="647.0" y="278.0"/>
      <point x="566.0" y="172.0"/>
      <point x="476" y="172" type="qcurve" smooth="yes"/>
      <point x="384.0" y="172.0"/>
      <point x="302.0" y="298.0"/>
      <point x="302" y="438" type="qcurve" smooth="yes"/>
      <point x="302" y="450" type="line"/>
      <point x="47" y="450" type="line"/>
    </contour>
    <contour>
      <point x="375.06637937124685" y="-150.0" type="line"/>
      <point x="587.8274885199576" y="-150.0" type="line"/>
      <point x="587.8274885199576" y="64.28470505121865" type="line"/>
      <point x="573.7076015542211" y="74.28470505121865" type="line"/>
      <point x="573.7076015542211" y="728.0" type="line"/>
      <point x="375.06637937124685" y="728.0" type="line"/>
    </contour>
    <contour>
      <point x="372.74620981985163" y="728.0" type="line"/>
      <point x="570.8731261038503" y="728.0" type="line"/>
      <point x="570.8731261038503" y="1606.0" type="line"/>
      <point x="358.11201695513955" y="1606.0" type="line"/>
      <point x="358.11201695513955" y="1386.572235959025" type="line"/>
      <point x="372.74620981985163" y="1376.572235959025" type="line"/>
    </contour>
  </outline>
</glyph>
<glyph name="percent" format="1">
  <advance width="1771"/>
  <unicode hex="0025"/>
  <outline>
    <contour>
      <point x="6" y="969" type="line" smooth="yes"/>
      <point x="6" y="825"/>
      <point x="196" y="660"/>
      <point x="358" y="660" type="qcurve" smooth="yes"/>
      <point x="521" y="660"/>
      <point x="711" y="825"/>
      <point x="711" y="969" type="qcurve" smooth="yes"/>
      <point x="711" y="1167" type="line" smooth="yes"/>
      <point x="711" y="1312"/>
      <point x="521" y="1476"/>
      <point x="358" y="1476" type="qcurve" smooth="yes"/>
      <point x="196" y="1476"/>
      <point x="6" y="1312"/>
      <point x="6" y="1167" type="qcurve" smooth="yes"/>
    </contour>
    <contour>
      <point x="276" y="963" type="qcurve" smooth="yes"/>
      <point x="276" y="1173" type="line" smooth="yes"/>
      <point x="276" y="1222"/>
      <point x="317" y="1278"/>
      <point x="358" y="1278" type="qcurve" smooth="yes"/>
      <point x="401" y="1278"/>
      <point x="440" y="1222"/>
      <point x="440" y="1173" type="qcurve" smooth="yes"/>
      <point x="440" y="963" type="line" smooth="yes"/>
      <point x="440" y="914"/>
      <point x="401" y="858"/>
      <point x="358" y="858" type="qcurve" smooth="yes"/>
      <point x="317" y="858"/>
      <point x="276" y="914"/>
    </contour>
    <contour>
      <point x="473" y="91" type="line"/>
      <point x="693" y="-34" type="line"/>
      <point x="1306" y="1373" type="line"/>
      <point x="1083" y="1490" type="line"/>
    </contour>
    <contour>
      <point x="1061" y="283" type="line" smooth="yes"/>
      <point x="1061" y="140"/>
      <point x="1251" y="-26"/>
      <point x="1411" y="-26" type="qcurve" smooth="yes"/>
      <point x="1574" y="-26"/>
      <point x="1764" y="139"/>
      <point x="1764" y="282" type="qcurve" smooth="yes"/>
      <point x="1764" y="481" type="line" smooth="yes"/>
      <point x="1764" y="626"/>
      <point x="1574" y="790"/>
      <point x="1411" y="790" type="qcurve" smooth="yes"/>
      <point x="1251" y="790"/>
      <point x="1061" y="626"/>
      <point x="1061" y="481" type="qcurve" smooth="yes"/>
    </contour>
    <contour>
      <point x="1330" y="277" type="qcurve" smooth="yes"/>
      <point x="1330" y="487" type="line" smooth="yes"/>
      <point x="1330" y="536"/>
      <point x="1371" y="592"/>
      <point x="1411" y="592" type="qcurve" smooth="yes"/>
      <point x="1454" y="592"/>
      <point x="1494" y="537"/>
      <point x="1494" y="488" type="qcurve" smooth="yes"/>
      <point x="1494" y="277" type="line" smooth="yes"/>
      <point x="1494" y="228"/>
      <point x="1454" y="172"/>
      <point x="1411" y="172" type="qcurve" smooth="yes"/>
      <point x="1371" y="172"/>
      <point x="1330" y="229"/>
    </contour>
  </outline>
</glyph>
<glyph name="ampersand" format="1">
  <advance width="1195"/>
  <unicode hex="0026"/>
  <outline>
    <contour>
      <point x="14" y="380" type="qcurve" smooth="yes"/>
      <point x="14" y="215"/>
      <point x="268" y="-20"/>
      <point x="499" y="-20" type="qcurve" smooth="yes"/>
      <point x="773" y="-20"/>
      <point x="1145" y="380"/>
      <point x="1145" y="674" type="qcurve"/>
      <point x="810" y="674" type="line"/>
      <point x="810" y="455"/>
      <point x="626" y="209"/>
      <point x="499" y="209" type="qcurve" smooth="yes"/>
      <point x="440" y="209"/>
      <point x="369" y="308"/>
      <point x="369" y="392" type="qcurve" smooth="yes"/>
      <point x="369" y="480"/>
      <point x="455" y="602"/>
      <point x="541" y="672" type="qcurve" smooth="yes"/>
      <point x="758" y="790" type="line" smooth="yes"/>
      <point x="873" y="857"/>
      <point x="980" y="1020"/>
      <point x="980" y="1144" type="qcurve" smooth="yes"/>
      <point x="980" y="1299"/>
      <point x="745" y="1486"/>
      <point x="553" y="1486" type="qcurve" smooth="yes"/>
      <point x="362" y="1486"/>
      <point x="113" y="1289"/>
      <point x="113" y="1124" type="qcurve" smooth="yes"/>
      <point x="113" y="1023"/>
      <point x="221" y="839"/>
      <point x="336" y="698" type="qcurve" smooth="yes"/>
      <point x="847" y="0" type="line"/>
      <point x="1229" y="0" type="line"/>
      <point x="570" y="862" type="line" smooth="yes"/>
      <point x="511" y="962"/>
      <point x="458" y="1066"/>
      <point x="458" y="1124" type="qcurve" smooth="yes"/>
      <point x="458" y="1187"/>
      <point x="507" y="1257"/>
      <point x="553" y="1257" type="qcurve" smooth="yes"/>
      <point x="602" y="1257"/>
      <point x="646" y="1198"/>
      <point x="646" y="1133" type="qcurve" smooth="yes"/>
      <point x="646" y="1084"/>
      <point x="624" y="1016"/>
      <point x="571" y="974" type="qcurve" smooth="yes"/>
      <point x="353" y="855" type="line" smooth="yes"/>
      <point x="224" y="765"/>
      <point x="14" y="550"/>
    </contour>
  </outline>
</glyph>
<glyph name="quotesingle" format="2">
  <advance width="389"/>
  <unicode hex="0027"/>
  <outline>
    <contour>
      <point x="92.54181476418319" y="875.8373205741626" type="line"/>
      <point x="295.61754955570746" y="875.8373205741626" type="line"/>
      <point x="329.88014354066985" y="1294.5374231032126" type="line"/>
      <point x="329.88014354066985" y="1456.0" type="line"/>
      <point x="58.77477785372522" y="1456.0" type="line"/>
      <point x="58.77477785372522" y="1294.5374231032126" type="line"/>
    </contour>
  </outline>
</glyph>
<glyph name="parenleft" format="1">
  <advance width="679"/>
  <unicode hex="0028"/>
  <outline>
    <contour>
      <point x="558" y="-436" type="qcurve"/>
      <point x="558" y="-258" type="line"/>
      <point x="458" y="-184"/>
      <point x="371" y="187"/>
      <point x="371" y="508" type="qcurve" smooth="yes"/>
      <point x="371" y="532" type="line" smooth="yes"/>
      <point x="371" y="853"/>
      <point x="458" y="1224"/>
      <point x="558" y="1298" type="qcurve"/>
      <point x="558" y="1476" type="line"/>
      <point x="338" y="1368"/>
      <point x="120" y="909"/>
      <point x="120" y="525" type="qcurve" smooth="yes"/>
      <point x="120" y="515" type="line" smooth="yes"/>
      <point x="120" y="131"/>
      <point x="338" y="-328"/>
    </contour>
  </outline>
</glyph>
<glyph name="parenright" format="1">
  <advance width="665"/>
  <unicode hex="0029"/>
  <outline>
    <contour>
      <point x="69" y="-436" type="line"/>
      <point x="297" y="-319"/>
      <point x="612" y="132"/>
      <point x="612" y="515" type="qcurve" smooth="yes"/>
      <point x="612" y="525" type="line" smooth="yes"/>
      <point x="612" y="908"/>
      <point x="297" y="1359"/>
      <point x="69" y="1476" type="qcurve"/>
      <point x="69" y="1231" type="line"/>
      <point x="147" y="1156"/>
      <point x="273" y="828"/>
      <point x="273" y="532" type="qcurve" smooth="yes"/>
      <point x="273" y="508" type="line" smooth="yes"/>
      <point x="273" y="212"/>
      <point x="147" y="-116"/>
      <point x="69" y="-191" type="qcurve"/>
    </contour>
  </outline>
</glyph>
<glyph name="asterisk" format="1">
  <advance width="926"/>
  <unicode hex="002A"/>
  <outline>
    <contour>
      <point x="-5" y="1007" type="line"/>
      <point x="247" y="943" type="line"/>
      <point x="69" y="705" type="line"/>
      <point x="344" y="530" type="line"/>
      <point x="464" y="815" type="line"/>
      <point x="582" y="530" type="line"/>
      <point x="856" y="705" type="line"/>
      <point x="680" y="943" type="line"/>
      <point x="931" y="1007" type="line"/>
      <point x="826" y="1290" type="line"/>
      <point x="597" y="1154" type="line"/>
      <point x="632" y="1476" type="line"/>
      <point x="293" y="1476" type="line"/>
      <point x="330" y="1154" type="line"/>
      <point x="101" y="1290" type="line"/>
    </contour>
  </outline>
</glyph>
<glyph name="plus" format="1">
  <advance width="898"/>
  <unicode hex="002B"/>
  <outline>
    <contour>
      <point x="72" y="551" type="line"/>
      <point x="826" y="551" type="line"/>
      <point x="826" y="797" type="line"/>
      <point x="72" y="797" type="line"/>
    </contour>
    <contour>
      <point x="281" y="163" type="line"/>
      <point x="617" y="163" type="line"/>
      <point x="617" y="1185" type="line"/>
      <point x="281" y="1185" type="line"/>
    </contour>
  </outline>
</glyph>
<glyph name="comma" format="1">
  <advance width="535"/>
  <unicode hex="002C"/>
  <outline>
    <contour>
      <point x="3" y="-248" type="qcurve"/>
      <point x="175" y="-361" type="line"/>
      <point x="288" y="-275"/>
      <point x="425" y="-41"/>
      <point x="425" y="98" type="qcurve" smooth="yes"/>
      <point x="425" y="321" type="line"/>
      <point x="126" y="321" type="line"/>
      <point x="126" y="98" type="line" smooth="yes"/>
      <point x="126" y="-9"/>
      <point x="65" y="-172"/>
    </contour>
  </outline>
</glyph>
<glyph name="hyphen" format="1">
  <advance width="451"/>
  <unicode hex="002D"/>
  <outline>
    <contour>
      <point x="-20" y="509" type="line"/>
      <point x="471" y="509" type="line"/>
      <point x="471" y="748" type="line"/>
      <point x="-20" y="748" type="line"/>
    </contour>
  </outline>
</glyph>
<glyph name="period" format="1">
  <advance width="600"/>
  <unicode hex="002E"/>
  <outline>
    <contour>
      <point x="95" y="166" type="qcurve" smooth="yes"/>
      <point x="95" y="88"/>
      <point x="201" y="-22"/>
      <point x="299" y="-22" type="qcurve" smooth="yes"/>
      <point x="399" y="-22"/>
      <point x="504" y="88"/>
      <point x="504" y="166" type="qcurve" smooth="yes"/>
      <point x="504" y="243"/>
      <point x="399" y="353"/>
      <point x="299" y="353" type="qcurve" smooth="yes"/>
      <point x="201" y="353"/>
      <point x="95" y="243"/>
    </contour>
  </outline>
</glyph>
<glyph name="slash" format="2">
  <advance width="336"/>
  <unicode hex="002F"/>
  <outline>
    <contour>
      <point x="-124.28470505121865" y="-125.0" type="line"/>
      <point x="94" y="-125" type="line"/>
      <point x="480" y="1456" type="line"/>
      <point x="261.9945249028612" y="1456.0" type="line"/>
    </contour>
  </outline>
</glyph>
<glyph name="zero" format="1">
  <advance width="1116"/>
  <unicode hex="0030"/>
  <outline>
    <contour>
      <point x="43" y="463" type="line" smooth="yes"/>
      <point x="43" y="247"/>
      <point x="317" y="-30"/>
      <point x="558" y="-30" type="qcurve" smooth="yes"/>
      <point x="794" y="-30"/>
      <point x="1071" y="247"/>
      <point x="1071" y="463" type="qcurve" smooth="yes"/>
      <point x="1071" y="993" type="line" smooth="yes"/>
      <point x="1071" y="1211"/>
      <point x="794" y="1486"/>
      <point x="558" y="1486" type="qcurve" smooth="yes"/>
      <point x="317" y="1486"/>
      <point x="43" y="1211"/>
      <point x="43" y="993" type="qcurve" smooth="yes"/>
    </contour>
    <contour>
      <point x="403" y="453" type="qcurve" smooth="yes"/>
      <point x="403" y="1003" type="line" smooth="yes"/>
      <point x="403" y="1105"/>
      <point x="478" y="1242"/>
      <point x="558" y="1242" type="qcurve" smooth="yes"/>
      <point x="638" y="1242"/>
      <point x="712" y="1105"/>
      <point x="712" y="1003" type="qcurve" smooth="yes"/>
      <point x="712" y="453" type="line" smooth="yes"/>
      <point x="712" y="355"/>
      <point x="638" y="214"/>
      <point x="558" y="214" type="qcurve" smooth="yes"/>
      <point x="478" y="214"/>
      <point x="403" y="355"/>
    </contour>
  </outline>
</glyph>
<glyph name="one" format="1">
  <advance width="950"/>
  <unicode hex="0031"/>
  <outline>
    <contour>
      <point x="386" y="0" type="line"/>
      <point x="656" y="0" type="line"/>
      <point x="656" y="1476" type="line"/>
      <point x="494" y="1476" type="line"/>
      <point x="183" y="1339" type="line"/>
      <point x="183" y="1150" type="line"/>
      <point x="386" y="1219" type="line"/>
    </contour>
  </outline>
</glyph>
<glyph name="two" format="1">
  <advance width="1126"/>
  <unicode hex="0032"/>
  <outline>
    <contour>
      <point x="66" y="0" type="line"/>
      <point x="1083" y="0" type="line"/>
      <point x="1083" y="254" type="line"/>
      <point x="568" y="254" type="line"/>
      <point x="864" y="661" type="line" smooth="yes"/>
      <point x="967" y="784"/>
      <point x="1068" y="963"/>
      <point x="1068" y="1084" type="qcurve" smooth="yes"/>
      <point x="1068" y="1257"/>
      <point x="795" y="1486"/>
      <point x="569" y="1486" type="qcurve" smooth="yes"/>
      <point x="342" y="1486"/>
      <point x="45" y="1234"/>
      <point x="45" y="1006" type="qcurve" smooth="yes"/>
      <point x="45" y="996" type="line"/>
      <point x="405" y="996" type="line"/>
      <point x="405" y="1006" type="line" smooth="yes"/>
      <point x="405" y="1136"/>
      <point x="500" y="1242"/>
      <point x="569" y="1242" type="qcurve" smooth="yes"/>
      <point x="636" y="1242"/>
      <point x="711" y="1154"/>
      <point x="711" y="1074" type="qcurve" smooth="yes"/>
      <point x="711" y="999"/>
      <point x="635" y="881"/>
      <point x="563" y="796" type="qcurve" smooth="yes"/>
      <point x="66" y="234" type="line"/>
    </contour>
  </outline>
</glyph>
<glyph name="three" format="1">
  <advance width="1156"/>
  <unicode hex="0033"/>
  <outline>
    <contour>
      <point x="32" y="404" type="line" smooth="yes"/>
      <point x="32" y="213"/>
      <point x="327" y="-30"/>
      <point x="561" y="-30" type="qcurve" smooth="yes"/>
      <point x="786" y="-30"/>
      <point x="1085" y="206"/>
      <point x="1085" y="413" type="qcurve" smooth="yes"/>
      <point x="1085" y="547"/>
      <point x="964" y="728"/>
      <point x="862" y="763" type="qcurve"/>
      <point x="862" y="767" type="line"/>
      <point x="959" y="820"/>
      <point x="1050" y="993"/>
      <point x="1050" y="1088" type="qcurve" smooth="yes"/>
      <point x="1050" y="1264"/>
      <point x="773" y="1486"/>
      <point x="561" y="1486" type="qcurve" smooth="yes"/>
      <point x="342" y="1486"/>
      <point x="60" y="1246"/>
      <point x="60" y="1076" type="qcurve" smooth="yes"/>
      <point x="60" y="1066" type="line"/>
      <point x="417" y="1066" type="line"/>
      <point x="417" y="1076" type="line" smooth="yes"/>
      <point x="417" y="1160"/>
      <point x="496" y="1248"/>
      <point x="561" y="1248" type="qcurve" smooth="yes"/>
      <point x="621" y="1248"/>
      <point x="693" y="1162"/>
      <point x="693" y="1071" type="qcurve" smooth="yes"/>
      <point x="693" y="977"/>
      <point x="606" y="874"/>
      <point x="527" y="874" type="qcurve" smooth="yes"/>
      <point x="363" y="874" type="line"/>
      <point x="363" y="639" type="line"/>
      <point x="532" y="639" type="line" smooth="yes"/>
      <point x="625" y="639"/>
      <point x="727" y="532"/>
      <point x="727" y="424" type="qcurve" smooth="yes"/>
      <point x="727" y="312"/>
      <point x="636" y="208"/>
      <point x="561" y="208" type="qcurve" smooth="yes"/>
      <point x="483" y="208"/>
      <point x="389" y="310"/>
      <point x="389" y="404" type="qcurve" smooth="yes"/>
      <point x="389" y="414" type="line"/>
      <point x="32" y="414" type="line"/>
    </contour>
  </outline>
</glyph>
<glyph name="four" format="1">
  <advance width="1126"/>
  <unicode hex="0034"/>
  <outline>
    <contour>
      <point x="562" y="0" type="line"/>
      <point x="918" y="0" type="line"/>
      <point x="918" y="1456" type="line"/>
      <point x="538" y="1456" type="line"/>
      <point x="44" y="550" type="line"/>
      <point x="44" y="325" type="line"/>
      <point x="1059" y="325" type="line"/>
      <point x="1059" y="557" type="line"/>
      <point x="708" y="557" type="line"/>
      <point x="636" y="557" type="line"/>
      <point x="393" y="557" type="line"/>
      <point x="550" y="972" type="line"/>
      <point x="562" y="972" type="line"/>
      <point x="562" y="456" type="line"/>
      <point x="562" y="399" type="line"/>
    </contour>
  </outline>
</glyph>
<glyph name="five" format="1">
  <advance width="1195"/>
  <unicode hex="0035"/>
  <outline>
    <contour>
      <point x="68" y="389" type="line" smooth="yes"/>
      <point x="68" y="209"/>
      <point x="357" y="-30"/>
      <point x="592" y="-30" type="qcurve" smooth="yes"/>
      <point x="819" y="-30"/>
      <point x="1119" y="235"/>
      <point x="1119" y="465" type="qcurve" smooth="yes"/>
      <point x="1119" y="698"/>
      <point x="862" y="958"/>
      <point x="673" y="958" type="qcurve" smooth="yes"/>
      <point x="612" y="958"/>
      <point x="507" y="933"/>
      <point x="462" y="909" type="qcurve"/>
      <point x="482" y="1194" type="line"/>
      <point x="1053" y="1194" type="line"/>
      <point x="1053" y="1456" type="line"/>
      <point x="180" y="1456" type="line"/>
      <point x="118" y="714" type="line"/>
      <point x="385" y="613" type="line"/>
      <point x="408" y="656"/>
      <point x="527" y="720"/>
      <point x="592" y="720" type="qcurve" smooth="yes"/>
      <point x="666" y="720"/>
      <point x="763" y="589"/>
      <point x="763" y="465" type="qcurve" smooth="yes"/>
      <point x="763" y="343"/>
      <point x="666" y="208"/>
      <point x="592" y="208" type="qcurve" smooth="yes"/>
      <point x="515" y="208"/>
      <point x="426" y="304"/>
      <point x="426" y="389" type="qcurve" smooth="yes"/>
      <point x="426" y="399" type="line"/>
      <point x="68" y="399" type="line"/>
    </contour>
  </outline>
</glyph>
<glyph name="six" format="1">
  <advance width="1126"/>
  <unicode hex="0036"/>
  <outline>
    <contour>
      <point x="27" y="614" type="line" smooth="yes"/>
      <point x="27" y="274"/>
      <point x="350" y="-30"/>
      <point x="575" y="-30" type="qcurve" smooth="yes"/>
      <point x="804" y="-30"/>
      <point x="1103" y="248"/>
      <point x="1103" y="470" type="qcurve" smooth="yes"/>
      <point x="1103" y="694"/>
      <point x="843" y="973"/>
      <point x="630" y="973" type="qcurve" smooth="yes"/>
      <point x="455" y="973"/>
      <point x="253" y="695"/>
      <point x="253" y="470" type="qcurve"/>
      <point x="381" y="470" type="line"/>
      <point x="381" y="600"/>
      <point x="499" y="735"/>
      <point x="575" y="735" type="qcurve" smooth="yes"/>
      <point x="656" y="735"/>
      <point x="746" y="596"/>
      <point x="746" y="470" type="qcurve" smooth="yes"/>
      <point x="746" y="345"/>
      <point x="656" y="208"/>
      <point x="575" y="208" type="qcurve" smooth="yes"/>
      <point x="493" y="208"/>
      <point x="386" y="388"/>
      <point x="386" y="604" type="qcurve" smooth="yes"/>
      <point x="386" y="654" type="line" smooth="yes"/>
      <point x="386" y="964"/>
      <point x="673" y="1242"/>
      <point x="926" y="1242" type="qcurve" smooth="yes"/>
      <point x="938" y="1242" type="line"/>
      <point x="938" y="1486" type="line"/>
      <point x="926" y="1486" type="line" smooth="yes"/>
      <point x="492" y="1486"/>
      <point x="27" y="1023"/>
      <point x="27" y="644" type="qcurve" smooth="yes"/>
    </contour>
  </outline>
</glyph>
<glyph name="seven" format="1">
  <advance width="1195"/>
  <unicode hex="0037"/>
  <outline>
    <contour>
      <point x="264" y="0" type="line"/>
      <point x="657" y="0" type="line"/>
      <point x="1031" y="1253" type="line"/>
      <point x="1031" y="1456" type="line"/>
      <point x="128" y="1456" type="line"/>
      <point x="128" y="1190" type="line"/>
      <point x="631" y="1190" type="line"/>
    </contour>
  </outline>
</glyph>
<glyph name="eight" format="1">
  <advance width="1116"/>
  <unicode hex="0038"/>
  <outline>
    <contour>
      <point x="36" y="387" type="qcurve" smooth="yes"/>
      <point x="36" y="189"/>
      <point x="331" y="-30"/>
      <point x="558" y="-30" type="qcurve" smooth="yes"/>
      <point x="783" y="-30"/>
      <point x="1079" y="189"/>
      <point x="1079" y="387" type="qcurve" smooth="yes"/>
      <point x="1079" y="517"/>
      <point x="956" y="697"/>
      <point x="847" y="743" type="qcurve"/>
      <point x="847" y="747" type="line"/>
      <point x="929" y="793"/>
      <point x="1041" y="966"/>
      <point x="1041" y="1086" type="qcurve" smooth="yes"/>
      <point x="1041" y="1266"/>
      <point x="766" y="1486"/>
      <point x="558" y="1486" type="qcurve" smooth="yes"/>
      <point x="348" y="1486"/>
      <point x="73" y="1266"/>
      <point x="73" y="1086" type="qcurve" smooth="yes"/>
      <point x="73" y="966"/>
      <point x="185" y="793"/>
      <point x="267" y="747" type="qcurve"/>
      <point x="267" y="743" type="line"/>
      <point x="158" y="697"/>
      <point x="36" y="517"/>
    </contour>
    <contour>
      <point x="393" y="410" type="qcurve" smooth="yes"/>
      <point x="393" y="507"/>
      <point x="475" y="630"/>
      <point x="558" y="630" type="qcurve" smooth="yes"/>
      <point x="639" y="630"/>
      <point x="721" y="507"/>
      <point x="721" y="410" type="qcurve" smooth="yes"/>
      <point x="721" y="318"/>
      <point x="639" y="202"/>
      <point x="558" y="202" type="qcurve" smooth="yes"/>
      <point x="475" y="202"/>
      <point x="393" y="318"/>
    </contour>
    <contour>
      <point x="421" y="1063" type="qcurve" smooth="yes"/>
      <point x="421" y="1147"/>
      <point x="489" y="1254"/>
      <point x="558" y="1254" type="qcurve" smooth="yes"/>
      <point x="625" y="1254"/>
      <point x="695" y="1147"/>
      <point x="695" y="1063" type="qcurve" smooth="yes"/>
      <point x="695" y="976"/>
      <point x="625" y="862"/>
      <point x="558" y="862" type="qcurve" smooth="yes"/>
      <point x="489" y="862"/>
      <point x="421" y="976"/>
    </contour>
  </outline>
</glyph>
<glyph name="nine" format="1">
  <advance width="1116"/>
  <unicode hex="0039"/>
  <outline>
    <contour>
      <point x="16" y="996" type="qcurve" smooth="yes"/>
      <point x="16" y="776"/>
      <point x="280" y="503"/>
      <point x="490" y="503" type="qcurve" smooth="yes"/>
      <point x="665" y="503"/>
      <point x="867" y="775"/>
      <point x="867" y="996" type="qcurve"/>
      <point x="741" y="996" type="line"/>
      <point x="741" y="872"/>
      <point x="622" y="741"/>
      <point x="544" y="741" type="qcurve" smooth="yes"/>
      <point x="463" y="741"/>
      <point x="374" y="875"/>
      <point x="374" y="996" type="qcurve" smooth="yes"/>
      <point x="374" y="1116"/>
      <point x="463" y="1248"/>
      <point x="544" y="1248" type="qcurve" smooth="yes"/>
      <point x="628" y="1248"/>
      <point x="736" y="1068"/>
      <point x="736" y="852" type="qcurve" smooth="yes"/>
      <point x="736" y="802" type="line" smooth="yes"/>
      <point x="736" y="492"/>
      <point x="446" y="214"/>
      <point x="194" y="214" type="qcurve" smooth="yes"/>
      <point x="181" y="214" type="line"/>
      <point x="181" y="-30" type="line"/>
      <point x="194" y="-30" type="line" smooth="yes"/>
      <point x="628" y="-30"/>
      <point x="1092" y="433"/>
      <point x="1092" y="812" type="qcurve" smooth="yes"/>
      <point x="1092" y="842" type="line" smooth="yes"/>
      <point x="1092" y="1182"/>
      <point x="769" y="1486"/>
      <point x="544" y="1486" type="qcurve" smooth="yes"/>
      <point x="316" y="1486"/>
      <point x="16" y="1214"/>
    </contour>
  </outline>
</glyph>
<glyph name="colon" format="1">
  <advance width="606"/>
  <unicode hex="003A"/>
  <outline>
    <contour>
      <point x="97" y="157" type="qcurve" smooth="yes"/>
      <point x="97" y="83"/>
      <point x="203" y="-22"/>
      <point x="302" y="-22" type="qcurve" smooth="yes"/>
      <point x="401" y="-22"/>
      <point x="509" y="83"/>
      <point x="509" y="157" type="qcurve" smooth="yes"/>
      <point x="509" y="231"/>
      <point x="401" y="336"/>
      <point x="302" y="336" type="qcurve" smooth="yes"/>
      <point x="203" y="336"/>
      <point x="97" y="231"/>
    </contour>
    <contour>
      <point x="97" y="767" type="qcurve" smooth="yes"/>
      <point x="97" y="692"/>
      <point x="203" y="588"/>
      <point x="302" y="588" type="qcurve" smooth="yes"/>
      <point x="401" y="588"/>
      <point x="509" y="692"/>
      <point x="509" y="767" type="qcurve" smooth="yes"/>
      <point x="509" y="841"/>
      <point x="401" y="946"/>
      <point x="302" y="946" type="qcurve" smooth="yes"/>
      <point x="203" y="946"/>
      <point x="97" y="841"/>
    </contour>
  </outline>
</glyph>
<glyph name="semicolon" format="1">
  <advance width="626.3973889268626"/>
  <unicode hex="003B"/>
  <outline>
    <contour>
      <point x="92" y="-219" type="qcurve"/>
      <point x="244" y="-313" type="line"/>
      <point x="338" y="-240"/>
      <point x="444" y="-36"/>
      <point x="444" y="87" type="qcurve" smooth="yes"/>
      <point x="444" y="271" type="line"/>
      <point x="202" y="271" type="line"/>
      <point x="202" y="86" type="line" smooth="yes"/>
      <point x="203" y="-8"/>
      <point x="146" y="-152"/>
    </contour>
    <contour>
      <point x="145" y="805" type="qcurve" smooth="yes"/>
      <point x="145" y="740"/>
      <point x="232" y="647"/>
      <point x="313" y="647" type="qcurve" smooth="yes"/>
      <point x="395" y="647"/>
      <point x="481" y="740"/>
      <point x="481" y="805" type="qcurve" smooth="yes"/>
      <point x="481" y="870"/>
      <point x="394" y="963"/>
      <point x="313" y="963" type="qcurve" smooth="yes"/>
      <point x="232" y="963"/>
      <point x="145" y="870"/>
    </contour>
  </outline>
</glyph>
<glyph name="equal" format="1">
  <advance width="752"/>
  <unicode hex="003D"/>
  <outline>
    <contour>
      <point x="43" y="343" type="line"/>
      <point x="709" y="343" type="line"/>
      <point x="709" y="578" type="line"/>
      <point x="43" y="578" type="line"/>
    </contour>
    <contour>
      <point x="43" y="770" type="line"/>
      <point x="709" y="770" type="line"/>
      <point x="709" y="1005" type="line"/>
      <point x="43" y="1005" type="line"/>
    </contour>
  </outline>
</glyph>
<glyph name="greater" format="1">
  <advance width="760"/>
  <unicode hex="003E"/>
  <outline>
    <contour>
      <point x="64" y="159" type="line"/>
      <point x="703" y="560" type="line"/>
      <point x="703" y="789" type="line"/>
      <point x="64" y="1189" type="line"/>
      <point x="64" y="883" type="line"/>
      <point x="329" y="674" type="line"/>
      <point x="64" y="465" type="line"/>
    </contour>
  </outline>
</glyph>
<glyph name="question" format="1">
  <advance width="1025"/>
  <unicode hex="003F"/>
  <outline>
    <contour>
      <point x="296" y="116" type="qcurve" smooth="yes"/>
      <point x="296" y="59"/>
      <point x="381" y="-22"/>
      <point x="460" y="-22" type="qcurve" smooth="yes"/>
      <point x="539" y="-22"/>
      <point x="623" y="59"/>
      <point x="623" y="116" type="qcurve" smooth="yes"/>
      <point x="623" y="172"/>
      <point x="538" y="253"/>
      <point x="459" y="253" type="qcurve" smooth="yes"/>
      <point x="380" y="253"/>
      <point x="296" y="172"/>
    </contour>
    <contour>
      <point x="118" y="1053" type="line"/>
      <point x="389" y="1053" type="line"/>
      <point x="389" y="1084" type="line" smooth="yes"/>
      <point x="389" y="1200"/>
      <point x="439" y="1304"/>
      <point x="495" y="1304" type="qcurve" smooth="yes"/>
      <point x="547" y="1304"/>
      <point x="594" y="1206"/>
      <point x="594" y="1096" type="qcurve" smooth="yes"/>
      <point x="594" y="998"/>
      <point x="542" y="866"/>
      <point x="483" y="816" type="qcurve"/>
      <point x="398" y="729"/>
      <point x="332" y="553"/>
      <point x="332" y="443" type="qcurve" smooth="yes"/>
      <point x="332" y="433" type="line"/>
      <point x="584" y="433" type="line"/>
      <point x="584" y="443" type="line" smooth="yes"/>
      <point x="584" y="528"/>
      <point x="647" y="651"/>
      <point x="706" y="702" type="qcurve" smooth="yes"/>
      <point x="790" y="774"/>
      <point x="865" y="960"/>
      <point x="865" y="1096" type="qcurve" smooth="yes"/>
      <point x="865" y="1296"/>
      <point x="690" y="1476"/>
      <point x="494" y="1476" type="qcurve" smooth="yes"/>
      <point x="296" y="1476"/>
      <point x="118" y="1291"/>
      <point x="118" y="1084" type="qcurve" smooth="yes"/>
    </contour>
  </outline>
</glyph>
<glyph name="at" format="1">
  <advance width="1948"/>
  <unicode hex="0040"/>
  <outline>
    <contour>
      <point x="517" y="400" type="qcurve" smooth="yes"/>
      <point x="517" y="220"/>
      <point x="707" y="0"/>
      <point x="868" y="0" type="qcurve" smooth="yes"/>
      <point x="936" y="0"/>
      <point x="1062" y="99"/>
      <point x="1104" y="179" type="qcurve"/>
      <point x="1135" y="99"/>
      <point x="1280" y="0"/>
      <point x="1373" y="0" type="qcurve" smooth="yes"/>
      <point x="1597" y="0"/>
      <point x="1904" y="360"/>
      <point x="1904" y="650" type="qcurve" smooth="yes"/>
      <point x="1904" y="1000"/>
      <point x="1403" y="1486"/>
      <point x="1002" y="1486" type="qcurve" smooth="yes"/>
      <point x="615" y="1486"/>
      <point x="43" y="880"/>
      <point x="43" y="460" type="qcurve" smooth="yes"/>
      <point x="43" y="40"/>
      <point x="574" y="-446"/>
      <point x="933" y="-446" type="qcurve" smooth="yes"/>
      <point x="1030" y="-446"/>
      <point x="1160" y="-400"/>
      <point x="1210" y="-356" type="qcurve"/>
      <point x="1210" y="-137" type="line"/>
      <point x="1164" y="-173"/>
      <point x="1030" y="-227"/>
      <point x="933" y="-227" type="qcurve" smooth="yes"/>
      <point x="696" y="-227"/>
      <point x="380" y="130"/>
      <point x="380" y="460" type="qcurve" smooth="yes"/>
      <point x="380" y="794"/>
      <point x="738" y="1267"/>
      <point x="1002" y="1267" type="qcurve" smooth="yes"/>
      <point x="1271" y="1267"/>
      <point x="1567" y="896"/>
      <point x="1567" y="650" type="qcurve" smooth="yes"/>
      <point x="1567" y="443"/>
      <point x="1472" y="185"/>
      <point x="1397" y="185" type="qcurve" smooth="yes"/>
      <point x="1365" y="185"/>
      <point x="1341" y="258"/>
      <point x="1349" y="350" type="qcurve" smooth="yes"/>
      <point x="1431" y="946" type="line"/>
      <point x="1214" y="946" type="line"/>
      <point x="1174" y="986"/>
      <point x="1061" y="1052"/>
      <point x="991" y="1052" type="qcurve" smooth="yes"/>
      <point x="808" y="1052"/>
      <point x="517" y="680"/>
    </contour>
    <contour>
      <point x="818" y="400" type="qcurve" smooth="yes"/>
      <point x="818" y="595"/>
      <point x="922" y="853"/>
      <point x="1000" y="853" type="qcurve" smooth="yes"/>
      <point x="1028" y="853"/>
      <point x="1080" y="833"/>
      <point x="1102" y="814" type="qcurve"/>
      <point x="1064" y="420" type="line" smooth="yes"/>
      <point x="1050" y="301"/>
      <point x="963" y="207"/>
      <point x="912" y="207" type="qcurve" smooth="yes"/>
      <point x="867" y="207"/>
      <point x="818" y="305"/>
    </contour>
  </outline>
</glyph>
<glyph name="A" format="2">
  <advance width="1252"/>
  <unicode hex="0041"/>
  <outline>
    <contour>
      <point x="0" y="0" type="line"/>
      <point x="514" y="0" type="line"/>
      <point x="601" y="609" type="line" smooth="yes"/>
      <point x="605" y="639"/>
      <point x="612" y="703"/>
      <point x="618" y="750" type="qcurve"/>
      <point x="620" y="750" type="line"/>
      <point x="625" y="703"/>
      <point x="632" y="639"/>
      <point x="637" y="608" type="qcurve" smooth="yes"/>
      <point x="729" y="0" type="line"/>
      <point x="1252" y="0" type="line"/>
      <point x="937" y="1455" type="line"/>
      <point x="314" y="1455" type="line"/>
    </contour>
    <contour>
      <point x="357" y="136" type="line"/>
      <point x="904" y="136" type="line"/>
      <point x="855" y="448" type="line"/>
      <point x="404" y="448" type="line"/>
    </contour>
  </outline>
</glyph>
<glyph name="B" format="1">
  <advance width="1034.5728293889085"/>
  <unicode hex="0042"/>
  <outline>
    <contour>
      <point x="144.5708230307312" y="0.0" type="line"/>
      <point x="543" y="0" type="line" smooth="yes"/>
      <point x="773.0" y="0.0"/>
      <point x="979.0" y="192.0"/>
      <point x="979" y="406" type="qcurve" smooth="yes"/>
      <point x="979.0" y="566.0"/>
      <point x="885.0" y="735.0"/>
      <point x="780" y="763" type="qcurve"/>
      <point x="780" y="767" type="line"/>
      <point x="864.0" y="794.0"/>
      <point x="940.0" y="942.0"/>
      <point x="940" y="1081" type="qcurve" smooth="yes"/>
      <point x="940.0" y="1279.0"/>
      <point x="738.0" y="1456.0"/>
      <point x="512" y="1456" type="qcurve" smooth="yes"/>
      <point x="144.5708230307312" y="1456.0" type="line"/>
    </contour>
    <contour>
      <point x="407" y="171" type="line"/>
      <point x="407" y="674" type="line"/>
      <point x="543" y="674" type="line" smooth="yes"/>
      <point x="635.0" y="674.0"/>
      <point x="718.0" y="554.0"/>
      <point x="718" y="420" type="qcurve" smooth="yes"/>
      <point x="718.0" y="289.0"/>
      <point x="635.0" y="171.0"/>
      <point x="543" y="171" type="qcurve" smooth="yes"/>
    </contour>
    <contour>
      <point x="407" y="841" type="line"/>
      <point x="407" y="1285" type="line"/>
      <point x="512" y="1285" type="line" smooth="yes"/>
      <point x="600.0" y="1285.0"/>
      <point x="679.0" y="1181.0"/>
      <point x="679" y="1066" type="qcurve" smooth="yes"/>
      <point x="679.0" y="947.0"/>
      <point x="600.0" y="841.0"/>
      <point x="512" y="841" type="qcurve" smooth="yes"/>
    </contour>
  </outline>
</glyph>
<glyph name="C" format="2">
  <advance width="998"/>
  <unicode hex="0043"/>
  <outline>
    <contour>
      <point x="19" y="686" type="line" smooth="yes"/>
      <point x="19" y="312"/>
      <point x="253" y="-24"/>
      <point x="513" y="-24" type="qcurve" smooth="yes"/>
      <point x="749" y="-24"/>
      <point x="960" y="209"/>
      <point x="960" y="469" type="qcurve" smooth="yes"/>
      <point x="960" y="494" type="line"/>
      <point x="689" y="494" type="line"/>
      <point x="689" y="474" type="line" smooth="yes"/>
      <point x="689" y="311"/>
      <point x="607" y="164"/>
      <point x="516" y="164" type="qcurve" smooth="yes"/>
      <point x="396" y="164"/>
      <point x="288" y="411"/>
      <point x="288" y="686" type="qcurve" smooth="yes"/>
      <point x="288" y="770" type="line" smooth="yes"/>
      <point x="288" y="1045"/>
      <point x="396" y="1292"/>
      <point x="516" y="1292" type="qcurve" smooth="yes"/>
      <point x="607" y="1292"/>
      <point x="689" y="1145"/>
      <point x="689" y="982" type="qcurve" smooth="yes"/>
      <point x="689" y="962" type="line"/>
      <point x="960" y="962" type="line"/>
      <point x="960" y="987" type="line" smooth="yes"/>
      <point x="960" y="1247"/>
      <point x="749" y="1480"/>
      <point x="513" y="1480" type="qcurve" smooth="yes"/>
      <point x="253" y="1480"/>
      <point x="19" y="1144"/>
      <point x="19" y="770" type="qcurve" smooth="yes"/>
    </contour>
  </outline>
</glyph>
<glyph name="D" format="2">
  <advance width="963"/>
  <unicode hex="0044"/>
  <outline>
    <contour>
      <point x="38" y="0" type="line"/>
      <point x="387" y="0" type="line" smooth="yes"/>
      <point x="681" y="0"/>
      <point x="944" y="324"/>
      <point x="944" y="686" type="qcurve" smooth="yes"/>
      <point x="944" y="770" type="line" smooth="yes"/>
      <point x="944" y="1132"/>
      <point x="681" y="1456"/>
      <point x="387" y="1456" type="qcurve" smooth="yes"/>
      <point x="38" y="1456" type="line"/>
    </contour>
    <contour>
      <point x="300" y="184" type="line"/>
      <point x="300" y="1272" type="line"/>
      <point x="387" y="1272" type="line" smooth="yes"/>
      <point x="538" y="1272"/>
      <point x="674" y="1035"/>
      <point x="674" y="770" type="qcurve" smooth="yes"/>
      <point x="674" y="686" type="line" smooth="yes"/>
      <point x="674" y="421"/>
      <point x="538" y="184"/>
      <point x="387" y="184" type="qcurve" smooth="yes"/>
    </contour>
  </outline>
</glyph>
<glyph name="E" format="2">
  <advance width="786"/>
  <unicode hex="0045"/>
  <outline>
    <contour>
      <point x="38" y="0" type="line"/>
      <point x="774" y="0" type="line"/>
      <point x="774" y="184" type="line"/>
      <point x="299" y="184" type="line"/>
      <point x="299" y="659" type="line"/>
      <point x="669" y="659" type="line"/>
      <point x="669" y="843" type="line"/>
      <point x="299" y="843" type="line"/>
      <point x="299" y="1272" type="line"/>
      <point x="764" y="1272" type="line"/>
      <point x="764" y="1456" type="line"/>
      <point x="38" y="1456" type="line"/>
    </contour>
  </outline>
</glyph>
<glyph name="F" format="1">
  <advance width="966"/>
  <unicode hex="0046"/>
  <outline>
    <contour>
      <point x="92" y="0" type="line"/>
      <point x="443" y="0" type="line"/>
      <point x="443" y="562" type="line"/>
      <point x="903" y="562" type="line"/>
      <point x="903" y="814" type="line"/>
      <point x="443" y="814" type="line"/>
      <point x="443" y="1205" type="line"/>
      <point x="971" y="1205" type="line"/>
      <point x="971" y="1456" type="line"/>
      <point x="92" y="1456" type="line"/>
    </contour>
  </outline>
</glyph>
<glyph name="G" format="2">
  <advance width="1011"/>
  <unicode hex="0047"/>
  <outline>
    <contour>
      <point x="19" y="686" type="line" smooth="yes"/>
      <point x="19" y="311"/>
      <point x="262" y="-25"/>
      <point x="532" y="-25" type="qcurve" smooth="yes"/>
      <point x="652" y="-25"/>
      <point x="843" y="52"/>
      <point x="935" y="137" type="qcurve"/>
      <point x="935" y="738" type="line"/>
      <point x="501" y="738" type="line"/>
      <point x="501" y="553" type="line"/>
      <point x="675" y="553" type="line"/>
      <point x="675" y="218" type="line"/>
      <point x="641" y="188"/>
      <point x="574" y="161"/>
      <point x="532" y="161" type="qcurve" smooth="yes"/>
      <point x="403" y="161"/>
      <point x="288" y="409"/>
      <point x="288" y="686" type="qcurve" smooth="yes"/>
      <point x="288" y="770" type="line" smooth="yes"/>
      <point x="288" y="1047"/>
      <point x="389" y="1295"/>
      <point x="501" y="1295" type="qcurve" smooth="yes"/>
      <point x="580" y="1295"/>
      <point x="658" y="1171"/>
      <point x="666" y="1033" type="qcurve" smooth="yes"/>
      <point x="667" y="1013" type="line"/>
      <point x="936" y="1013" type="line"/>
      <point x="936" y="1033" type="line" smooth="yes"/>
      <point x="936" y="1269"/>
      <point x="730" y="1481"/>
      <point x="501" y="1481" type="qcurve" smooth="yes"/>
      <point x="247" y="1481"/>
      <point x="19" y="1145"/>
      <point x="19" y="770" type="qcurve" smooth="yes"/>
    </contour>
  </outline>
</glyph>
<glyph name="H" format="2">
  <advance width="1224"/>
  <unicode hex="0048"/>
  <outline>
    <contour>
      <point x="38" y="0" type="line"/>
      <point x="560" y="0" type="line"/>
      <point x="560" y="537" type="line"/>
      <point x="664" y="537" type="line"/>
      <point x="664" y="0" type="line"/>
      <point x="1186" y="0" type="line"/>
      <point x="1186" y="1456" type="line"/>
      <point x="664" y="1456" type="line"/>
      <point x="664" y="884" type="line"/>
      <point x="560" y="884" type="line"/>
      <point x="560" y="1456" type="line"/>
      <point x="38" y="1456" type="line"/>
    </contour>
  </outline>
</glyph>
<glyph name="I" format="2">
  <advance width="337"/>
  <unicode hex="0049"/>
  <outline>
    <contour>
      <point x="38" y="0" type="line"/>
      <point x="299" y="0" type="line"/>
      <point x="299" y="1456" type="line"/>
      <point x="38" y="1456" type="line"/>
    </contour>
  </outline>
</glyph>
<glyph name="J" format="2">
  <advance width="813"/>
  <unicode hex="004A"/>
  <outline>
    <contour>
      <point x="10" y="452" type="line" smooth="yes"/>
      <point x="10" y="200"/>
      <point x="192" y="-25"/>
      <point x="394" y="-25" type="qcurve" smooth="yes"/>
      <point x="595" y="-25"/>
      <point x="775" y="220"/>
      <point x="775" y="493" type="qcurve" smooth="yes"/>
      <point x="775" y="1456" type="line"/>
      <point x="515" y="1456" type="line"/>
      <point x="515" y="498" type="line" smooth="yes"/>
      <point x="515" y="320"/>
      <point x="458" y="161"/>
      <point x="394" y="161" type="qcurve" smooth="yes"/>
      <point x="330" y="161"/>
      <point x="272" y="304"/>
      <point x="272" y="463" type="qcurve" smooth="yes"/>
      <point x="272" y="478" type="line"/>
      <point x="10" y="478" type="line"/>
    </contour>
  </outline>
</glyph>
<glyph name="K" format="2">
  <advance width="831"/>
  <unicode hex="004B"/>
  <outline>
    <contour>
      <point x="38" y="0" type="line"/>
      <point x="300" y="0" type="line"/>
      <point x="300" y="483" type="line"/>
      <point x="876" y="1456" type="line"/>
      <point x="611" y="1456" type="line"/>
      <point x="300" y="895" type="line"/>
      <point x="300" y="1456" type="line"/>
      <point x="38" y="1456" type="line"/>
    </contour>
    <contour>
      <point x="583" y="0" type="line"/>
      <point x="884" y="0" type="line"/>
      <point x="444" y="889" type="line"/>
      <point x="265" y="710" type="line"/>
    </contour>
  </outline>
</glyph>
<glyph name="L" format="2">
  <advance width="766"/>
  <unicode hex="004C"/>
  <outline>
    <contour>
      <point x="38" y="0" type="line"/>
      <point x="749" y="0" type="line"/>
      <point x="749" y="184" type="line"/>
      <point x="299" y="184" type="line"/>
      <point x="299" y="1456" type="line"/>
      <point x="38" y="1456" type="line"/>
    </contour>
  </outline>
</glyph>
<glyph name="M" format="1">
  <advance width="1289.6059201695514"/>
  <unicode hex="004D"/>
  <outline>
    <contour>
      <point x="125.14305898975627" y="0.0" type="line"/>
      <point x="343" y="0" type="line"/>
      <point x="343" y="914" type="line" smooth="yes"/>
      <point x="343" y="957"/>
      <point x="337" y="1064"/>
      <point x="334" y="1107" type="qcurve"/>
      <point x="343" y="1107" type="line"/>
      <point x="346" y="1064"/>
      <point x="363" y="958"/>
      <point x="370" y="914" type="qcurve" smooth="yes"/>
      <point x="524" y="0" type="line"/>
      <point x="743" y="0" type="line"/>
      <point x="898" y="914" type="line" smooth="yes"/>
      <point x="905" y="957"/>
      <point x="921" y="1063"/>
      <point x="925" y="1107" type="qcurve"/>
      <point x="933" y="1107" type="line"/>
      <point x="930" y="1064"/>
      <point x="923" y="957"/>
      <point x="923" y="914" type="qcurve"/>
      <point x="923" y="0" type="line"/>
      <point x="1164.4628611797953" y="0.0" type="line"/>
      <point x="1164.4628611797953" y="1456.0" type="line"/>
      <point x="848" y="1456" type="line"/>
      <point x="671" y="446" type="line" smooth="yes"/>
      <point x="661" y="389"/>
      <point x="652" y="332"/>
      <point x="648" y="275" type="qcurve"/>
      <point x="641" y="275" type="line"/>
      <point x="637" y="332"/>
      <point x="628" y="389"/>
      <point x="618" y="446" type="qcurve" smooth="yes"/>
      <point x="441" y="1456" type="line"/>
      <point x="125.14305898975627" y="1456.0" type="line"/>
    </contour>
  </outline>
</glyph>
<glyph name="N" format="1">
  <advance width="1182"/>
  <unicode hex="004E"/>
  <outline>
    <contour>
      <point x="92" y="0" type="line"/>
      <point x="398" y="0" type="line"/>
      <point x="398" y="841" type="line" smooth="yes"/>
      <point x="398" y="877"/>
      <point x="395" y="952"/>
      <point x="393" y="988" type="qcurve"/>
      <point x="397" y="988" type="line"/>
      <point x="404" y="955"/>
      <point x="421" y="891"/>
      <point x="432" y="861" type="qcurve" smooth="yes"/>
      <point x="673" y="0" type="line"/>
      <point x="1090" y="0" type="line"/>
      <point x="1090" y="1456" type="line"/>
      <point x="785" y="1456" type="line"/>
      <point x="787" y="615" type="line" smooth="yes"/>
      <point x="787" y="579"/>
      <point x="789" y="504"/>
      <point x="792" y="468" type="qcurve"/>
      <point x="786" y="468" type="line"/>
      <point x="779" y="501"/>
      <point x="761" y="564"/>
      <point x="751" y="595" type="qcurve" smooth="yes"/>
      <point x="511" y="1456" type="line"/>
      <point x="92" y="1456" type="line"/>
    </contour>
  </outline>
</glyph>
<glyph name="O" format="1">
  <advance width="1257"/>
  <unicode hex="004F"/>
  <outline>
    <contour>
      <point x="44" y="681" type="line" smooth="yes"/>
      <point x="44" y="345"/>
      <point x="368" y="-30"/>
      <point x="629" y="-30" type="qcurve" smooth="yes"/>
      <point x="890" y="-30"/>
      <point x="1212" y="345"/>
      <point x="1212" y="681" type="qcurve" smooth="yes"/>
      <point x="1212" y="775" type="line" smooth="yes"/>
      <point x="1212" y="1111"/>
      <point x="890" y="1486"/>
      <point x="629" y="1486" type="qcurve" smooth="yes"/>
      <point x="368" y="1486"/>
      <point x="44" y="1111"/>
      <point x="44" y="775" type="qcurve" smooth="yes"/>
    </contour>
    <contour>
      <point x="408" y="681" type="qcurve" smooth="yes"/>
      <point x="408" y="775" type="line" smooth="yes"/>
      <point x="408" y="985"/>
      <point x="522" y="1225"/>
      <point x="629" y="1225" type="qcurve" smooth="yes"/>
      <point x="736" y="1225"/>
      <point x="850" y="984"/>
      <point x="850" y="775" type="qcurve" smooth="yes"/>
      <point x="850" y="681" type="line" smooth="yes"/>
      <point x="850" y="472"/>
      <point x="736" y="231"/>
      <point x="629" y="231" type="qcurve" smooth="yes"/>
      <point x="522" y="231"/>
      <point x="408" y="471"/>
    </contour>
  </outline>
</glyph>
<glyph name="P" format="2">
  <advance width="911"/>
  <unicode hex="0050"/>
  <outline>
    <contour>
      <point x="38" y="0" type="line"/>
      <point x="300" y="0" type="line"/>
      <point x="300" y="533" type="line"/>
      <point x="413" y="533" type="line" smooth="yes"/>
      <point x="640" y="533"/>
      <point x="843" y="752"/>
      <point x="843" y="997" type="qcurve" smooth="yes"/>
      <point x="843" y="1239"/>
      <point x="640" y="1456"/>
      <point x="413" y="1456" type="qcurve" smooth="yes"/>
      <point x="38" y="1456" type="line"/>
    </contour>
    <contour>
      <point x="300" y="718" type="line"/>
      <point x="300" y="1272" type="line"/>
      <point x="413" y="1272" type="line" smooth="yes"/>
      <point x="502" y="1272"/>
      <point x="581" y="1142"/>
      <point x="581" y="997" type="qcurve" smooth="yes"/>
      <point x="581" y="850"/>
      <point x="502" y="718"/>
      <point x="413" y="718" type="qcurve" smooth="yes"/>
    </contour>
  </outline>
</glyph>
<glyph name="Q" format="2">
  <advance width="995"/>
  <unicode hex="0051"/>
  <outline>
    <contour>
      <point x="19" y="686" type="line" smooth="yes"/>
      <point x="19" y="311"/>
      <point x="245" y="-25"/>
      <point x="497" y="-25" type="qcurve" smooth="yes"/>
      <point x="750" y="-25"/>
      <point x="976" y="311"/>
      <point x="976" y="686" type="qcurve" smooth="yes"/>
      <point x="976" y="770" type="line" smooth="yes"/>
      <point x="976" y="1145"/>
      <point x="750" y="1481"/>
      <point x="497" y="1481" type="qcurve" smooth="yes"/>
      <point x="245" y="1481"/>
      <point x="19" y="1145"/>
      <point x="19" y="770" type="qcurve" smooth="yes"/>
    </contour>
    <contour>
      <point x="288" y="686" type="qcurve" smooth="yes"/>
      <point x="288" y="770" type="line" smooth="yes"/>
      <point x="288" y="1045"/>
      <point x="387" y="1292"/>
      <point x="497" y="1292" type="qcurve" smooth="yes"/>
      <point x="607" y="1292"/>
      <point x="706" y="1045"/>
      <point x="706" y="770" type="qcurve" smooth="yes"/>
      <point x="706" y="686" type="line" smooth="yes"/>
      <point x="706" y="411"/>
      <point x="607" y="164"/>
      <point x="497" y="164" type="qcurve" smooth="yes"/>
      <point x="387" y="164"/>
      <point x="288" y="411"/>
    </contour>
    <contour>
      <point x="789" y="-250" type="line"/>
      <point x="963" y="-96" type="line"/>
      <point x="662" y="170" type="line"/>
      <point x="492" y="19" type="line"/>
    </contour>
  </outline>
</glyph>
<glyph name="R" format="2">
  <advance width="876"/>
  <unicode hex="0052"/>
  <outline>
    <contour>
      <point x="38" y="0" type="line"/>
      <point x="300" y="0" type="line"/>
      <point x="300" y="558" type="line"/>
      <point x="405" y="558" type="line" smooth="yes"/>
      <point x="633" y="558"/>
      <point x="838" y="772"/>
      <point x="838" y="1010" type="qcurve" smooth="yes"/>
      <point x="838" y="1245"/>
      <point x="633" y="1456"/>
      <point x="405" y="1456" type="qcurve" smooth="yes"/>
      <point x="38" y="1456" type="line"/>
    </contour>
    <contour>
      <point x="300" y="742" type="line"/>
      <point x="300" y="1272" type="line"/>
      <point x="405" y="1272" type="line" smooth="yes"/>
      <point x="495" y="1272"/>
      <point x="576" y="1148"/>
      <point x="576" y="1009" type="qcurve" smooth="yes"/>
      <point x="576" y="868"/>
      <point x="495" y="742"/>
      <point x="405" y="742" type="qcurve" smooth="yes"/>
    </contour>
    <contour>
      <point x="569" y="0" type="line"/>
      <point x="863" y="0" type="line"/>
      <point x="586" y="669" type="line"/>
      <point x="300" y="669" type="line"/>
    </contour>
  </outline>
</glyph>
<glyph name="S" format="2">
  <advance width="941"/>
  <unicode hex="0053"/>
  <outline>
    <contour>
      <point x="66" y="395" type="line" smooth="yes"/>
      <point x="66" y="174"/>
      <point x="269" y="-25"/>
      <point x="495" y="-25" type="qcurve" smooth="yes"/>
      <point x="720" y="-25"/>
      <point x="922" y="170"/>
      <point x="922" y="387" type="qcurve" smooth="yes"/>
      <point x="922" y="543"/>
      <point x="750" y="762"/>
      <point x="559" y="851" type="qcurve" smooth="yes"/>
      <point x="444" y="903"/>
      <point x="341" y="1025"/>
      <point x="341" y="1109" type="qcurve" smooth="yes"/>
      <point x="341" y="1208"/>
      <point x="413" y="1296"/>
      <point x="493" y="1296" type="qcurve" smooth="yes"/>
      <point x="573" y="1296"/>
      <point x="645" y="1190"/>
      <point x="645" y="1072" type="qcurve" smooth="yes"/>
      <point x="645" y="1018" type="line"/>
      <point x="907" y="1018" type="line"/>
      <point x="907" y="1072" type="line" smooth="yes"/>
      <point x="907" y="1288"/>
      <point x="711" y="1481"/>
      <point x="493" y="1481" type="qcurve" smooth="yes"/>
      <point x="275" y="1481"/>
      <point x="80" y="1293"/>
      <point x="80" y="1083" type="qcurve" smooth="yes"/>
      <point x="80" y="935"/>
      <point x="251" y="723"/>
      <point x="442" y="633" type="qcurve" smooth="yes"/>
      <point x="557" y="580"/>
      <point x="660" y="451"/>
      <point x="660" y="361" type="qcurve" smooth="yes"/>
      <point x="660" y="255"/>
      <point x="582" y="160"/>
      <point x="495" y="160" type="qcurve" smooth="yes"/>
      <point x="406" y="160"/>
      <point x="327" y="271"/>
      <point x="327" y="395" type="qcurve" smooth="yes"/>
      <point x="327" y="459" type="line"/>
      <point x="66" y="459" type="line"/>
    </contour>
  </outline>
</glyph>
<glyph name="T" format="2">
  <advance width="995"/>
  <unicode hex="0054"/>
  <outline>
    <contour>
      <point x="4" y="1033" type="line"/>
      <point x="243" y="1033" type="line"/>
      <point x="243" y="0" type="line"/>
      <point x="754" y="0" type="line"/>
      <point x="754" y="1033" type="line"/>
      <point x="991" y="1033" type="line"/>
      <point x="991" y="1456" type="line"/>
      <point x="4" y="1456" type="line"/>
    </contour>
  </outline>
</glyph>
<glyph name="U" format="2">
  <advance width="943"/>
  <unicode hex="0055"/>
  <outline>
    <contour>
      <point x="38" y="541" type="line" smooth="yes"/>
      <point x="38" y="243"/>
      <point x="243" y="-25"/>
      <point x="472" y="-25" type="qcurve" smooth="yes"/>
      <point x="700" y="-25"/>
      <point x="905" y="243"/>
      <point x="905" y="541" type="qcurve" smooth="yes"/>
      <point x="905" y="1456" type="line"/>
      <point x="643" y="1456" type="line"/>
      <point x="643" y="541" type="line" smooth="yes"/>
      <point x="643" y="342"/>
      <point x="562" y="164"/>
      <point x="472" y="164" type="qcurve" smooth="yes"/>
      <point x="380" y="164"/>
      <point x="298" y="342"/>
      <point x="298" y="541" type="qcurve" smooth="yes"/>
      <point x="298" y="1456" type="line"/>
      <point x="38" y="1456" type="line"/>
    </contour>
  </outline>
</glyph>
<glyph name="V" format="1">
  <advance width="1023"/>
  <unicode hex="0056"/>
  <outline>
    <contour>
      <point x="-5" y="1456" type="line"/>
      <point x="313" y="-4" type="line"/>
      <point x="710" y="-4" type="line"/>
      <point x="1027" y="1456" type="line"/>
      <point x="708" y="1456" type="line"/>
      <point x="556" y="469" type="line" smooth="yes"/>
      <point x="551" y="437"/>
      <point x="543" y="376"/>
      <point x="541" y="344" type="qcurve"/>
      <point x="533" y="344" type="line"/>
      <point x="530" y="376"/>
      <point x="524" y="437"/>
      <point x="518" y="469" type="qcurve" smooth="yes"/>
      <point x="365" y="1456" type="line"/>
    </contour>
  </outline>
</glyph>
<glyph name="W" format="1">
  <advance width="1581"/>
  <unicode hex="0057"/>
  <outline>
    <contour>
      <point x="227" y="-4" type="line"/>
      <point x="646" y="-4" type="line"/>
      <point x="777" y="961" type="line" smooth="yes"/>
      <point x="783" y="998"/>
      <point x="785" y="1071"/>
      <point x="788" y="1106" type="qcurve"/>
      <point x="791" y="1106" type="line"/>
      <point x="793" y="1071"/>
      <point x="797" y="998"/>
      <point x="804" y="961" type="qcurve" smooth="yes"/>
      <point x="933" y="-4" type="line"/>
      <point x="1353" y="-4" type="line"/>
      <point x="1567" y="1456" type="line"/>
      <point x="1278" y="1456" type="line"/>
      <point x="1189" y="495" type="line" smooth="yes"/>
      <point x="1185" y="457"/>
      <point x="1181" y="379"/>
      <point x="1178" y="342" type="qcurve"/>
      <point x="1174" y="342" type="line"/>
      <point x="1173" y="378"/>
      <point x="1173" y="458"/>
      <point x="1167" y="495" type="qcurve" smooth="yes"/>
      <point x="1035" y="1456" type="line"/>
      <point x="607" y="1456" type="line"/>
      <point x="484" y="494" type="line" smooth="yes"/>
      <point x="479" y="456"/>
      <point x="476" y="379"/>
      <point x="475" y="341" type="qcurve"/>
      <point x="471" y="341" type="line"/>
      <point x="469" y="378"/>
      <point x="466" y="456"/>
      <point x="462" y="494" type="qcurve" smooth="yes"/>
      <point x="364" y="1456" type="line"/>
      <point x="13" y="1456" type="line"/>
    </contour>
  </outline>
</glyph>
<glyph name="X" format="1">
  <advance width="934"/>
  <unicode hex="0058"/>
  <outline>
    <contour>
      <point x="-33" y="0" type="line"/>
      <point x="273" y="0" type="line"/>
      <point x="527" y="665" type="line"/>
      <point x="630" y="665" type="line"/>
      <point x="950" y="1456" type="line"/>
      <point x="645" y="1456" type="line"/>
      <point x="411" y="811" type="line"/>
      <point x="308" y="811" type="line"/>
    </contour>
    <contour>
      <point x="-16" y="1456" type="line"/>
      <point x="308" y="665" type="line"/>
      <point x="316" y="665" type="line"/>
      <point x="570" y="0" type="line"/>
      <point x="967" y="0" type="line"/>
      <point x="630" y="811" type="line"/>
      <point x="622" y="811" type="line"/>
      <point x="381" y="1456" type="line"/>
    </contour>
  </outline>
</glyph>
<glyph name="Y" format="1">
  <advance width="995"/>
  <unicode hex="0059"/>
  <outline>
    <contour>
      <point x="323" y="0" type="line"/>
      <point x="674" y="0" type="line"/>
      <point x="674" y="499" type="line"/>
      <point x="1035" y="1456" type="line"/>
      <point x="699" y="1456" type="line"/>
      <point x="558" y="938" type="line" smooth="yes"/>
      <point x="546" y="908"/>
      <point x="531" y="848"/>
      <point x="525" y="818" type="qcurve"/>
      <point x="521" y="818" type="line"/>
      <point x="515" y="848"/>
      <point x="499" y="909"/>
      <point x="489" y="938" type="qcurve" smooth="yes"/>
      <point x="344" y="1456" type="line"/>
      <point x="-42" y="1456" type="line"/>
      <point x="323" y="499" type="line"/>
    </contour>
  </outline>
</glyph>
<glyph name="Z" format="1">
  <advance width="865.129533733663"/>
  <unicode hex="005A"/>
  <outline>
    <contour>
      <point x="30.657364888731895" y="0.0" type="line"/>
      <point x="834" y="0" type="line"/>
      <point x="834" y="184" type="line"/>
      <point x="322" y="184" type="line"/>
      <point x="806.5866160367361" y="1307.5855704697988" type="line"/>
      <point x="806.5866160367361" y="1456.0" type="line"/>
      <point x="59" y="1456" type="line"/>
      <point x="59" y="1272" type="line"/>
      <point x="515" y="1272" type="line"/>
      <point x="30.657364888731895" y="148.41442953020135" type="line"/>
    </contour>
  </outline>
</glyph>
<glyph name="bracketleft" format="1">
  <advance width="644"/>
  <unicode hex="005B"/>
  <outline>
    <contour>
      <point x="135" y="-310" type="line"/>
      <point x="540" y="-310" type="line"/>
      <point x="540" y="-143" type="line"/>
      <point x="390" y="-143" type="line"/>
      <point x="390" y="1289" type="line"/>
      <point x="540" y="1289" type="line"/>
      <point x="540" y="1456" type="line"/>
      <point x="135" y="1456" type="line"/>
    </contour>
  </outline>
</glyph>
<glyph name="backslash" format="1">
  <advance width="386"/>
  <unicode hex="005C"/>
  <outline>
    <contour>
      <point x="-141" y="1456" type="line"/>
      <point x="256" y="-125" type="line"/>
      <point x="526" y="-125" type="line"/>
      <point x="132" y="1456" type="line"/>
    </contour>
  </outline>
</glyph>
<glyph name="bracketright" format="1">
  <advance width="628"/>
  <unicode hex="005D"/>
  <outline>
    <contour>
      <point x="558" y="-310" type="line"/>
      <point x="558" y="1456" type="line"/>
      <point x="53" y="1456" type="line"/>
      <point x="53" y="1223" type="line"/>
      <point x="221" y="1223" type="line"/>
      <point x="221" y="-77" type="line"/>
      <point x="53" y="-77" type="line"/>
      <point x="53" y="-310" type="line"/>
    </contour>
  </outline>
</glyph>
<glyph name="asciicircum" format="1">
  <advance width="927"/>
  <unicode hex="005E"/>
  <outline>
    <contour>
      <point x="-33" y="720" type="line"/>
      <point x="357" y="720" type="line"/>
      <point x="464" y="1162" type="line"/>
      <point x="570" y="720" type="line"/>
      <point x="959" y="720" type="line"/>
      <point x="645" y="1456" type="line"/>
      <point x="282" y="1456" type="line"/>
    </contour>
  </outline>
</glyph>
<glyph name="underscore" format="1">
  <advance width="603.3532320734723"/>
  <unicode hex="005F"/>
  <outline>
    <contour>
      <point x="-24.284705051218655" y="-263.87151183327444" type="line"/>
      <point x="193.63210879547862" y="-263.87151183327444" type="line"/>
      <point x="193.63210879547862" y="-97.42847050512187" type="line"/>
      <point x="-24.284705051218655" y="-97.42847050512187" type="line"/>
    </contour>
    <contour>
      <point x="193.63210879547862" y="-263.87151183327444" type="line"/>
      <point x="410.3921759095726" y="-263.87151183327444" type="line"/>
      <point x="410.3921759095726" y="-97.42847050512187" type="line"/>
      <point x="193.63210879547862" y="-97.42847050512187" type="line"/>
    </contour>
    <contour>
      <point x="410.3921759095726" y="-263.87151183327444" type="line"/>
      <point x="627.637937124691" y="-263.87151183327444" type="line"/>
      <point x="627.637937124691" y="-97.42847050512187" type="line"/>
      <point x="410.3921759095726" y="-97.42847050512187" type="line"/>
    </contour>
  </outline>
</glyph>
<glyph name="grave" format="1">
  <advance width="721"/>
  <unicode hex="0060"/>
  <outline>
    <contour>
      <point x="214" y="1156" type="line"/>
      <point x="532" y="1156" type="line"/>
      <point x="384" y="1456" type="line"/>
      <point x="14" y="1456" type="line"/>
    </contour>
  </outline>
</glyph>
<glyph name="a" format="1">
  <advance width="837"/>
  <unicode hex="0061"/>
  <outline>
    <contour>
      <point x="35" y="263" type="qcurve" smooth="yes"/>
      <point x="35" y="129"/>
      <point x="171" y="-15"/>
      <point x="297" y="-15" type="qcurve" smooth="yes"/>
      <point x="366" y="-15"/>
      <point x="468" y="50"/>
      <point x="494" y="111" type="qcurve"/>
      <point x="500" y="79"/>
      <point x="513" y="20"/>
      <point x="522" y="0" type="qcurve"/>
      <point x="761" y="0" type="line"/>
      <point x="761" y="15" type="line"/>
      <point x="749" y="56"/>
      <point x="736" y="164"/>
      <point x="736" y="225" type="qcurve" smooth="yes"/>
      <point x="736" y="661" type="line" smooth="yes"/>
      <point x="736" y="807"/>
      <point x="569" y="963"/>
      <point x="413" y="963" type="qcurve" smooth="yes"/>
      <point x="247" y="963"/>
      <point x="68" y="814"/>
      <point x="68" y="675" type="qcurve" smooth="yes"/>
      <point x="68" y="649" type="line"/>
      <point x="314" y="649" type="line"/>
      <point x="314" y="669" type="line" smooth="yes"/>
      <point x="314" y="734"/>
      <point x="363" y="803"/>
      <point x="408" y="803" type="qcurve" smooth="yes"/>
      <point x="448" y="803"/>
      <point x="491" y="729"/>
      <point x="491" y="661" type="qcurve" smooth="yes"/>
      <point x="491" y="585" type="line"/>
      <point x="401" y="585" type="line" smooth="yes"/>
      <point x="225" y="585"/>
      <point x="35" y="418"/>
    </contour>
    <contour>
      <point x="280" y="269" type="qcurve" smooth="yes"/>
      <point x="280" y="351"/>
      <point x="349" y="439"/>
      <point x="414" y="439" type="qcurve" smooth="yes"/>
      <point x="491" y="439" type="line"/>
      <point x="491" y="303" type="line" smooth="yes"/>
      <point x="491" y="226"/>
      <point x="423" y="144"/>
      <point x="359" y="144" type="qcurve" smooth="yes"/>
      <point x="321" y="144"/>
      <point x="280" y="209"/>
    </contour>
  </outline>
</glyph>
<glyph name="b" format="1">
  <advance width="978"/>
  <unicode hex="0062"/>
  <outline>
    <contour>
      <point x="53" y="0" type="line"/>
      <point x="357" y="0" type="line"/>
      <point x="364" y="103" type="line"/>
      <point x="369" y="103" type="line"/>
      <point x="391" y="51"/>
      <point x="495" y="-17"/>
      <point x="565" y="-17" type="qcurve" smooth="yes"/>
      <point x="739" y="-17"/>
      <point x="949" y="253"/>
      <point x="949" y="459" type="qcurve" smooth="yes"/>
      <point x="949" y="487" type="line" smooth="yes"/>
      <point x="949" y="694"/>
      <point x="739" y="964"/>
      <point x="565" y="964" type="qcurve" smooth="yes"/>
      <point x="496" y="964"/>
      <point x="397" y="907"/>
      <point x="371" y="855" type="qcurve"/>
      <point x="371" y="1458" type="line"/>
      <point x="53" y="1458" type="line"/>
    </contour>
    <contour>
      <point x="371" y="322" type="qcurve"/>
      <point x="371" y="624" type="line"/>
      <point x="384" y="668"/>
      <point x="448" y="737"/>
      <point x="492" y="737" type="qcurve" smooth="yes"/>
      <point x="559" y="737"/>
      <point x="623" y="593"/>
      <point x="623" y="487" type="qcurve" smooth="yes"/>
      <point x="623" y="459" type="line" smooth="yes"/>
      <point x="623" y="354"/>
      <point x="559" y="210"/>
      <point x="492" y="210" type="qcurve" smooth="yes"/>
      <point x="448" y="210"/>
      <point x="384" y="278"/>
    </contour>
  </outline>
</glyph>
<glyph name="c" format="1">
  <advance width="927"/>
  <unicode hex="0063"/>
  <outline>
    <contour>
      <point x="29" y="459" type="line" smooth="yes"/>
      <point x="29" y="245"/>
      <point x="268" y="-26"/>
      <point x="478" y="-26" type="qcurve" smooth="yes"/>
      <point x="679" y="-26"/>
      <point x="891" y="187"/>
      <point x="891" y="320" type="qcurve" smooth="yes"/>
      <point x="891" y="324" type="line"/>
      <point x="573" y="324" type="line"/>
      <point x="573" y="320" type="line" smooth="yes"/>
      <point x="573" y="271"/>
      <point x="530" y="196"/>
      <point x="478" y="196" type="qcurve" smooth="yes"/>
      <point x="415" y="196"/>
      <point x="355" y="348"/>
      <point x="355" y="459" type="qcurve" smooth="yes"/>
      <point x="355" y="487" type="line" smooth="yes"/>
      <point x="355" y="598"/>
      <point x="415" y="751"/>
      <point x="478" y="751" type="qcurve" smooth="yes"/>
      <point x="530" y="751"/>
      <point x="573" y="676"/>
      <point x="573" y="627" type="qcurve" smooth="yes"/>
      <point x="573" y="622" type="line"/>
      <point x="891" y="622" type="line"/>
      <point x="891" y="627" type="line" smooth="yes"/>
      <point x="891" y="758"/>
      <point x="679" y="973"/>
      <point x="478" y="973" type="qcurve" smooth="yes"/>
      <point x="268" y="973"/>
      <point x="29" y="701"/>
      <point x="29" y="487" type="qcurve" smooth="yes"/>
    </contour>
  </outline>
</glyph>
<glyph name="d" format="1">
  <advance width="885"/>
  <unicode hex="0064"/>
  <outline>
    <contour>
      <point x="43" y="455" type="line" smooth="yes"/>
      <point x="43" y="227"/>
      <point x="207" y="-19"/>
      <point x="359" y="-19" type="qcurve" smooth="yes"/>
      <point x="424" y="-19"/>
      <point x="521" y="40"/>
      <point x="546" y="94" type="qcurve"/>
      <point x="550" y="94" type="line"/>
      <point x="552" y="0" type="line"/>
      <point x="788" y="0" type="line"/>
      <point x="788" y="1458" type="line"/>
      <point x="543" y="1458" type="line"/>
      <point x="543" y="866" type="line"/>
      <point x="519" y="910"/>
      <point x="424" y="958"/>
      <point x="359" y="958" type="qcurve" smooth="yes"/>
      <point x="207" y="958"/>
      <point x="43" y="713"/>
      <point x="43" y="485" type="qcurve" smooth="yes"/>
    </contour>
    <contour>
      <point x="294" y="455" type="qcurve" smooth="yes"/>
      <point x="294" y="485" type="line" smooth="yes"/>
      <point x="294" y="629"/>
      <point x="361" y="784"/>
      <point x="424" y="784" type="qcurve" smooth="yes"/>
      <point x="465" y="784"/>
      <point x="527" y="728"/>
      <point x="543" y="676" type="qcurve"/>
      <point x="543" y="269" type="line"/>
      <point x="525" y="215"/>
      <point x="464" y="156"/>
      <point x="424" y="156" type="qcurve" smooth="yes"/>
      <point x="361" y="156"/>
      <point x="294" y="311"/>
    </contour>
  </outline>
</glyph>
<glyph name="e" format="1">
  <advance width="946"/>
  <unicode hex="0065"/>
  <outline>
    <contour>
      <point x="29" y="459" type="line" smooth="yes"/>
      <point x="29" y="245"/>
      <point x="269" y="-26"/>
      <point x="484" y="-26" type="qcurve"/>
      <point x="631" y="-26"/>
      <point x="830" y="88"/>
      <point x="867" y="158" type="qcurve"/>
      <point x="697" y="311" type="line"/>
      <point x="673" y="262"/>
      <point x="565" y="199"/>
      <point x="504" y="199" type="qcurve"/>
      <point x="418" y="199"/>
      <point x="345" y="346"/>
      <point x="345" y="459" type="qcurve" smooth="yes"/>
      <point x="345" y="487" type="line" smooth="yes"/>
      <point x="345" y="600"/>
      <point x="412" y="756"/>
      <point x="485" y="756" type="qcurve"/>
      <point x="540" y="756"/>
      <point x="592" y="650"/>
      <point x="592" y="569" type="qcurve"/>
      <point x="592" y="586" type="line"/>
      <point x="270" y="586" type="line"/>
      <point x="270" y="399" type="line"/>
      <point x="907" y="399" type="line"/>
      <point x="907" y="503" type="line" smooth="yes"/>
      <point x="907" y="719"/>
      <point x="684" y="973"/>
      <point x="482" y="973" type="qcurve"/>
      <point x="274" y="973"/>
      <point x="29" y="701"/>
      <point x="29" y="487" type="qcurve" smooth="yes"/>
    </contour>
  </outline>
</glyph>
<glyph name="f" format="1">
  <advance width="559"/>
  <unicode hex="0066"/>
  <outline>
    <contour>
      <point x="95" y="0" type="line"/>
      <point x="412" y="0" type="line"/>
      <point x="412" y="838" type="line"/>
      <point x="412" y="859" type="line"/>
      <point x="412" y="1117" type="line" smooth="yes"/>
      <point x="412" y="1185"/>
      <point x="459" y="1253"/>
      <point x="498" y="1253" type="qcurve" smooth="yes"/>
      <point x="513" y="1253"/>
      <point x="542" y="1249"/>
      <point x="556" y="1245" type="qcurve"/>
      <point x="562" y="1464" type="line"/>
      <point x="543" y="1471"/>
      <point x="501" y="1478"/>
      <point x="481" y="1478" type="qcurve" smooth="yes"/>
      <point x="303" y="1478"/>
      <point x="95" y="1294"/>
      <point x="95" y="1117" type="qcurve" smooth="yes"/>
    </contour>
    <contour>
      <point x="20" y="729" type="line"/>
      <point x="522" y="729" type="line"/>
      <point x="522" y="947" type="line"/>
      <point x="271" y="947" type="line"/>
      <point x="235" y="947" type="line"/>
      <point x="20" y="947" type="line"/>
    </contour>
  </outline>
</glyph>
<glyph name="g" format="1">
  <advance width="889.7427269516072"/>
  <unicode hex="0067"/>
  <outline>
    <contour>
      <point x="104" y="-285" type="line"/>
      <point x="157.0" y="-342.0"/>
      <point x="321.0" y="-403.0"/>
      <point x="420" y="-403" type="qcurve" smooth="yes"/>
      <point x="600.0" y="-403.0"/>
      <point x="793.0" y="-163.0"/>
      <point x="793" y="61" type="qcurve" smooth="yes"/>
      <point x="793" y="940" type="line"/>
      <point x="562" y="940" type="line"/>
      <point x="560" y="851" type="line"/>
      <point x="556" y="851" type="line"/>
      <point x="532.0" y="903.0"/>
      <point x="432.0" y="958.0"/>
      <point x="363" y="958" type="qcurve" smooth="yes"/>
      <point x="211.0" y="958.0"/>
      <point x="48.0" y="713.0"/>
      <point x="48" y="485" type="qcurve" smooth="yes"/>
      <point x="48" y="455" type="line" smooth="yes"/>
      <point x="48.0" y="229.0"/>
      <point x="209.0" y="-14.0"/>
      <point x="358" y="-14" type="qcurve" smooth="yes"/>
      <point x="423.0" y="-14.0"/>
      <point x="521.0" y="38.0"/>
      <point x="548" y="86" type="qcurve"/>
      <point x="548" y="61" type="line" smooth="yes"/>
      <point x="548.0" y="-82.0"/>
      <point x="478.0" y="-235.0"/>
      <point x="412" y="-235" type="qcurve" smooth="yes"/>
      <point x="346.0" y="-235.0"/>
      <point x="217.0" y="-181.0"/>
      <point x="164" y="-131" type="qcurve"/>
    </contour>
    <contour>
      <point x="299" y="455" type="qcurve" smooth="yes"/>
      <point x="299" y="485" type="line" smooth="yes"/>
      <point x="299.0" y="629.0"/>
      <point x="366.0" y="784.0"/>
      <point x="429" y="784" type="qcurve" smooth="yes"/>
      <point x="468.0" y="784.0"/>
      <point x="530.0" y="725.0"/>
      <point x="548" y="671" type="qcurve"/>
      <point x="548" y="273" type="line"/>
      <point x="531.0" y="219.0"/>
      <point x="469.0" y="160.0"/>
      <point x="429" y="160" type="qcurve" smooth="yes"/>
      <point x="366.0" y="160.0"/>
      <point x="299.0" y="313.0"/>
    </contour>
  </outline>
</glyph>
<glyph name="h" format="1">
  <advance width="939"/>
  <unicode hex="0068"/>
  <outline>
    <contour>
      <point x="53" y="0" type="line"/>
      <point x="371" y="0" type="line"/>
      <point x="371" y="613" type="line"/>
      <point x="387" y="667"/>
      <point x="448" y="735"/>
      <point x="487" y="735" type="qcurve" smooth="yes"/>
      <point x="529" y="735"/>
      <point x="575" y="659"/>
      <point x="575" y="571" type="qcurve" smooth="yes"/>
      <point x="575" y="0" type="line"/>
      <point x="893" y="0" type="line"/>
      <point x="893" y="570" type="line" smooth="yes"/>
      <point x="893" y="783"/>
      <point x="720" y="964"/>
      <point x="573" y="964" type="qcurve" smooth="yes"/>
      <point x="512" y="964"/>
      <point x="404" y="902"/>
      <point x="371" y="845" type="qcurve"/>
      <point x="371" y="1458" type="line"/>
      <point x="53" y="1458" type="line"/>
    </contour>
  </outline>
</glyph>
<glyph name="i" format="1">
  <advance width="439"/>
  <unicode hex="0069"/>
  <outline>
    <contour>
      <point x="59" y="0" type="line"/>
      <point x="378" y="0" type="line"/>
      <point x="378" y="947" type="line"/>
      <point x="59" y="947" type="line"/>
    </contour>
    <contour>
      <point x="38" y="1219" type="qcurve" smooth="yes"/>
      <point x="38" y="1148"/>
      <point x="133" y="1053"/>
      <point x="219" y="1053" type="qcurve" smooth="yes"/>
      <point x="306" y="1053"/>
      <point x="401" y="1148"/>
      <point x="401" y="1219" type="qcurve" smooth="yes"/>
      <point x="401" y="1288"/>
      <point x="306" y="1384"/>
      <point x="219" y="1384" type="qcurve" smooth="yes"/>
      <point x="133" y="1384"/>
      <point x="38" y="1289"/>
    </contour>
  </outline>
</glyph>
<glyph name="j" format="1">
  <advance width="449"/>
  <unicode hex="006A"/>
  <outline>
    <contour>
      <point x="-31" y="-387" type="line"/>
      <point x="-12" y="-397"/>
      <point x="36" y="-408"/>
      <point x="62" y="-408" type="qcurve" smooth="yes"/>
      <point x="199" y="-408"/>
      <point x="347" y="-240"/>
      <point x="347" y="-84" type="qcurve" smooth="yes"/>
      <point x="347" y="940" type="line"/>
      <point x="102" y="940" type="line"/>
      <point x="102" y="-66" type="line" smooth="yes"/>
      <point x="102" y="-140"/>
      <point x="68" y="-219"/>
      <point x="37" y="-219" type="qcurve" smooth="yes"/>
      <point x="21" y="-219"/>
      <point x="-15" y="-210"/>
      <point x="-31" y="-201" type="qcurve"/>
    </contour>
    <contour>
      <point x="76" y="1241" type="qcurve" smooth="yes"/>
      <point x="76" y="1182"/>
      <point x="153" y="1102"/>
      <point x="224" y="1102" type="qcurve" smooth="yes"/>
      <point x="296" y="1102"/>
      <point x="372" y="1182"/>
      <point x="372" y="1241" type="qcurve" smooth="yes"/>
      <point x="372" y="1300"/>
      <point x="296" y="1380"/>
      <point x="225" y="1380" type="qcurve" smooth="yes"/>
      <point x="154" y="1380"/>
      <point x="76" y="1299"/>
    </contour>
  </outline>
</glyph>
<glyph name="k" format="1">
  <advance width="836"/>
  <unicode hex="006B"/>
  <outline>
    <contour>
      <point x="53" y="0" type="line"/>
      <point x="371" y="0" type="line"/>
      <point x="371" y="260" type="line"/>
      <point x="844" y="947" type="line"/>
      <point x="496" y="947" type="line"/>
      <point x="371" y="658" type="line"/>
      <point x="371" y="1457" type="line"/>
      <point x="53" y="1457" type="line"/>
    </contour>
    <contour>
      <point x="513" y="0" type="line"/>
      <point x="871" y="0" type="line"/>
      <point x="535" y="641" type="line"/>
      <point x="328" y="427" type="line"/>
    </contour>
  </outline>
</glyph>
<glyph name="l" format="1">
  <advance width="419"/>
  <unicode hex="006C"/>
  <outline>
    <contour>
      <point x="50" y="0" type="line"/>
      <point x="369" y="0" type="line"/>
      <point x="369" y="1457" type="line"/>
      <point x="50" y="1457" type="line"/>
    </contour>
  </outline>
</glyph>
<glyph name="m" format="1">
  <advance width="1430"/>
  <unicode hex="006D"/>
  <outline>
    <contour>
      <point x="53" y="0" type="line"/>
      <point x="371" y="0" type="line"/>
      <point x="371" y="625" type="line"/>
      <point x="385" y="675"/>
      <point x="443" y="735"/>
      <point x="479" y="735" type="qcurve" smooth="yes"/>
      <point x="517" y="735"/>
      <point x="560" y="659"/>
      <point x="560" y="571" type="qcurve" smooth="yes"/>
      <point x="560" y="0" type="line"/>
      <point x="879" y="0" type="line"/>
      <point x="879" y="625" type="line"/>
      <point x="893" y="675"/>
      <point x="948" y="735"/>
      <point x="986" y="735" type="qcurve" smooth="yes"/>
      <point x="1024" y="735"/>
      <point x="1067" y="659"/>
      <point x="1067" y="571" type="qcurve" smooth="yes"/>
      <point x="1067" y="0" type="line"/>
      <point x="1385" y="0" type="line"/>
      <point x="1385" y="570" type="line" smooth="yes"/>
      <point x="1385" y="782"/>
      <point x="1216" y="964"/>
      <point x="1075" y="964" type="qcurve" smooth="yes"/>
      <point x="997" y="964"/>
      <point x="858" y="882"/>
      <point x="819" y="804" type="qcurve"/>
      <point x="816" y="804" type="line"/>
      <point x="783" y="882"/>
      <point x="658" y="964"/>
      <point x="566" y="964" type="qcurve" smooth="yes"/>
      <point x="506" y="964"/>
      <point x="403" y="903"/>
      <point x="369" y="846" type="qcurve"/>
      <point x="364" y="846" type="line"/>
      <point x="357" y="947" type="line"/>
      <point x="53" y="947" type="line"/>
    </contour>
  </outline>
</glyph>
<glyph name="n" format="1">
  <advance width="939"/>
  <unicode hex="006E"/>
  <outline>
    <contour>
      <point x="53" y="0" type="line"/>
      <point x="371" y="0" type="line"/>
      <point x="371" y="625" type="line"/>
      <point x="385" y="674"/>
      <point x="448" y="735"/>
      <point x="487" y="735" type="qcurve" smooth="yes"/>
      <point x="529" y="735"/>
      <point x="575" y="659"/>
      <point x="575" y="571" type="qcurve" smooth="yes"/>
      <point x="575" y="0" type="line"/>
      <point x="893" y="0" type="line"/>
      <point x="893" y="570" type="line" smooth="yes"/>
      <point x="893" y="783"/>
      <point x="719" y="964"/>
      <point x="573" y="964" type="qcurve" smooth="yes"/>
      <point x="512" y="964"/>
      <point x="403" y="903"/>
      <point x="369" y="846" type="qcurve"/>
      <point x="364" y="846" type="line"/>
      <point x="357" y="947" type="line"/>
      <point x="53" y="947" type="line"/>
    </contour>
  </outline>
</glyph>
<glyph name="o" format="1">
  <advance width="871"/>
  <unicode hex="006F"/>
  <outline>
    <contour>
      <point x="43" y="455" type="line" smooth="yes"/>
      <point x="43" y="225"/>
      <point x="246" y="-23"/>
      <point x="435" y="-23" type="qcurve" smooth="yes"/>
      <point x="624" y="-23"/>
      <point x="828" y="225"/>
      <point x="828" y="455" type="qcurve" smooth="yes"/>
      <point x="828" y="485" type="line" smooth="yes"/>
      <point x="828" y="715"/>
      <point x="624" y="963"/>
      <point x="435" y="963" type="qcurve" smooth="yes"/>
      <point x="246" y="963"/>
      <point x="43" y="715"/>
      <point x="43" y="485" type="qcurve" smooth="yes"/>
    </contour>
    <contour>
      <point x="294" y="485" type="line" smooth="yes"/>
      <point x="294" y="631"/>
      <point x="367" y="788"/>
      <point x="435" y="788" type="qcurve" smooth="yes"/>
      <point x="502" y="788"/>
      <point x="575" y="631"/>
      <point x="575" y="485" type="qcurve" smooth="yes"/>
      <point x="575" y="456" type="line" smooth="yes"/>
      <point x="575" y="310"/>
      <point x="502" y="152"/>
      <point x="435" y="152" type="qcurve" smooth="yes"/>
      <point x="367" y="152"/>
      <point x="294" y="309"/>
      <point x="294" y="455" type="qcurve" smooth="yes"/>
    </contour>
  </outline>
</glyph>
<glyph name="q" format="1">
  <advance width="978"/>
  <unicode hex="0071"/>
  <outline>
    <contour>
      <point x="29" y="459" type="line" smooth="yes"/>
      <point x="29" y="253"/>
      <point x="240" y="-17"/>
      <point x="413" y="-17" type="qcurve" smooth="yes"/>
      <point x="483" y="-17"/>
      <point x="581" y="41"/>
      <point x="607" y="92" type="qcurve"/>
      <point x="607" y="-416" type="line"/>
      <point x="925" y="-416" type="line"/>
      <point x="925" y="947" type="line"/>
      <point x="621" y="947" type="line"/>
      <point x="615" y="844" type="line"/>
      <point x="610" y="844" type="line"/>
      <point x="588" y="896"/>
      <point x="483" y="964"/>
      <point x="413" y="964" type="qcurve" smooth="yes"/>
      <point x="240" y="964"/>
      <point x="29" y="694"/>
      <point x="29" y="487" type="qcurve" smooth="yes"/>
    </contour>
    <contour>
      <point x="355" y="459" type="qcurve" smooth="yes"/>
      <point x="355" y="487" type="line" smooth="yes"/>
      <point x="355" y="594"/>
      <point x="419" y="737"/>
      <point x="486" y="737" type="qcurve" smooth="yes"/>
      <point x="531" y="737"/>
      <point x="594" y="668"/>
      <point x="607" y="624" type="qcurve"/>
      <point x="607" y="322" type="line"/>
      <point x="594" y="278"/>
      <point x="531" y="210"/>
      <point x="486" y="210" type="qcurve" smooth="yes"/>
      <point x="419" y="210"/>
      <point x="355" y="353"/>
    </contour>
  </outline>
</glyph>
<glyph name="r" format="1">
  <advance width="553"/>
  <unicode hex="0072"/>
  <outline>
    <contour>
      <point x="53" y="0" type="line"/>
      <point x="371" y="0" type="line"/>
      <point x="371" y="624" type="line"/>
      <point x="382" y="667"/>
      <point x="445" y="719"/>
      <point x="490" y="719" type="qcurve" smooth="yes"/>
      <point x="508" y="719"/>
      <point x="541" y="717"/>
      <point x="555" y="712" type="qcurve"/>
      <point x="555" y="961" type="line"/>
      <point x="549" y="965"/>
      <point x="513" y="973"/>
      <point x="482" y="973" type="qcurve"/>
      <point x="451" y="973"/>
      <point x="387" y="923"/>
      <point x="369" y="851" type="qcurve"/>
      <point x="364" y="851" type="line"/>
      <point x="357" y="947" type="line"/>
      <point x="53" y="947" type="line"/>
    </contour>
  </outline>
</glyph>
<glyph name="s" format="1">
  <advance width="839"/>
  <unicode hex="0073"/>
  <outline>
    <contour>
      <point x="13" y="291" type="line"/>
      <point x="13" y="287" type="line" smooth="yes"/>
      <point x="13" y="146"/>
      <point x="222" y="-26"/>
      <point x="422" y="-26" type="qcurve" smooth="yes"/>
      <point x="625" y="-26"/>
      <point x="826" y="160"/>
      <point x="826" y="305" type="qcurve" smooth="yes"/>
      <point x="826" y="431"/>
      <point x="701" y="584"/>
      <point x="543" y="612" type="qcurve" smooth="yes"/>
      <point x="383" y="640"/>
      <point x="329" y="666"/>
      <point x="329" y="695" type="qcurve" smooth="yes"/>
      <point x="329" y="726"/>
      <point x="371" y="760"/>
      <point x="422" y="760" type="qcurve" smooth="yes"/>
      <point x="476" y="760"/>
      <point x="522" y="714"/>
      <point x="522" y="671" type="qcurve" smooth="yes"/>
      <point x="522" y="667" type="line"/>
      <point x="815" y="667" type="line"/>
      <point x="815" y="671" type="line" smooth="yes"/>
      <point x="815" y="802"/>
      <point x="599" y="973"/>
      <point x="422" y="973" type="qcurve" smooth="yes"/>
      <point x="246" y="973"/>
      <point x="36" y="794"/>
      <point x="36" y="657" type="qcurve" smooth="yes"/>
      <point x="36" y="538"/>
      <point x="163" y="383"/>
      <point x="323" y="355" type="qcurve" smooth="yes"/>
      <point x="481" y="327"/>
      <point x="533" y="303"/>
      <point x="533" y="267" type="qcurve" smooth="yes"/>
      <point x="533" y="229"/>
      <point x="475" y="186"/>
      <point x="422" y="186" type="qcurve" smooth="yes"/>
      <point x="369" y="186"/>
      <point x="307" y="237"/>
      <point x="307" y="287" type="qcurve" smooth="yes"/>
      <point x="307" y="291" type="line"/>
    </contour>
  </outline>
</glyph>
<glyph name="t" format="1">
  <advance width="580"/>
  <unicode hex="0074"/>
  <outline>
    <contour>
      <point x="37" y="729" type="line"/>
      <point x="543" y="729" type="line"/>
      <point x="543" y="947" type="line"/>
      <point x="37" y="947" type="line"/>
    </contour>
    <contour>
      <point x="113" y="279" type="line" smooth="yes"/>
      <point x="113" y="121"/>
      <point x="286" y="-26"/>
      <point x="428" y="-26" type="qcurve" smooth="yes"/>
      <point x="463" y="-26"/>
      <point x="520" y="-9"/>
      <point x="538" y="1" type="qcurve"/>
      <point x="538" y="220" type="line"/>
      <point x="522" y="212"/>
      <point x="489" y="201"/>
      <point x="472" y="201" type="qcurve" smooth="yes"/>
      <point x="451" y="201"/>
      <point x="432" y="237"/>
      <point x="432" y="279" type="qcurve" smooth="yes"/>
      <point x="432" y="1272" type="line"/>
      <point x="113" y="1272" type="line"/>
      <point x="113" y="863" type="line"/>
      <point x="113" y="835" type="line"/>
    </contour>
  </outline>
</glyph>
<glyph name="u" format="1">
  <advance width="939"/>
  <unicode hex="0075"/>
  <outline>
    <contour>
      <point x="46" y="377" type="line" smooth="yes"/>
      <point x="46" y="164"/>
      <point x="219" y="-17"/>
      <point x="367" y="-17" type="qcurve" smooth="yes"/>
      <point x="428" y="-17"/>
      <point x="535" y="44"/>
      <point x="570" y="101" type="qcurve"/>
      <point x="574" y="101" type="line"/>
      <point x="582" y="0" type="line"/>
      <point x="887" y="0" type="line"/>
      <point x="887" y="947" type="line"/>
      <point x="568" y="947" type="line"/>
      <point x="568" y="322" type="line"/>
      <point x="553" y="272"/>
      <point x="491" y="213"/>
      <point x="451" y="213" type="qcurve" smooth="yes"/>
      <point x="410" y="213"/>
      <point x="365" y="288"/>
      <point x="365" y="375" type="qcurve" smooth="yes"/>
      <point x="365" y="947" type="line"/>
      <point x="46" y="947" type="line"/>
    </contour>
  </outline>
</glyph>
<glyph name="v" format="1">
  <advance width="814"/>
  <unicode hex="0076"/>
  <outline>
    <contour>
      <point x="1" y="947" type="line"/>
      <point x="230" y="0" type="line"/>
      <point x="572" y="0" type="line"/>
      <point x="815" y="947" type="line"/>
      <point x="522" y="947" type="line"/>
      <point x="437" y="411" type="line" smooth="yes"/>
      <point x="433" y="384"/>
      <point x="427" y="334"/>
      <point x="426" y="307" type="qcurve"/>
      <point x="423" y="307" type="line"/>
      <point x="423" y="334"/>
      <point x="416" y="384"/>
      <point x="413" y="411" type="qcurve" smooth="yes"/>
      <point x="328" y="947" type="line"/>
    </contour>
  </outline>
</glyph>
<glyph name="w" format="1">
  <advance width="1312"/>
  <unicode hex="0077"/>
  <outline>
    <contour>
      <point x="8" y="947" type="line"/>
      <point x="194" y="0" type="line"/>
      <point x="560" y="0" type="line"/>
      <point x="649" y="520" type="line" smooth="yes"/>
      <point x="655" y="551"/>
      <point x="658" y="589"/>
      <point x="663" y="636" type="qcurve"/>
      <point x="666" y="636" type="line"/>
      <point x="671" y="589"/>
      <point x="674" y="550"/>
      <point x="679" y="520" type="qcurve" smooth="yes"/>
      <point x="769" y="0" type="line"/>
      <point x="1119" y="0" type="line"/>
      <point x="1303" y="947" type="line"/>
      <point x="1019" y="947" type="line"/>
      <point x="962" y="424" type="line" smooth="yes"/>
      <point x="958" y="395"/>
      <point x="955" y="338"/>
      <point x="954" y="308" type="qcurve"/>
      <point x="950" y="308" type="line"/>
      <point x="948" y="338"/>
      <point x="949" y="394"/>
      <point x="942" y="424" type="qcurve" smooth="yes"/>
      <point x="854" y="947" type="line"/>
      <point x="499" y="947" type="line"/>
      <point x="412" y="424" type="line" smooth="yes"/>
      <point x="406" y="395"/>
      <point x="405" y="338"/>
      <point x="403" y="308" type="qcurve"/>
      <point x="399" y="308" type="line"/>
      <point x="396" y="338"/>
      <point x="395" y="395"/>
      <point x="392" y="424" type="qcurve" smooth="yes"/>
      <point x="333" y="947" type="line"/>
    </contour>
  </outline>
</glyph>
<glyph name="x" format="1">
  <advance width="634"/>
  <unicode hex="0078"/>
  <outline>
    <contour>
      <point x="0.4856941010243716" y="0.0" type="line"/>
      <point x="195" y="0" type="line"/>
      <point x="350" y="439" type="line"/>
      <point x="422" y="444" type="line"/>
      <point x="621" y="940" type="line"/>
      <point x="425" y="940" type="line"/>
      <point x="270.7954962910632" y="520.4329000353232" type="line"/>
      <point x="197.99540798304486" y="513.2326174496644" type="line"/>
    </contour>
    <contour>
      <point x="15" y="940" type="line"/>
      <point x="213.75362062875308" y="443.2887813493465" type="line"/>
      <point x="233.0037972447898" y="434.54558106676086" type="line"/>
      <point x="382.6224832214765" y="0.0" type="line"/>
      <point x="634" y="0" type="line"/>
      <point x="438" y="513" type="line"/>
      <point x="416" y="524" type="line"/>
      <point x="266" y="940" type="line"/>
    </contour>
  </outline>
</glyph>
<glyph name="y" format="1">
  <advance width="755"/>
  <unicode hex="0079"/>
  <outline>
    <contour>
      <point x="55" y="-429" type="line"/>
      <point x="75" y="-438"/>
      <point x="124" y="-446"/>
      <point x="153" y="-446" type="qcurve" smooth="yes"/>
      <point x="277" y="-446"/>
      <point x="478" y="-315"/>
      <point x="519" y="-149" type="qcurve" smooth="yes"/>
      <point x="758" y="947" type="line"/>
      <point x="466" y="947" type="line"/>
      <point x="394" y="459" type="line" smooth="yes"/>
      <point x="390" y="432"/>
      <point x="392" y="405"/>
      <point x="393" y="378" type="qcurve"/>
      <point x="389" y="378" type="line"/>
      <point x="390" y="405"/>
      <point x="394" y="432"/>
      <point x="389" y="459" type="qcurve" smooth="yes"/>
      <point x="294" y="947" type="line"/>
      <point x="-32" y="947" type="line"/>
      <point x="274" y="-67" type="line"/>
      <point x="276" y="-87" type="line" smooth="yes"/>
      <point x="268" y="-149"/>
      <point x="191" y="-220"/>
      <point x="137" y="-220" type="qcurve" smooth="yes"/>
      <point x="115" y="-220"/>
      <point x="71" y="-212"/>
      <point x="55" y="-204" type="qcurve"/>
    </contour>
  </outline>
</glyph>
<glyph name="z" format="1">
  <advance width="625"/>
  <unicode hex="007A"/>
  <outline>
    <contour>
      <point x="5" y="0" type="line"/>
      <point x="620" y="0" type="line"/>
      <point x="620" y="175" type="line"/>
      <point x="272" y="175" type="line"/>
      <point x="606" y="777" type="line"/>
      <point x="606" y="940" type="line"/>
      <point x="11" y="940" type="line"/>
      <point x="11" y="765" type="line"/>
      <point x="341" y="765" type="line"/>
      <point x="5" y="162" type="line"/>
    </contour>
  </outline>
</glyph>
<glyph name="braceleft" format="1">
  <advance width="640"/>
  <unicode hex="007B"/>
  <outline>
    <contour>
      <point x="603" y="-312" type="qcurve"/>
      <point x="603" y="-98" type="line"/>
      <point x="529" y="-98"/>
      <point x="447" y="7"/>
      <point x="461" y="122" type="qcurve" smooth="yes"/>
      <point x="490" y="334" type="line" smooth="yes"/>
      <point x="504" y="419"/>
      <point x="441" y="542"/>
      <point x="356" y="574" type="qcurve"/>
      <point x="441" y="606"/>
      <point x="504" y="729"/>
      <point x="490" y="814" type="qcurve" smooth="yes"/>
      <point x="461" y="1026" type="line" smooth="yes"/>
      <point x="447" y="1141"/>
      <point x="529" y="1246"/>
      <point x="603" y="1246" type="qcurve"/>
      <point x="603" y="1460" type="line"/>
      <point x="355" y="1460"/>
      <point x="98" y="1223"/>
      <point x="125" y="1050" type="qcurve" smooth="yes"/>
      <point x="156" y="838" type="line" smooth="yes"/>
      <point x="172" y="735"/>
      <point x="99" y="669"/>
      <point x="37" y="669" type="qcurve"/>
      <point x="37" y="479" type="line"/>
      <point x="99" y="479"/>
      <point x="172" y="414"/>
      <point x="156" y="310" type="qcurve" smooth="yes"/>
      <point x="125" y="98" type="line" smooth="yes"/>
      <point x="98" y="-75"/>
      <point x="355" y="-312"/>
    </contour>
  </outline>
</glyph>
<glyph name="bar" format="1">
  <advance width="570.4784415584415"/>
  <unicode hex="007C"/>
  <outline>
    <contour>
      <point x="168.77477785372523" y="-416.0" type="line"/>
      <point x="401.70366370471635" y="-416.0" type="line"/>
      <point x="401.70366370471635" y="1456.0" type="line"/>
      <point x="168.77477785372523" y="1456.0" type="line"/>
    </contour>
  </outline>
</glyph>
<glyph name="braceright" format="1">
  <advance width="640"/>
  <unicode hex="007D"/>
  <outline>
    <contour>
      <point x="38" y="-312" type="line"/>
      <point x="286" y="-312"/>
      <point x="543" y="-75"/>
      <point x="515" y="98" type="qcurve" smooth="yes"/>
      <point x="485" y="310" type="line" smooth="yes"/>
      <point x="468" y="414"/>
      <point x="542" y="479"/>
      <point x="604" y="479" type="qcurve"/>
      <point x="604" y="669" type="line"/>
      <point x="542" y="669"/>
      <point x="468" y="735"/>
      <point x="485" y="838" type="qcurve" smooth="yes"/>
      <point x="515" y="1050" type="line" smooth="yes"/>
      <point x="543" y="1223"/>
      <point x="286" y="1460"/>
      <point x="38" y="1460" type="qcurve"/>
      <point x="38" y="1246" type="line"/>
      <point x="113" y="1246"/>
      <point x="193" y="1141"/>
      <point x="180" y="1026" type="qcurve" smooth="yes"/>
      <point x="150" y="814" type="line" smooth="yes"/>
      <point x="137" y="729"/>
      <point x="199" y="606"/>
      <point x="286" y="574" type="qcurve"/>
      <point x="199" y="542"/>
      <point x="137" y="419"/>
      <point x="150" y="334" type="qcurve" smooth="yes"/>
      <point x="180" y="122" type="line" smooth="yes"/>
      <point x="193" y="7"/>
      <point x="113" y="-98"/>
      <point x="38" y="-98" type="qcurve"/>
    </contour>
  </outline>
</glyph>
<glyph name="asciitilde" format="1">
  <advance width="1064"/>
  <unicode hex="007E"/>
  <outline>
    <contour>
      <point x="38" y="412" type="qcurve"/>
      <point x="306" y="412" type="line"/>
      <point x="306" y="481"/>
      <point x="341" y="579"/>
      <point x="385" y="579" type="qcurve" smooth="yes"/>
      <point x="440" y="579"/>
      <point x="586" y="388"/>
      <point x="692" y="388" type="qcurve" smooth="yes"/>
      <point x="848" y="388"/>
      <point x="1027" y="640"/>
      <point x="1027" y="812" type="qcurve"/>
      <point x="759" y="812" type="line"/>
      <point x="759" y="743"/>
      <point x="723" y="645"/>
      <point x="680" y="645" type="qcurve" smooth="yes"/>
      <point x="624" y="645"/>
      <point x="480" y="836"/>
      <point x="373" y="836" type="qcurve" smooth="yes"/>
      <point x="217" y="836"/>
      <point x="38" y="584"/>
    </contour>
  </outline>
</glyph>
<glyph name="exclamdown" format="1">
  <advance width="646.3973889268626"/>
  <unicode hex="00A1"/>
  <outline>
    <contour>
      <point x="174.76775803144224" y="-280.0" type="line"/>
      <point x="471.13407382091594" y="-280.0" type="line"/>
      <point x="446.66505468215996" y="725.15003417635" type="line"/>
      <point x="199.73233424470266" y="725.15003417635" type="line"/>
    </contour>
    <contour>
      <point x="144.77477785372523" y="1049.7824675324675" type="qcurve" smooth="yes"/>
      <point x="144.77477785372523" y="988.734962406015"/>
      <point x="236.6244190020506" y="901.5649350649351"/>
      <point x="322.78644224196853" y="901.5649350649351" type="qcurve" smooth="yes"/>
      <point x="408.9484654818865" y="901.5649350649351"/>
      <point x="501.62261107313736" y="988.734962406015"/>
      <point x="501.62261107313736" y="1049.7824675324675" type="qcurve" smooth="yes"/>
      <point x="501.62261107313736" y="1110.82997265892"/>
      <point x="408.772969924812" y="1198.0"/>
      <point x="322.61094668489403" y="1198.0" type="qcurve" smooth="yes"/>
      <point x="236.6244190020506" y="1198.0"/>
      <point x="144.77477785372523" y="1110.82997265892"/>
    </contour>
  </outline>
</glyph>
<glyph name="cent" format="1">
  <advance width="897.3436948074885"/>
  <unicode hex="00A2"/>
  <outline>
    <contour>
      <point x="79" y="520" type="line" smooth="yes"/>
      <point x="79.0" y="265.0"/>
      <point x="294.0" y="-10.0"/>
      <point x="493" y="-10" type="qcurve" smooth="yes"/>
      <point x="674.0" y="-10.0"/>
      <point x="869.0" y="189.0"/>
      <point x="869" y="374" type="qcurve" smooth="yes"/>
      <point x="869" y="379" type="line"/>
      <point x="613" y="379" type="line"/>
      <point x="613" y="374" type="line" smooth="yes"/>
      <point x="613.0" y="269.0"/>
      <point x="551.0" y="157.0"/>
      <point x="493" y="157" type="qcurve" smooth="yes"/>
      <point x="419.0" y="157.0"/>
      <point x="340.0" y="345.0"/>
      <point x="340" y="520" type="qcurve" smooth="yes"/>
      <point x="340" y="552" type="line" smooth="yes"/>
      <point x="340.0" y="727.0"/>
      <point x="419.0" y="915.0"/>
      <point x="493" y="915" type="qcurve" smooth="yes"/>
      <point x="551.0" y="915.0"/>
      <point x="613.0" y="803.0"/>
      <point x="613" y="698" type="qcurve" smooth="yes"/>
      <point x="613" y="693" type="line"/>
      <point x="869" y="693" type="line"/>
      <point x="869" y="698" type="line" smooth="yes"/>
      <point x="869.0" y="883.0"/>
      <point x="674.0" y="1082.0"/>
      <point x="492" y="1082" type="qcurve" smooth="yes"/>
      <point x="293.0" y="1082.0"/>
      <point x="79.0" y="807.0"/>
      <point x="79" y="552" type="qcurve" smooth="yes"/>
    </contour>
    <contour>
      <point x="386.77220063581774" y="-256.0" type="line"/>
      <point x="584.121865065348" y="-256.0" type="line"/>
      <point x="584.121865065348" y="39.442688096079124" type="line"/>
      <point x="579.9039173436947" y="45.28594136347581" type="line"/>
      <point x="579.9039173436947" y="541.0" type="line"/>
      <point x="392.0187601554221" y="541.0" type="line"/>
      <point x="392.0187601554221" y="45.95699399505475" type="line"/>
      <point x="386.77220063581774" y="38.77163546450018" type="line"/>
    </contour>
    <contour>
      <point x="392.0187601554221" y="541.0" type="line"/>
      <point x="579.9039173436947" y="541.0" type="line"/>
      <point x="579.9039173436947" y="1036.0430060049453" type="line"/>
      <point x="584.121865065348" y="1043.2283645354998" type="line"/>
      <point x="584.121865065348" y="1328.0" type="line"/>
      <point x="386.77220063581774" y="1328.0" type="line"/>
      <point x="386.77220063581774" y="1042.557311903921" type="line"/>
      <point x="392.0187601554221" y="1036.7140586365242" type="line"/>
    </contour>
  </outline>
</glyph>
<glyph name="sterling" format="1">
  <advance width="1016"/>
  <unicode hex="00A3"/>
  <outline>
    <contour>
      <point x="106" y="0" type="line"/>
      <point x="944" y="0" type="line"/>
      <point x="944" y="178" type="line"/>
      <point x="414" y="178" type="line"/>
      <point x="458" y="236"/>
      <point x="498" y="381"/>
      <point x="498" y="485" type="qcurve" smooth="yes"/>
      <point x="498" y="607"/>
      <point x="439" y="913"/>
      <point x="439" y="1026" type="qcurve" smooth="yes"/>
      <point x="439" y="1169"/>
      <point x="492" y="1298"/>
      <point x="551" y="1298" type="qcurve" smooth="yes"/>
      <point x="614" y="1298"/>
      <point x="671" y="1177"/>
      <point x="671" y="1042" type="qcurve" smooth="yes"/>
      <point x="671" y="1022" type="line"/>
      <point x="934" y="1022" type="line"/>
      <point x="934" y="1042" type="line" smooth="yes"/>
      <point x="934" y="1271"/>
      <point x="753" y="1476"/>
      <point x="552" y="1476" type="qcurve" smooth="yes"/>
      <point x="358" y="1476"/>
      <point x="184" y="1263"/>
      <point x="184" y="1026" type="qcurve" smooth="yes"/>
      <point x="184" y="892"/>
      <point x="245" y="586"/>
      <point x="245" y="456" type="qcurve" smooth="yes"/>
      <point x="245" y="319"/>
      <point x="179" y="186"/>
      <point x="106" y="174" type="qcurve"/>
    </contour>
    <contour>
      <point x="92" y="618" type="line"/>
      <point x="863" y="618" type="line"/>
      <point x="863" y="796" type="line"/>
      <point x="92" y="796" type="line"/>
    </contour>
  </outline>
</glyph>
<glyph name="currency" format="1">
  <advance width="1187"/>
  <unicode hex="00A4"/>
  <outline>
    <contour>
      <point x="24" y="610" type="qcurve" smooth="yes"/>
      <point x="24" y="355"/>
      <point x="347" y="0"/>
      <point x="593" y="0" type="qcurve" smooth="yes"/>
      <point x="840" y="0"/>
      <point x="1164" y="355"/>
      <point x="1164" y="610" type="qcurve" smooth="yes"/>
      <point x="1164" y="865"/>
      <point x="840" y="1220"/>
      <point x="593" y="1220" type="qcurve" smooth="yes"/>
      <point x="347" y="1220"/>
      <point x="24" y="865"/>
    </contour>
    <contour>
      <point x="341" y="610" type="qcurve" smooth="yes"/>
      <point x="341" y="765"/>
      <point x="483" y="975"/>
      <point x="593" y="975" type="qcurve" smooth="yes"/>
      <point x="705" y="975"/>
      <point x="846" y="765"/>
      <point x="846" y="610" type="qcurve" smooth="yes"/>
      <point x="846" y="456"/>
      <point x="705" y="245"/>
      <point x="593" y="245" type="qcurve" smooth="yes"/>
      <point x="483" y="245"/>
      <point x="341" y="456"/>
    </contour>
    <contour>
      <point x="49" y="1096" type="line"/>
      <point x="187" y="898" type="line"/>
      <point x="418" y="1066" type="line"/>
      <point x="280" y="1264" type="line"/>
    </contour>
    <contour>
      <point x="770" y="1066" type="line"/>
      <point x="1000" y="898" type="line"/>
      <point x="1138" y="1096" type="line"/>
      <point x="908" y="1264" type="line"/>
    </contour>
    <contour>
      <point x="770" y="154" type="line"/>
      <point x="908" y="-44" type="line"/>
      <point x="1138" y="124" type="line"/>
      <point x="1000" y="322" type="line"/>
    </contour>
    <contour>
      <point x="49" y="124" type="line"/>
      <point x="280" y="-44" type="line"/>
      <point x="418" y="154" type="line"/>
      <point x="187" y="322" type="line"/>
    </contour>
  </outline>
</glyph>
<glyph name="yen" format="1">
  <advance width="1192"/>
  <unicode hex="00A5"/>
  <outline>
    <contour>
      <point x="168" y="208" type="line"/>
      <point x="1023" y="208" type="line"/>
      <point x="1023" y="426" type="line"/>
      <point x="168" y="426" type="line"/>
    </contour>
    <contour>
      <point x="168" y="561" type="line"/>
      <point x="1023" y="561" type="line"/>
      <point x="1023" y="780" type="line"/>
      <point x="168" y="780" type="line"/>
    </contour>
    <contour>
      <point x="424" y="0" type="line"/>
      <point x="767" y="0" type="line"/>
      <point x="767" y="546" type="line"/>
      <point x="1142" y="1456" type="line"/>
      <point x="795" y="1456" type="line"/>
      <point x="660" y="987" type="line" smooth="yes"/>
      <point x="650" y="956"/>
      <point x="630" y="897"/>
      <point x="622" y="867" type="qcurve"/>
      <point x="618" y="867" type="line"/>
      <point x="611" y="897"/>
      <point x="591" y="956"/>
      <point x="581" y="987" type="qcurve" smooth="yes"/>
      <point x="439" y="1456" type="line"/>
      <point x="50" y="1456" type="line"/>
      <point x="424" y="546" type="line"/>
    </contour>
  </outline>
</glyph>
<glyph name="brokenbar" format="1">
  <advance width="533"/>
  <unicode hex="00A6"/>
  <outline>
    <contour>
      <point x="126" y="-416" type="line"/>
      <point x="407" y="-416" type="line"/>
      <point x="407" y="420" type="line"/>
      <point x="126" y="420" type="line"/>
    </contour>
    <contour>
      <point x="126" y="620" type="line"/>
      <point x="407" y="620" type="line"/>
      <point x="407" y="1456" type="line"/>
      <point x="126" y="1456" type="line"/>
    </contour>
  </outline>
</glyph>
<glyph name="section" format="1">
  <advance width="1157"/>
  <unicode hex="00A7"/>
  <outline>
    <contour>
      <point x="51" y="567" type="qcurve" smooth="yes"/>
      <point x="51" y="402"/>
      <point x="263" y="235"/>
      <point x="517" y="156" type="qcurve" smooth="yes"/>
      <point x="660" y="102"/>
      <point x="759" y="25"/>
      <point x="759" y="-46" type="qcurve" smooth="yes"/>
      <point x="759" y="-123"/>
      <point x="664" y="-218"/>
      <point x="570" y="-218" type="qcurve" smooth="yes"/>
      <point x="476" y="-218"/>
      <point x="378" y="-126"/>
      <point x="378" y="-32" type="qcurve" smooth="yes"/>
      <point x="378" y="-20" type="line"/>
      <point x="31" y="-20" type="line"/>
      <point x="31" y="-32" type="line" smooth="yes"/>
      <point x="31" y="-223"/>
      <point x="326" y="-446"/>
      <point x="570" y="-446" type="qcurve" smooth="yes"/>
      <point x="816" y="-446"/>
      <point x="1104" y="-222"/>
      <point x="1104" y="-46" type="qcurve" smooth="yes"/>
      <point x="1104" y="124"/>
      <point x="874" y="300"/>
      <point x="631" y="373" type="qcurve" smooth="yes"/>
      <point x="483" y="429"/>
      <point x="396" y="508"/>
      <point x="396" y="579" type="qcurve" smooth="yes"/>
      <point x="396" y="663"/>
      <point x="478" y="757"/>
      <point x="563" y="757" type="qcurve"/>
      <point x="393" y="909" type="line"/>
      <point x="236" y="864"/>
      <point x="51" y="689"/>
    </contour>
    <contour>
      <point x="72" y="1099" type="qcurve" smooth="yes"/>
      <point x="72" y="936"/>
      <point x="290" y="775"/>
      <point x="538" y="697" type="qcurve" smooth="yes"/>
      <point x="687" y="641"/>
      <point x="780" y="553"/>
      <point x="780" y="474" type="qcurve" smooth="yes"/>
      <point x="780" y="388"/>
      <point x="683" y="283"/>
      <point x="592" y="283" type="qcurve"/>
      <point x="814" y="142" type="line"/>
      <point x="949" y="194"/>
      <point x="1125" y="371"/>
      <point x="1125" y="486" type="qcurve" smooth="yes"/>
      <point x="1125" y="659"/>
      <point x="901" y="839"/>
      <point x="651" y="914" type="qcurve" smooth="yes"/>
      <point x="512" y="969"/>
      <point x="417" y="1036"/>
      <point x="417" y="1099" type="qcurve" smooth="yes"/>
      <point x="417" y="1175"/>
      <point x="497" y="1258"/>
      <point x="586" y="1258" type="qcurve" smooth="yes"/>
      <point x="674" y="1258"/>
      <point x="760" y="1159"/>
      <point x="760" y="1077" type="qcurve" smooth="yes"/>
      <point x="760" y="1066" type="line"/>
      <point x="1105" y="1066" type="line"/>
      <point x="1105" y="1077" type="line" smooth="yes"/>
      <point x="1105" y="1248"/>
      <point x="821" y="1486"/>
      <point x="586" y="1486" type="qcurve" smooth="yes"/>
      <point x="348" y="1486"/>
      <point x="72" y="1266"/>
    </contour>
  </outline>
</glyph>
<glyph name="dieresis" format="1">
  <advance width="699"/>
  <unicode hex="00A8"/>
  <outline>
    <contour>
      <point x="-36" y="1283" type="qcurve" smooth="yes"/>
      <point x="-36" y="1215"/>
      <point x="49" y="1122"/>
      <point x="123" y="1122" type="qcurve" smooth="yes"/>
      <point x="197" y="1122"/>
      <point x="283" y="1215"/>
      <point x="283" y="1283" type="qcurve" smooth="yes"/>
      <point x="283" y="1351"/>
      <point x="197" y="1444"/>
      <point x="123" y="1444" type="qcurve" smooth="yes"/>
      <point x="49" y="1444"/>
      <point x="-36" y="1351"/>
    </contour>
    <contour>
      <point x="416" y="1283" type="qcurve" smooth="yes"/>
      <point x="416" y="1215"/>
      <point x="501" y="1122"/>
      <point x="576" y="1122" type="qcurve" smooth="yes"/>
      <point x="651" y="1122"/>
      <point x="735" y="1215"/>
      <point x="735" y="1283" type="qcurve" smooth="yes"/>
      <point x="735" y="1351"/>
      <point x="651" y="1444"/>
      <point x="576" y="1444" type="qcurve" smooth="yes"/>
      <point x="501" y="1444"/>
      <point x="416" y="1351"/>
    </contour>
  </outline>
</glyph>
<glyph name="copyright" format="1">
  <advance width="1255.125249028612"/>
  <unicode hex="00A9"/>
  <outline>
    <contour>
      <point x="69.71529494878135" y="698.0" type="qcurve" smooth="yes"/>
      <point x="69.71529494878135" y="322.0"/>
      <point x="358.8197774637938" y="-82.0"/>
      <point x="627.8197774637938" y="-82.0" type="qcurve" smooth="yes"/>
      <point x="896.8197774637938" y="-82.0"/>
      <point x="1185.4099540798306" y="322.0"/>
      <point x="1185.4099540798306" y="698.0" type="qcurve" smooth="yes"/>
      <point x="1185.4099540798306" y="1074.0"/>
      <point x="896.3054715648182" y="1478.0"/>
      <point x="627.3054715648182" y="1478.0" type="qcurve" smooth="yes"/>
      <point x="358.30547156481816" y="1478.0"/>
      <point x="69.71529494878135" y="1074.0"/>
    </contour>
    <contour>
      <point x="233.11958318615328" y="698.0" type="qcurve" smooth="yes"/>
      <point x="233.11958318615328" y="1009.0"/>
      <point x="437.30547156481816" y="1343.6856234546096"/>
      <point x="627.3054715648182" y="1343.6856234546096" type="qcurve" smooth="yes"/>
      <point x="817.3054715648182" y="1343.6856234546096"/>
      <point x="1022.5199717414341" y="1009.0"/>
      <point x="1022.5199717414341" y="698.0" type="qcurve" smooth="yes"/>
      <point x="1022.5199717414341" y="387.0"/>
      <point x="817.8197774637938" y="52.31437654539033"/>
      <point x="627.8197774637938" y="52.31437654539033" type="qcurve" smooth="yes"/>
      <point x="437.8197774637938" y="52.31437654539033"/>
      <point x="233.11958318615328" y="387.0"/>
    </contour>
    <contour>
      <point x="392" y="668" type="line" smooth="yes"/>
      <point x="392.0" y="473.0"/>
      <point x="515.0" y="264.0"/>
      <point x="629" y="264" type="qcurve" smooth="yes"/>
      <point x="735.0" y="264.0"/>
      <point x="848.0" y="428.0"/>
      <point x="848" y="581" type="qcurve" smooth="yes"/>
      <point x="848" y="591" type="line"/>
      <point x="661" y="591" type="line"/>
      <point x="661" y="582" type="line" smooth="yes"/>
      <point x="661.0" y="488.0"/>
      <point x="644.0" y="387.0"/>
      <point x="628" y="387" type="qcurve" smooth="yes"/>
      <point x="607.0" y="387.0"/>
      <point x="585.0" y="533.0"/>
      <point x="585" y="668" type="qcurve" smooth="yes"/>
      <point x="585" y="748" type="line" smooth="yes"/>
      <point x="585.0" y="883.0"/>
      <point x="608.0" y="1029.0"/>
      <point x="629" y="1029" type="qcurve" smooth="yes"/>
      <point x="644.0" y="1029.0"/>
      <point x="661.0" y="928.0"/>
      <point x="661" y="834" type="qcurve" smooth="yes"/>
      <point x="661" y="825" type="line"/>
      <point x="848" y="825" type="line"/>
      <point x="848" y="835" type="line" smooth="yes"/>
      <point x="848.0" y="988.0"/>
      <point x="735.0" y="1152.0"/>
      <point x="629" y="1152" type="qcurve" smooth="yes"/>
      <point x="515.0" y="1152.0"/>
      <point x="392.0" y="943.0"/>
      <point x="392" y="748" type="qcurve" smooth="yes"/>
    </contour>
  </outline>
</glyph>
<glyph name="ordfeminine" format="1">
  <advance width="772.6076651359942"/>
  <unicode hex="00AA"/>
  <outline>
    <contour>
      <point x="41.71529494878135" y="860.0714411868597" type="qcurve" smooth="yes"/>
      <point x="41.71529494878135" y="740.0714411868597"/>
      <point x="161.27693394560225" y="611.0"/>
      <point x="273.27693394560225" y="611.0" type="qcurve" smooth="yes"/>
      <point x="338.27693394560225" y="611.0"/>
      <point x="432.9980042387849" y="678.1567467326033"/>
      <point x="454.9980042387849" y="740.1567467326033" type="qcurve"/>
      <point x="457.9980042387849" y="705.1567467326033"/>
      <point x="469.70552808194986" y="646.0"/>
      <point x="477.70552808194986" y="627.0" type="qcurve"/>
      <point x="696.5712822324267" y="627.0" type="line"/>
      <point x="696.5712822324267" y="639.0" type="line"/>
      <point x="686.5712822324267" y="678.0"/>
      <point x="675.8637583892616" y="769.0"/>
      <point x="675.8637583892616" y="815.0" type="qcurve" smooth="yes"/>
      <point x="675.8637583892616" y="1192.0" type="line" smooth="yes"/>
      <point x="675.8637583892616" y="1329.0"/>
      <point x="524.3736665489226" y="1476.0"/>
      <point x="384.37366654892264" y="1476.0" type="qcurve" smooth="yes"/>
      <point x="235.37366654892264" y="1476.0"/>
      <point x="76.03373366301659" y="1341.4856941010244"/>
      <point x="76.03373366301659" y="1216.4856941010244" type="qcurve" smooth="yes"/>
      <point x="76.03373366301659" y="1210.4856941010244" type="line"/>
      <point x="308.6149240551042" y="1210.4856941010244" type="line"/>
      <point x="308.6149240551042" y="1216.4856941010244" type="line" smooth="yes"/>
      <point x="308.6149240551042" y="1283.4856941010244"/>
      <point x="347.04931119745675" y="1355.4567290709997"/>
      <point x="382.04931119745675" y="1355.4567290709997" type="qcurve" smooth="yes"/>
      <point x="416.04931119745675" y="1355.4567290709997"/>
      <point x="453.18795478629465" y="1267.4856941010244"/>
      <point x="453.18795478629465" y="1186.4856941010244" type="qcurve" smooth="yes"/>
      <point x="453.18795478629465" y="1121.314553161427" type="line"/>
      <point x="370.43839632638645" y="1121.314553161427" type="line" smooth="yes"/>
      <point x="212.43839632638645" y="1121.314553161427"/>
      <point x="41.71529494878135" y="986.0714411868597"/>
    </contour>
    <contour>
      <point x="274.29648534086897" y="867.5571352878842" type="qcurve" smooth="yes"/>
      <point x="274.29648534086897" y="933.5571352878842"/>
      <point x="331" y="1008"/>
      <point x="383" y="1008" type="qcurve" smooth="yes"/>
      <point x="453" y="1008" type="line"/>
      <point x="453" y="899" type="line" smooth="yes"/>
      <point x="453" y="821"/>
      <point x="396" y="737"/>
      <point x="343" y="737" type="qcurve" smooth="yes"/>
      <point x="310" y="737"/>
      <point x="274.29648534086897" y="804.5571352878842"/>
    </contour>
  </outline>
</glyph>
<glyph name="guillemetleft" format="1">
  <advance width="1117"/>
  <unicode hex="00AB"/>
  <outline>
    <contour>
      <point x="281" y="180" type="line"/>
      <point x="603" y="180" type="line"/>
      <point x="394" y="602" type="line"/>
      <point x="603" y="1024" type="line"/>
      <point x="281" y="1024" type="line"/>
      <point x="7" y="612" type="line"/>
      <point x="7" y="592" type="line"/>
    </contour>
    <contour>
      <point x="794" y="180" type="line"/>
      <point x="1114" y="180" type="line"/>
      <point x="905" y="602" type="line"/>
      <point x="1114" y="1024" type="line"/>
      <point x="794" y="1024" type="line"/>
      <point x="519" y="612" type="line"/>
      <point x="519" y="592" type="line"/>
    </contour>
  </outline>
</glyph>
<glyph name="logicalnot" format="1">
  <advance width="743"/>
  <unicode hex="00AC"/>
  <outline>
    <contour>
      <point x="4" y="583" type="line"/>
      <point x="403" y="583" type="line"/>
      <point x="403" y="345" type="line"/>
      <point x="740" y="345" type="line"/>
      <point x="740" y="834" type="line"/>
      <point x="4" y="834" type="line"/>
    </contour>
  </outline>
</glyph>
<glyph name="hyphensoft" format="1">
  <advance width="451.6256446485341"/>
  <unicode hex="00AD"/>
  <outline>
    <contour>
      <point x="15.715294948781345" y="552.2999823383964" type="line"/>
      <point x="435.91034969975277" y="552.2999823383964" type="line"/>
      <point x="435.91034969975277" y="718.6571882726952" type="line"/>
      <point x="15.715294948781345" y="718.6571882726952" type="line"/>
    </contour>
  </outline>
</glyph>
<glyph name="registered" format="1">
  <advance width="1255.125249028612"/>
  <unicode hex="00AE"/>
  <outline>
    <contour>
      <point x="70" y="698" type="qcurve" smooth="yes"/>
      <point x="70.0" y="322.0"/>
      <point x="359.0" y="-82.0"/>
      <point x="628" y="-82" type="qcurve" smooth="yes"/>
      <point x="896.0" y="-82.0"/>
      <point x="1185.0" y="322.0"/>
      <point x="1185" y="698" type="qcurve" smooth="yes"/>
      <point x="1185.0" y="1074.0"/>
      <point x="896.0" y="1478.0"/>
      <point x="627" y="1478" type="qcurve" smooth="yes"/>
      <point x="359.0" y="1478.0"/>
      <point x="70.0" y="1074.0"/>
    </contour>
    <contour>
      <point x="233" y="698" type="qcurve" smooth="yes"/>
      <point x="233.0" y="1009.0"/>
      <point x="437.0" y="1344.0"/>
      <point x="627" y="1344" type="qcurve" smooth="yes"/>
      <point x="818.0" y="1344.0"/>
      <point x="1023.0" y="1009.0"/>
      <point x="1023" y="698" type="qcurve" smooth="yes"/>
      <point x="1023.0" y="387.0"/>
      <point x="818.0" y="52.0"/>
      <point x="628" y="52" type="qcurve" smooth="yes"/>
      <point x="438.0" y="52.0"/>
      <point x="233.0" y="387.0"/>
    </contour>
    <contour>
      <point x="396.3864217590957" y="284.0" type="line"/>
      <point x="574" y="284" type="line"/>
      <point x="574" y="569" type="line"/>
      <point x="608" y="569" type="line" smooth="yes"/>
      <point x="746" y="569"/>
      <point x="895.0" y="718.0"/>
      <point x="895" y="856" type="qcurve" smooth="yes"/>
      <point x="895.0" y="989.0"/>
      <point x="746.0" y="1132.0"/>
      <point x="608" y="1132" type="qcurve" smooth="yes"/>
      <point x="396.3864217590957" y="1132.0" type="line"/>
    </contour>
    <contour>
      <point x="574" y="688" type="line"/>
      <point x="574" y="1013" type="line"/>
      <point x="608" y="1013" type="line" smooth="yes"/>
      <point x="653" y="1013"/>
      <point x="701.0" y="929.0"/>
      <point x="701" y="850" type="qcurve" smooth="yes"/>
      <point x="701.0" y="772.0"/>
      <point x="653.0" y="688.0"/>
      <point x="608" y="688" type="qcurve" smooth="yes"/>
    </contour>
    <contour>
      <point x="713" y="284" type="line"/>
      <point x="897.9161215118332" y="284.0" type="line"/>
      <point x="740" y="637" type="line"/>
      <point x="561" y="637" type="line"/>
    </contour>
  </outline>
</glyph>
<glyph name="macron" format="1">
  <advance width="667"/>
  <unicode hex="00AF"/>
  <outline>
    <contour>
      <point x="59" y="1160" type="line"/>
      <point x="608" y="1160" type="line"/>
      <point x="608" y="1378" type="line"/>
      <point x="59" y="1378" type="line"/>
    </contour>
  </outline>
</glyph>
<glyph name="degree" format="1">
  <advance width="886"/>
  <unicode hex="00B0"/>
  <outline>
    <contour>
      <point x="49" y="1120" type="qcurve" smooth="yes"/>
      <point x="49" y="968"/>
      <point x="279" y="765"/>
      <point x="443" y="765" type="qcurve" smooth="yes"/>
      <point x="607" y="765"/>
      <point x="837" y="968"/>
      <point x="837" y="1120" type="qcurve" smooth="yes"/>
      <point x="837" y="1274"/>
      <point x="607" y="1476"/>
      <point x="443" y="1476" type="qcurve" smooth="yes"/>
      <point x="279" y="1476"/>
      <point x="49" y="1274"/>
    </contour>
    <contour>
      <point x="297" y="1120" type="qcurve" smooth="yes"/>
      <point x="297" y="1186"/>
      <point x="380" y="1271"/>
      <point x="443" y="1271" type="qcurve" smooth="yes"/>
      <point x="507" y="1271"/>
      <point x="589" y="1186"/>
      <point x="589" y="1120" type="qcurve" smooth="yes"/>
      <point x="589" y="1056"/>
      <point x="507" y="970"/>
      <point x="443" y="970" type="qcurve" smooth="yes"/>
      <point x="380" y="970"/>
      <point x="297" y="1056"/>
    </contour>
  </outline>
</glyph>
<glyph name="plusminus" format="1">
  <advance width="898"/>
  <unicode hex="00B1"/>
  <outline>
    <contour>
      <point x="88" y="623" type="line"/>
      <point x="810" y="623" type="line"/>
      <point x="810" y="856" type="line"/>
      <point x="88" y="856" type="line"/>
    </contour>
    <contour>
      <point x="292" y="323" type="line"/>
      <point x="606" y="323" type="line"/>
      <point x="606" y="1168" type="line"/>
      <point x="292" y="1168" type="line"/>
    </contour>
    <contour>
      <point x="88" y="17" type="line"/>
      <point x="810" y="17" type="line"/>
      <point x="810" y="250" type="line"/>
      <point x="88" y="250" type="line"/>
    </contour>
  </outline>
</glyph>
<glyph name="twosuperior" format="1">
  <advance width="537"/>
  <unicode hex="00B2"/>
  <outline>
    <contour>
      <point x="533" y="795" type="line"/>
      <point x="190" y="795" type="line"/>
      <point x="341" y="941" type="line" smooth="yes"/>
      <point x="416" y="1020"/>
      <point x="506" y="1151"/>
      <point x="506" y="1231" type="qcurve" smooth="yes"/>
      <point x="506" y="1339"/>
      <point x="375" y="1467"/>
      <point x="260" y="1467" type="qcurve" smooth="yes"/>
      <point x="140" y="1467"/>
      <point x="2" y="1313"/>
      <point x="2" y="1206" type="qcurve"/>
      <point x="138" y="1206" type="line"/>
      <point x="138" y="1263"/>
      <point x="199" y="1339"/>
      <point x="264" y="1339" type="qcurve" smooth="yes"/>
      <point x="314" y="1339"/>
      <point x="369" y="1277"/>
      <point x="369" y="1229" type="qcurve" smooth="yes"/>
      <point x="369" y="1196"/>
      <point x="324" y="1108"/>
      <point x="266" y="1046" type="qcurve" smooth="yes"/>
      <point x="18" y="775" type="line"/>
      <point x="18" y="667" type="line"/>
      <point x="533" y="667" type="line"/>
    </contour>
  </outline>
</glyph>
<glyph name="threesuperior" format="1">
  <advance width="537"/>
  <unicode hex="00B3"/>
  <outline>
    <contour>
      <point x="174" y="1126" type="line"/>
      <point x="174" y="1048" type="line"/>
      <point x="270" y="1048" type="line" smooth="yes"/>
      <point x="382" y="1048"/>
      <point x="507" y="1164"/>
      <point x="507" y="1243" type="qcurve" smooth="yes"/>
      <point x="507" y="1352"/>
      <point x="367" y="1467"/>
      <point x="255" y="1467" type="qcurve" smooth="yes"/>
      <point x="153" y="1467"/>
      <point x="9" y="1347"/>
      <point x="9" y="1246" type="qcurve"/>
      <point x="144" y="1246" type="line"/>
      <point x="144" y="1289"/>
      <point x="209" y="1339"/>
      <point x="258" y="1339" type="qcurve" smooth="yes"/>
      <point x="317" y="1339"/>
      <point x="372" y="1279"/>
      <point x="372" y="1235" type="qcurve" smooth="yes"/>
      <point x="372" y="1187"/>
      <point x="308" y="1126"/>
      <point x="246" y="1126" type="qcurve" smooth="yes"/>
    </contour>
    <contour>
      <point x="174" y="1011" type="line"/>
      <point x="246" y="1011" type="line" smooth="yes"/>
      <point x="309" y="1011"/>
      <point x="383" y="958"/>
      <point x="383" y="895" type="qcurve" smooth="yes"/>
      <point x="383" y="846"/>
      <point x="319" y="784"/>
      <point x="260" y="784" type="qcurve" smooth="yes"/>
      <point x="203" y="784"/>
      <point x="135" y="845"/>
      <point x="135" y="890" type="qcurve"/>
      <point x="0" y="890" type="line"/>
      <point x="0" y="768"/>
      <point x="159" y="656"/>
      <point x="256" y="656" type="qcurve" smooth="yes"/>
      <point x="368" y="656"/>
      <point x="519" y="777"/>
      <point x="519" y="887" type="qcurve" smooth="yes"/>
      <point x="519" y="983"/>
      <point x="398" y="1089"/>
      <point x="270" y="1089" type="qcurve" smooth="yes"/>
      <point x="174" y="1089" type="line"/>
    </contour>
  </outline>
</glyph>
<glyph name="acute" format="1">
  <advance width="897.1764394206994"/>
  <unicode hex="00B4"/>
  <outline>
    <contour>
      <point x="343.0317732250088" y="1156.0" type="line"/>
      <point x="580.662610385023" y="1156.0" type="line"/>
      <point x="762.3129989403038" y="1456.0" type="line"/>
      <point x="501.74592016955137" y="1456.0" type="line"/>
    </contour>
  </outline>
</glyph>
<glyph name="mu.math" format="1">
  <advance width="948"/>
  <unicode hex="00B5"/>
  <outline>
    <contour>
      <point x="54" y="-429" type="line"/>
      <point x="366" y="-429" type="line"/>
      <point x="366" y="23" type="line"/>
      <point x="382" y="4"/>
      <point x="418" y="-17"/>
      <point x="436" y="-17" type="qcurve"/>
      <point x="479" y="-17"/>
      <point x="546" y="48"/>
      <point x="578" y="101" type="qcurve"/>
      <point x="583" y="101" type="line"/>
      <point x="591" y="0" type="line"/>
      <point x="895" y="0" type="line"/>
      <point x="895" y="947" type="line"/>
      <point x="576" y="947" type="line"/>
      <point x="576" y="322" type="line"/>
      <point x="561" y="272"/>
      <point x="500" y="213"/>
      <point x="460" y="213" type="qcurve" smooth="yes"/>
      <point x="418" y="213"/>
      <point x="373" y="288"/>
      <point x="373" y="375" type="qcurve" smooth="yes"/>
      <point x="373" y="947" type="line"/>
      <point x="54" y="947" type="line"/>
    </contour>
  </outline>
</glyph>
<glyph name="paragraph" format="1">
  <advance width="1162"/>
  <unicode hex="00B6"/>
  <outline>
    <contour>
      <point x="31" y="986" type="qcurve" smooth="yes"/>
      <point x="31" y="786"/>
      <point x="197" y="513"/>
      <point x="323" y="516" type="qcurve" smooth="yes"/>
      <point x="351" y="516" type="line"/>
      <point x="351" y="-200" type="line"/>
      <point x="650" y="-200" type="line"/>
      <point x="650" y="1195" type="line"/>
      <point x="749" y="1195" type="line"/>
      <point x="749" y="-200" type="line"/>
      <point x="1048" y="-200" type="line"/>
      <point x="1048" y="1195" type="line"/>
      <point x="1152" y="1195" type="line"/>
      <point x="1152" y="1456" type="line"/>
      <point x="323" y="1456" type="line" smooth="yes"/>
      <point x="197" y="1456"/>
      <point x="31" y="1186"/>
    </contour>
  </outline>
</glyph>
<glyph name="periodcentered" format="2">
  <advance width="610"/>
  <unicode hex="00B7"/>
  <outline>
    <contour>
      <point x="128.77477785372523" y="730.0" type="qcurve" smooth="yes"/>
      <point x="128.77477785372523" y="662.2796532577235"/>
      <point x="220.2207792207792" y="566.330997949419"/>
      <point x="304.3467190704033" y="566.330997949419" type="qcurve" smooth="yes"/>
      <point x="389.96821599453176" y="566.330997949419"/>
      <point x="480.91866028708137" y="662.2796532577235"/>
      <point x="480.91866028708137" y="730.0" type="qcurve" smooth="yes"/>
      <point x="480.91866028708137" y="798.7266604883654"/>
      <point x="390.1437115516063" y="894.669002050581"/>
      <point x="305.0177717019822" y="894.669002050581" type="qcurve" smooth="yes"/>
      <point x="220.2207792207792" y="894.669002050581"/>
      <point x="128.77477785372523" y="798.7266604883654"/>
    </contour>
  </outline>
</glyph>
<glyph name="cedilla" format="1">
  <advance width="772"/>
  <unicode hex="00B8"/>
  <outline>
    <contour>
      <point x="259" y="0" type="line"/>
      <point x="208" y="-215" type="line"/>
      <point x="278" y="-215"/>
      <point x="340" y="-257"/>
      <point x="340" y="-295" type="qcurve" smooth="yes"/>
      <point x="340" y="-343"/>
      <point x="248" y="-398"/>
      <point x="144" y="-398" type="qcurve"/>
      <point x="153" y="-567" type="line"/>
      <point x="439" y="-567"/>
      <point x="653" y="-410"/>
      <point x="653" y="-295" type="qcurve" smooth="yes"/>
      <point x="653" y="-220"/>
      <point x="584" y="-132"/>
      <point x="507" y="-110" type="qcurve"/>
      <point x="541" y="0" type="line"/>
    </contour>
  </outline>
</glyph>
<glyph name="onesuperior" format="1">
  <advance width="537"/>
  <unicode hex="00B9"/>
  <outline>
    <contour>
      <point x="371" y="1456" type="line"/>
      <point x="356" y="1456" type="line"/>
      <point x="51" y="1340" type="line"/>
      <point x="51" y="1211" type="line"/>
      <point x="237" y="1268" type="line"/>
      <point x="237" y="667" type="line"/>
      <point x="371" y="667" type="line"/>
    </contour>
  </outline>
</glyph>
<glyph name="ordmasculine" format="1">
  <advance width="865"/>
  <unicode hex="00BA"/>
  <outline>
    <contour>
      <point x="-3" y="1027" type="line" smooth="yes"/>
      <point x="-3" y="840"/>
      <point x="234" y="603"/>
      <point x="433" y="603" type="qcurve" smooth="yes"/>
      <point x="631" y="603"/>
      <point x="868" y="840"/>
      <point x="868" y="1027" type="qcurve" smooth="yes"/>
      <point x="868" y="1052" type="line" smooth="yes"/>
      <point x="868" y="1239"/>
      <point x="631" y="1476"/>
      <point x="433" y="1476" type="qcurve" smooth="yes"/>
      <point x="234" y="1476"/>
      <point x="-3" y="1239"/>
      <point x="-3" y="1052" type="qcurve" smooth="yes"/>
    </contour>
    <contour>
      <point x="296" y="1052" type="line" smooth="yes"/>
      <point x="296" y="1151"/>
      <point x="365" y="1289"/>
      <point x="433" y="1289" type="qcurve" smooth="yes"/>
      <point x="501" y="1289"/>
      <point x="569" y="1151"/>
      <point x="569" y="1052" type="qcurve" smooth="yes"/>
      <point x="569" y="1027" type="line" smooth="yes"/>
      <point x="569" y="928"/>
      <point x="501" y="790"/>
      <point x="433" y="790" type="qcurve" smooth="yes"/>
      <point x="365" y="790"/>
      <point x="296" y="928"/>
      <point x="296" y="1027" type="qcurve" smooth="yes"/>
    </contour>
  </outline>
</glyph>
<glyph name="guillemetright" format="1">
  <advance width="1117"/>
  <unicode hex="00BB"/>
  <outline>
    <contour>
      <point x="325" y="180" type="line"/>
      <point x="598" y="592" type="line"/>
      <point x="598" y="612" type="line"/>
      <point x="325" y="1024" type="line"/>
      <point x="2" y="1024" type="line"/>
      <point x="211" y="602" type="line"/>
      <point x="2" y="180" type="line"/>
    </contour>
    <contour>
      <point x="836" y="180" type="line"/>
      <point x="1109" y="592" type="line"/>
      <point x="1109" y="612" type="line"/>
      <point x="836" y="1024" type="line"/>
      <point x="514" y="1024" type="line"/>
      <point x="724" y="602" type="line"/>
      <point x="514" y="180" type="line"/>
    </contour>
  </outline>
</glyph>
<glyph name="questiondown" format="1">
  <advance width="1114.0"/>
  <unicode hex="00BF"/>
  <outline>
    <contour>
      <point x="100" y="112" type="qcurve" smooth="yes"/>
      <point x="100" y="-83"/>
      <point x="349" y="-300"/>
      <point x="571" y="-300" type="qcurve" smooth="yes"/>
      <point x="794" y="-300"/>
      <point x="1051" y="-95"/>
      <point x="1051" y="94" type="qcurve" smooth="yes"/>
      <point x="1051" y="126" type="line"/>
      <point x="696" y="126" type="line"/>
      <point x="696" y="94" type="line" smooth="yes"/>
      <point x="696" y="15"/>
      <point x="632" y="-66"/>
      <point x="571" y="-66" type="qcurve" smooth="yes"/>
      <point x="512" y="-66"/>
      <point x="454" y="21"/>
      <point x="454" y="112" type="qcurve" smooth="yes"/>
      <point x="454" y="199"/>
      <point x="514" y="301"/>
      <point x="606" y="368" type="qcurve" smooth="yes"/>
      <point x="707" y="452"/>
      <point x="781" y="610"/>
      <point x="781" y="732" type="qcurve" smooth="yes"/>
      <point x="781" y="742" type="line"/>
      <point x="425" y="742" type="line"/>
      <point x="425" y="732" type="line" smooth="yes"/>
      <point x="425" y="672"/>
      <point x="383" y="557"/>
      <point x="301" y="501" type="qcurve" smooth="yes"/>
      <point x="212" y="444"/>
      <point x="100" y="246"/>
    </contour>
    <contour>
      <point x="392" y="1031" type="qcurve" smooth="yes"/>
      <point x="392" y="962"/>
      <point x="499" y="864"/>
      <point x="599" y="864" type="qcurve" smooth="yes"/>
      <point x="698" y="864"/>
      <point x="804" y="962"/>
      <point x="804" y="1031" type="qcurve" smooth="yes"/>
      <point x="804" y="1100"/>
      <point x="698" y="1198"/>
      <point x="599" y="1198" type="qcurve" smooth="yes"/>
      <point x="499" y="1198"/>
      <point x="392" y="1100"/>
    </contour>
  </outline>
</glyph>
<glyph name="AE" format="1">
  <advance width="1480"/>
  <unicode hex="00C6"/>
  <outline>
    <contour>
      <point x="-106" y="0" type="line"/>
      <point x="225" y="0" type="line"/>
      <point x="625" y="1203" type="line"/>
      <point x="634" y="1203" type="line"/>
      <point x="634" y="0" type="line"/>
      <point x="1477" y="0" type="line"/>
      <point x="1477" y="238" type="line"/>
      <point x="980" y="238" type="line"/>
      <point x="980" y="632" type="line"/>
      <point x="1405" y="632" type="line"/>
      <point x="1405" y="870" type="line"/>
      <point x="980" y="870" type="line"/>
      <point x="980" y="1218" type="line"/>
      <point x="1469" y="1218" type="line"/>
      <point x="1469" y="1456" type="line"/>
      <point x="445" y="1456" type="line"/>
    </contour>
    <contour>
      <point x="125" y="330" type="line"/>
      <point x="719" y="330" type="line"/>
      <point x="719" y="568" type="line"/>
      <point x="259" y="568" type="line"/>
    </contour>
  </outline>
</glyph>
<glyph name="Eth" format="1">
  <advance width="1224"/>
  <unicode hex="00D0"/>
  <outline>
    <contour>
      <point x="92" y="0" type="line"/>
      <point x="541" y="0" type="line" smooth="yes"/>
      <point x="810" y="0"/>
      <point x="1176" y="370"/>
      <point x="1176" y="681" type="qcurve" smooth="yes"/>
      <point x="1176" y="775" type="line" smooth="yes"/>
      <point x="1176" y="1086"/>
      <point x="810" y="1456"/>
      <point x="541" y="1456" type="qcurve" smooth="yes"/>
      <point x="92" y="1456" type="line"/>
    </contour>
    <contour>
      <point x="443" y="251" type="line"/>
      <point x="443" y="1205" type="line"/>
      <point x="541" y="1205" type="line" smooth="yes"/>
      <point x="666" y="1205"/>
      <point x="815" y="978"/>
      <point x="815" y="775" type="qcurve" smooth="yes"/>
      <point x="815" y="681" type="line" smooth="yes"/>
      <point x="815" y="480"/>
      <point x="666" y="251"/>
      <point x="541" y="251" type="qcurve" smooth="yes"/>
    </contour>
    <contour>
      <point x="1" y="843" type="line"/>
      <point x="1" y="616" type="line"/>
      <point x="642" y="616" type="line"/>
      <point x="642" y="843" type="line"/>
    </contour>
  </outline>
</glyph>
<glyph name="multiply" format="1">
  <advance width="898"/>
  <unicode hex="00D7"/>
  <outline>
    <contour>
      <point x="82" y="441" type="line"/>
      <point x="297" y="252" type="line"/>
      <point x="816" y="910" type="line"/>
      <point x="601" y="1099" type="line"/>
    </contour>
    <contour>
      <point x="80" y="906" type="line"/>
      <point x="597" y="249" type="line"/>
      <point x="818" y="444" type="line"/>
      <point x="301" y="1101" type="line"/>
    </contour>
  </outline>
</glyph>
<glyph name="Oslash" format="2">
  <advance width="1171"/>
  <unicode hex="00D8"/>
  <outline>
    <contour>
      <point x="116.55377605086542" y="-80.0" type="line"/>
      <point x="352.6786789120452" y="-80.0" type="line"/>
      <point x="452.3507029318262" y="150.0" type="line"/>
      <point x="447.8072553867891" y="150.0" type="line"/>
      <point x="699.5919604380077" y="726.0" type="line"/>
      <point x="476.12998587071706" y="726.0" type="line"/>
      <point x="268.0800918403391" y="250.0" type="line"/>
      <point x="264.54582832921227" y="250.0" type="line"/>
    </contour>
    <contour>
      <point x="476.12998587071706" y="726.0" type="line"/>
      <point x="699.5919604380077" y="726.0" type="line"/>
      <point x="908.8318050158955" y="1202.0" type="line"/>
      <point x="912.8563546450017" y="1202.0" type="line"/>
      <point x="1060.358120805369" y="1532.0" type="line"/>
      <point x="823.7143200282585" y="1532.0" type="line"/>
      <point x="722.856937477923" y="1302.0" type="line"/>
      <point x="726.8814871070293" y="1302.0" type="line"/>
    </contour>
    <contour>
      <point x="78" y="682" type="line" smooth="yes"/>
      <point x="78.0" y="309.0"/>
      <point x="318.0" y="-25.0"/>
      <point x="585" y="-25" type="qcurve" smooth="yes"/>
      <point x="852.0" y="-25.0"/>
      <point x="1092.0" y="309.0"/>
      <point x="1092" y="682" type="qcurve" smooth="yes"/>
      <point x="1092" y="774" type="line" smooth="yes"/>
      <point x="1092.0" y="1147.0"/>
      <point x="852.0" y="1481.0"/>
      <point x="585" y="1481" type="qcurve" smooth="yes"/>
      <point x="318.0" y="1481.0"/>
      <point x="78.0" y="1147.0"/>
      <point x="78" y="774" type="qcurve" smooth="yes"/>
    </contour>
    <contour>
      <point x="347" y="682" type="qcurve" smooth="yes"/>
      <point x="347" y="774" type="line" smooth="yes"/>
      <point x="347.0" y="1050.0"/>
      <point x="460.0" y="1297.0"/>
      <point x="585" y="1297" type="qcurve" smooth="yes"/>
      <point x="710.0" y="1297.0"/>
      <point x="823.0" y="1050.0"/>
      <point x="823" y="774" type="qcurve" smooth="yes"/>
      <point x="823" y="682" type="line" smooth="yes"/>
      <point x="823.0" y="406.0"/>
      <point x="710.0" y="159.0"/>
      <point x="585" y="159" type="qcurve" smooth="yes"/>
      <point x="460.0" y="159.0"/>
      <point x="347.0" y="406.0"/>
    </contour>
  </outline>
</glyph>
<glyph name="Thorn" format="1">
  <advance width="1171"/>
  <unicode hex="00DE"/>
  <outline>
    <contour>
      <point x="92" y="0" type="line"/>
      <point x="442" y="0" type="line"/>
      <point x="442" y="259" type="line"/>
      <point x="580" y="259" type="line" smooth="yes"/>
      <point x="844" y="259"/>
      <point x="1134" y="521"/>
      <point x="1134" y="739" type="qcurve" smooth="yes"/>
      <point x="1134" y="955"/>
      <point x="844" y="1213"/>
      <point x="580" y="1213" type="qcurve" smooth="yes"/>
      <point x="442" y="1213" type="line"/>
      <point x="442" y="1456" type="line"/>
      <point x="92" y="1456" type="line"/>
    </contour>
    <contour>
      <point x="442" y="497" type="line"/>
      <point x="442" y="975" type="line"/>
      <point x="580" y="975" type="line" smooth="yes"/>
      <point x="695" y="975"/>
      <point x="785" y="838"/>
      <point x="785" y="739" type="qcurve" smooth="yes"/>
      <point x="785" y="638"/>
      <point x="695" y="497"/>
      <point x="580" y="497" type="qcurve" smooth="yes"/>
    </contour>
  </outline>
</glyph>
<glyph name="germandbls" format="1">
  <advance width="1024"/>
  <unicode hex="00DF"/>
  <outline>
    <contour>
      <point x="44" y="-1" type="line"/>
      <point x="362" y="-1" type="line"/>
      <point x="362" y="1031" type="line" smooth="yes"/>
      <point x="362" y="1149"/>
      <point x="419" y="1260"/>
      <point x="470" y="1260" type="qcurve" smooth="yes"/>
      <point x="530" y="1260"/>
      <point x="588" y="1184"/>
      <point x="588" y="1130" type="qcurve" smooth="yes"/>
      <point x="588" y="1081"/>
      <point x="564" y="1011"/>
      <point x="549" y="977" type="qcurve" smooth="yes"/>
      <point x="529" y="934"/>
      <point x="494" y="842"/>
      <point x="494" y="780" type="qcurve" smooth="yes"/>
      <point x="494" y="692"/>
      <point x="554" y="574"/>
      <point x="596" y="525" type="qcurve" smooth="yes"/>
      <point x="640" y="472"/>
      <point x="721" y="378"/>
      <point x="721" y="320" type="qcurve" smooth="yes"/>
      <point x="721" y="263"/>
      <point x="664" y="198"/>
      <point x="611" y="198" type="qcurve" smooth="yes"/>
      <point x="560" y="198"/>
      <point x="472" y="245"/>
      <point x="449" y="268" type="qcurve"/>
      <point x="401" y="56" type="line"/>
      <point x="428" y="28"/>
      <point x="570" y="-20"/>
      <point x="635" y="-20" type="qcurve" smooth="yes"/>
      <point x="810" y="-20"/>
      <point x="1014" y="145"/>
      <point x="1014" y="304" type="qcurve" smooth="yes"/>
      <point x="1014" y="419"/>
      <point x="908" y="569"/>
      <point x="858" y="629" type="qcurve" smooth="yes"/>
      <point x="829" y="665"/>
      <point x="787" y="731"/>
      <point x="787" y="778" type="qcurve" smooth="yes"/>
      <point x="787" y="823"/>
      <point x="806" y="890"/>
      <point x="820" y="924" type="qcurve" smooth="yes"/>
      <point x="839" y="968"/>
      <point x="865" y="1071"/>
      <point x="865" y="1155" type="qcurve" smooth="yes"/>
      <point x="865" y="1290"/>
      <point x="650" y="1478"/>
      <point x="470" y="1478" type="qcurve" smooth="yes"/>
      <point x="292" y="1478"/>
      <point x="44" y="1251"/>
      <point x="44" y="1031" type="qcurve" smooth="yes"/>
    </contour>
  </outline>
</glyph>
<glyph name="ae" format="1">
  <advance width="1411"/>
  <unicode hex="00E6"/>
  <outline>
    <contour>
      <point x="16" y="273" type="qcurve" smooth="yes"/>
      <point x="16" y="137"/>
      <point x="193" y="-17"/>
      <point x="314" y="-17" type="qcurve" smooth="yes"/>
      <point x="436" y="-17"/>
      <point x="628" y="49"/>
      <point x="680" y="118" type="qcurve"/>
      <point x="741" y="47"/>
      <point x="905" y="-26"/>
      <point x="993" y="-26" type="qcurve" smooth="yes"/>
      <point x="1139" y="-26"/>
      <point x="1339" y="88"/>
      <point x="1375" y="158" type="qcurve"/>
      <point x="1206" y="311" type="line"/>
      <point x="1182" y="262"/>
      <point x="1074" y="199"/>
      <point x="1012" y="199" type="qcurve"/>
      <point x="926" y="199"/>
      <point x="854" y="345"/>
      <point x="854" y="459" type="qcurve" smooth="yes"/>
      <point x="854" y="486" type="line" smooth="yes"/>
      <point x="854" y="599"/>
      <point x="919" y="756"/>
      <point x="995" y="756" type="qcurve"/>
      <point x="1049" y="756"/>
      <point x="1101" y="651"/>
      <point x="1101" y="569" type="qcurve"/>
      <point x="1102" y="586" type="line"/>
      <point x="776" y="586" type="line"/>
      <point x="776" y="399" type="line"/>
      <point x="1416" y="399" type="line"/>
      <point x="1416" y="503" type="line" smooth="yes"/>
      <point x="1416" y="718"/>
      <point x="1194" y="973"/>
      <point x="992" y="973" type="qcurve" smooth="yes"/>
      <point x="918" y="973"/>
      <point x="778" y="927"/>
      <point x="724" y="882" type="qcurve"/>
      <point x="679" y="926"/>
      <point x="551" y="973"/>
      <point x="478" y="973" type="qcurve" smooth="yes"/>
      <point x="277" y="973"/>
      <point x="51" y="783"/>
      <point x="51" y="655" type="qcurve" smooth="yes"/>
      <point x="51" y="641" type="line"/>
      <point x="370" y="641" type="line"/>
      <point x="370" y="656" type="line" smooth="yes"/>
      <point x="370" y="699"/>
      <point x="412" y="762"/>
      <point x="462" y="762" type="qcurve" smooth="yes"/>
      <point x="512" y="762"/>
      <point x="550" y="702"/>
      <point x="550" y="656" type="qcurve" smooth="yes"/>
      <point x="550" y="583" type="line"/>
      <point x="448" y="583" type="line" smooth="yes"/>
      <point x="234" y="583"/>
      <point x="16" y="424"/>
    </contour>
    <contour>
      <point x="334" y="290" type="qcurve" smooth="yes"/>
      <point x="334" y="345"/>
      <point x="401" y="402"/>
      <point x="460" y="402" type="qcurve" smooth="yes"/>
      <point x="550" y="402" type="line"/>
      <point x="550" y="333" type="line"/>
      <point x="550" y="284"/>
      <point x="461" y="193"/>
      <point x="401" y="193" type="qcurve"/>
      <point x="369" y="193"/>
      <point x="334" y="245"/>
    </contour>
  </outline>
</glyph>
<glyph name="eth" format="1">
  <advance width="994"/>
  <unicode hex="00F0"/>
  <outline>
    <contour>
      <point x="29" y="460" type="qcurve" smooth="yes"/>
      <point x="29" y="244"/>
      <point x="298" y="-26"/>
      <point x="497" y="-26" type="qcurve" smooth="yes"/>
      <point x="691" y="-26"/>
      <point x="958" y="314"/>
      <point x="958" y="699" type="qcurve" smooth="yes"/>
      <point x="958" y="774" type="line" smooth="yes"/>
      <point x="958" y="1149"/>
      <point x="736" y="1478"/>
      <point x="483" y="1478" type="qcurve" smooth="yes"/>
      <point x="364" y="1478"/>
      <point x="174" y="1378"/>
      <point x="123" y="1294" type="qcurve"/>
      <point x="277" y="1113" type="line"/>
      <point x="315" y="1172"/>
      <point x="415" y="1252"/>
      <point x="483" y="1252" type="qcurve" smooth="yes"/>
      <point x="569" y="1252"/>
      <point x="643" y="1058"/>
      <point x="643" y="785" type="qcurve" smooth="yes"/>
      <point x="643" y="691" type="line" smooth="yes"/>
      <point x="643" y="406"/>
      <point x="564" y="201"/>
      <point x="497" y="201" type="qcurve" smooth="yes"/>
      <point x="429" y="201"/>
      <point x="355" y="336"/>
      <point x="355" y="460" type="qcurve" smooth="yes"/>
      <point x="355" y="582"/>
      <point x="429" y="716"/>
      <point x="497" y="716" type="qcurve" smooth="yes"/>
      <point x="556" y="716"/>
      <point x="647" y="584"/>
      <point x="647" y="460" type="qcurve"/>
      <point x="853" y="460" type="line"/>
      <point x="853" y="677"/>
      <point x="640" y="943"/>
      <point x="462" y="943" type="qcurve" smooth="yes"/>
      <point x="268" y="943"/>
      <point x="29" y="677"/>
    </contour>
    <contour>
      <point x="412" y="1135" type="line"/>
      <point x="524" y="979" type="line"/>
      <point x="992" y="1322" type="line"/>
      <point x="881" y="1478" type="line"/>
    </contour>
  </outline>
</glyph>
<glyph name="divide" format="1">
  <advance width="898"/>
  <unicode hex="00F7"/>
  <outline>
    <contour>
      <point x="54" y="551" type="line"/>
      <point x="844" y="551" type="line"/>
      <point x="844" y="797" type="line"/>
      <point x="54" y="797" type="line"/>
    </contour>
    <contour>
      <point x="256" y="268" type="qcurve" smooth="yes"/>
      <point x="256" y="199"/>
      <point x="356" y="101"/>
      <point x="448" y="101" type="qcurve" smooth="yes"/>
      <point x="542" y="101"/>
      <point x="642" y="199"/>
      <point x="642" y="268" type="qcurve" smooth="yes"/>
      <point x="642" y="337"/>
      <point x="542" y="435"/>
      <point x="448" y="435" type="qcurve" smooth="yes"/>
      <point x="356" y="435"/>
      <point x="256" y="337"/>
    </contour>
    <contour>
      <point x="256" y="1080" type="qcurve" smooth="yes"/>
      <point x="256" y="1011"/>
      <point x="356" y="913"/>
      <point x="448" y="913" type="qcurve" smooth="yes"/>
      <point x="542" y="913"/>
      <point x="642" y="1011"/>
      <point x="642" y="1080" type="qcurve" smooth="yes"/>
      <point x="642" y="1149"/>
      <point x="542" y="1247"/>
      <point x="448" y="1247" type="qcurve" smooth="yes"/>
      <point x="356" y="1247"/>
      <point x="256" y="1149"/>
    </contour>
  </outline>
</glyph>
<glyph name="oslash" format="1">
  <advance width="967"/>
  <unicode hex="00F8"/>
  <outline>
    <contour>
      <point x="29" y="459" type="line" smooth="yes"/>
      <point x="29" y="245"/>
      <point x="282" y="-26"/>
      <point x="498" y="-26" type="qcurve" smooth="yes"/>
      <point x="710" y="-26"/>
      <point x="965" y="245"/>
      <point x="965" y="459" type="qcurve" smooth="yes"/>
      <point x="965" y="487" type="line" smooth="yes"/>
      <point x="965" y="701"/>
      <point x="710" y="973"/>
      <point x="498" y="973" type="qcurve" smooth="yes"/>
      <point x="282" y="973"/>
      <point x="29" y="701"/>
      <point x="29" y="487" type="qcurve" smooth="yes"/>
    </contour>
    <contour>
      <point x="355" y="487" type="line" smooth="yes"/>
      <point x="355" y="596"/>
      <point x="425" y="745"/>
      <point x="497" y="745" type="qcurve"/>
      <point x="567" y="745"/>
      <point x="637" y="596"/>
      <point x="637" y="487" type="qcurve" smooth="yes"/>
      <point x="637" y="459" type="line" smooth="yes"/>
      <point x="637" y="352"/>
      <point x="567" y="201"/>
      <point x="497" y="201" type="qcurve"/>
      <point x="425" y="201"/>
      <point x="355" y="352"/>
      <point x="355" y="459" type="qcurve" smooth="yes"/>
    </contour>
    <contour>
      <point x="154" y="-122" type="line"/>
      <point x="417" y="-122" type="line"/>
      <point x="485" y="76" type="line"/>
      <point x="481" y="76" type="line"/>
      <point x="658" y="557" type="line"/>
      <point x="416" y="557" type="line"/>
      <point x="268" y="163" type="line"/>
      <point x="262" y="163" type="line"/>
    </contour>
    <contour>
      <point x="416" y="557" type="line"/>
      <point x="658" y="557" type="line"/>
      <point x="736" y="803" type="line"/>
      <point x="742" y="803" type="line"/>
      <point x="850" y="1088" type="line"/>
      <point x="589" y="1088" type="line"/>
      <point x="515" y="891" type="line"/>
      <point x="524" y="891" type="line"/>
    </contour>
  </outline>
</glyph>
<glyph name="thorn" format="1">
  <advance width="978"/>
  <unicode hex="00FE"/>
  <outline>
    <contour>
      <point x="53" y="-416" type="line"/>
      <point x="371" y="-416" type="line"/>
      <point x="371" y="92" type="line"/>
      <point x="397" y="41"/>
      <point x="496" y="-17"/>
      <point x="565" y="-17" type="qcurve"/>
      <point x="739" y="-17"/>
      <point x="949" y="253"/>
      <point x="949" y="459" type="qcurve" smooth="yes"/>
      <point x="949" y="487" type="line" smooth="yes"/>
      <point x="949" y="694"/>
      <point x="739" y="964"/>
      <point x="565" y="964" type="qcurve"/>
      <point x="495" y="964"/>
      <point x="396" y="896"/>
      <point x="371" y="844" type="qcurve"/>
      <point x="371" y="1441" type="line"/>
      <point x="53" y="1441" type="line"/>
    </contour>
    <contour>
      <point x="371" y="322" type="qcurve"/>
      <point x="371" y="624" type="line"/>
      <point x="384" y="668"/>
      <point x="448" y="737"/>
      <point x="492" y="737" type="qcurve"/>
      <point x="559" y="737"/>
      <point x="623" y="593"/>
      <point x="623" y="487" type="qcurve" smooth="yes"/>
      <point x="623" y="459" type="line" smooth="yes"/>
      <point x="623" y="354"/>
      <point x="559" y="210"/>
      <point x="492" y="210" type="qcurve"/>
      <point x="448" y="210"/>
      <point x="384" y="278"/>
    </contour>
  </outline>
</glyph>
<glyph name="dotlessi" format="1">
  <advance width="445.48546138072453"/>
  <unicode hex="0131"/>
  <outline>
    <contour>
      <point x="90.19531784005468" y="0.0" type="line"/>
      <point x="355.2901435406699" y="0.0" type="line"/>
      <point x="355.2901435406699" y="939.2948325358852" type="line"/>
      <point x="90.19531784005468" y="939.2948325358852" type="line"/>
    </contour>
  </outline>
</glyph>
<glyph name="OE" format="1">
  <advance width="1700"/>
  <unicode hex="0152"/>
  <outline>
    <contour>
      <point x="44" y="682" type="line" smooth="yes"/>
      <point x="44" y="346"/>
      <point x="374" y="-30"/>
      <point x="632" y="-30" type="qcurve" smooth="yes"/>
      <point x="719" y="-30"/>
      <point x="870" y="51"/>
      <point x="930" y="132" type="qcurve"/>
      <point x="930" y="466" type="line"/>
      <point x="898" y="344"/>
      <point x="752" y="217"/>
      <point x="659" y="217" type="qcurve" smooth="yes"/>
      <point x="545" y="217"/>
      <point x="404" y="465"/>
      <point x="404" y="682" type="qcurve" smooth="yes"/>
      <point x="404" y="774" type="line" smooth="yes"/>
      <point x="404" y="991"/>
      <point x="545" y="1239"/>
      <point x="659" y="1239" type="qcurve" smooth="yes"/>
      <point x="752" y="1239"/>
      <point x="898" y="1112"/>
      <point x="930" y="990" type="qcurve"/>
      <point x="930" y="1324" type="line"/>
      <point x="870" y="1407"/>
      <point x="719" y="1486"/>
      <point x="632" y="1486" type="qcurve" smooth="yes"/>
      <point x="374" y="1486"/>
      <point x="44" y="1110"/>
      <point x="44" y="774" type="qcurve" smooth="yes"/>
    </contour>
    <contour>
      <point x="852" y="0" type="line"/>
      <point x="1695" y="0" type="line"/>
      <point x="1695" y="238" type="line"/>
      <point x="1201" y="238" type="line"/>
      <point x="1201" y="632" type="line"/>
      <point x="1624" y="632" type="line"/>
      <point x="1624" y="870" type="line"/>
      <point x="1201" y="870" type="line"/>
      <point x="1201" y="1218" type="line"/>
      <point x="1687" y="1218" type="line"/>
      <point x="1687" y="1456" type="line"/>
      <point x="852" y="1456" type="line"/>
    </contour>
  </outline>
</glyph>
<glyph name="oe" format="1">
  <advance width="1524"/>
  <unicode hex="0153"/>
  <outline>
    <contour>
      <point x="29" y="459" type="line" smooth="yes"/>
      <point x="29" y="245"/>
      <point x="282" y="-26"/>
      <point x="497" y="-26" type="qcurve" smooth="yes"/>
      <point x="598" y="-26"/>
      <point x="753" y="47"/>
      <point x="805" y="119" type="qcurve"/>
      <point x="855" y="47"/>
      <point x="1000" y="-26"/>
      <point x="1091" y="-26" type="qcurve" smooth="yes"/>
      <point x="1237" y="-26"/>
      <point x="1438" y="88"/>
      <point x="1474" y="158" type="qcurve"/>
      <point x="1305" y="311" type="line"/>
      <point x="1281" y="262"/>
      <point x="1173" y="199"/>
      <point x="1111" y="199" type="qcurve"/>
      <point x="1025" y="199"/>
      <point x="953" y="346"/>
      <point x="953" y="459" type="qcurve" smooth="yes"/>
      <point x="953" y="487" type="line" smooth="yes"/>
      <point x="953" y="600"/>
      <point x="1019" y="756"/>
      <point x="1093" y="756" type="qcurve"/>
      <point x="1147" y="756"/>
      <point x="1198" y="651"/>
      <point x="1198" y="569" type="qcurve"/>
      <point x="1198" y="586" type="line"/>
      <point x="877" y="586" type="line"/>
      <point x="877" y="399" type="line"/>
      <point x="1515" y="399" type="line"/>
      <point x="1515" y="503" type="line" smooth="yes"/>
      <point x="1515" y="719"/>
      <point x="1292" y="973"/>
      <point x="1090" y="973" type="qcurve" smooth="yes"/>
      <point x="995" y="973"/>
      <point x="851" y="902"/>
      <point x="804" y="830" type="qcurve"/>
      <point x="751" y="902"/>
      <point x="597" y="973"/>
      <point x="497" y="973" type="qcurve" smooth="yes"/>
      <point x="282" y="973"/>
      <point x="29" y="701"/>
      <point x="29" y="487" type="qcurve" smooth="yes"/>
    </contour>
    <contour>
      <point x="355" y="459" type="qcurve" smooth="yes"/>
      <point x="355" y="487" type="line" smooth="yes"/>
      <point x="355" y="596"/>
      <point x="425" y="745"/>
      <point x="497" y="745" type="qcurve" smooth="yes"/>
      <point x="567" y="745"/>
      <point x="637" y="596"/>
      <point x="637" y="487" type="qcurve" smooth="yes"/>
      <point x="637" y="459" type="line" smooth="yes"/>
      <point x="637" y="352"/>
      <point x="567" y="201"/>
      <point x="497" y="201" type="qcurve" smooth="yes"/>
      <point x="425" y="201"/>
      <point x="355" y="352"/>
    </contour>
  </outline>
</glyph>
<glyph name="circumflex" format="1">
  <advance width="662"/>
  <unicode hex="02C6"/>
  <outline>
    <contour>
      <point x="6" y="1156" type="line"/>
      <point x="290" y="1156" type="line"/>
      <point x="332" y="1274" type="line"/>
      <point x="373" y="1156" type="line"/>
      <point x="656" y="1156" type="line"/>
      <point x="498" y="1456" type="line"/>
      <point x="165" y="1456" type="line"/>
    </contour>
  </outline>
</glyph>
<glyph name="ring" format="1">
  <advance width="692"/>
  <unicode hex="02DA"/>
  <outline>
    <contour>
      <point x="71" y="1367" type="qcurve" smooth="yes"/>
      <point x="71" y="1253"/>
      <point x="226" y="1102"/>
      <point x="345" y="1102" type="qcurve" smooth="yes"/>
      <point x="466" y="1102"/>
      <point x="620" y="1253"/>
      <point x="620" y="1367" type="qcurve" smooth="yes"/>
      <point x="620" y="1481"/>
      <point x="466" y="1631"/>
      <point x="345" y="1631" type="qcurve" smooth="yes"/>
      <point x="226" y="1631"/>
      <point x="71" y="1481"/>
    </contour>
    <contour>
      <point x="286" y="1367" type="qcurve" smooth="yes"/>
      <point x="286" y="1413"/>
      <point x="318" y="1471"/>
      <point x="345" y="1471" type="qcurve" smooth="yes"/>
      <point x="375" y="1471"/>
      <point x="405" y="1413"/>
      <point x="405" y="1367" type="qcurve" smooth="yes"/>
      <point x="405" y="1322"/>
      <point x="375" y="1263"/>
      <point x="345" y="1263" type="qcurve" smooth="yes"/>
      <point x="318" y="1263"/>
      <point x="286" y="1322"/>
    </contour>
  </outline>
</glyph>
<glyph name="tilde" format="1">
  <advance width="654"/>
  <unicode hex="02DC"/>
  <outline>
    <contour>
      <point x="-28" y="1146" type="qcurve"/>
      <point x="190" y="1124" type="line"/>
      <point x="190" y="1167"/>
      <point x="212" y="1223"/>
      <point x="238" y="1223" type="qcurve" smooth="yes"/>
      <point x="268" y="1223"/>
      <point x="394" y="1136"/>
      <point x="463" y="1136" type="qcurve" smooth="yes"/>
      <point x="562" y="1136"/>
      <point x="684" y="1293"/>
      <point x="684" y="1426" type="qcurve"/>
      <point x="465" y="1448" type="line"/>
      <point x="465" y="1404"/>
      <point x="444" y="1349"/>
      <point x="419" y="1349" type="qcurve" smooth="yes"/>
      <point x="387" y="1349"/>
      <point x="261" y="1436"/>
      <point x="192" y="1436" type="qcurve" smooth="yes"/>
      <point x="92" y="1436"/>
      <point x="-28" y="1280"/>
    </contour>
  </outline>
</glyph>
<glyph name="Germandbls" format="1">
  <advance width="1086.324288237372"/>
  <unicode hex="1E9E"/>
  <outline>
    <contour>
      <point x="125" y="0" type="line"/>
      <point x="387" y="0" type="line"/>
      <point x="387" y="984" type="line" smooth="yes"/>
      <point x="387.0" y="1153.0"/>
      <point x="463.0" y="1304.0"/>
      <point x="547" y="1304" type="qcurve" smooth="yes"/>
      <point x="629.0" y="1304.0"/>
      <point x="701.0" y="1208.0"/>
      <point x="699" y="1100" type="qcurve"/>
      <point x="483" y="800" type="line"/>
      <point x="504" y="667" type="line"/>
      <point x="628.0" y="644.0"/>
      <point x="762.0" y="520.0"/>
      <point x="762" y="427" type="qcurve" smooth="yes"/>
      <point x="762" y="392" type="line" smooth="yes"/>
      <point x="762.0" y="279.0"/>
      <point x="665.0" y="158.0"/>
      <point x="575" y="158" type="qcurve" smooth="yes"/>
      <point x="555.0" y="158.0"/>
      <point x="497.0" y="167.0"/>
      <point x="462" y="175" type="qcurve"/>
      <point x="454" y="-4" type="line"/>
      <point x="489.0" y="-12.0"/>
      <point x="555.0" y="-20.0"/>
      <point x="582" y="-20" type="qcurve" smooth="yes"/>
      <point x="798.0" y="-20.0"/>
      <point x="1031.0" y="194.0"/>
      <point x="1031" y="393" type="qcurve" smooth="yes"/>
      <point x="1031" y="427" type="line" smooth="yes"/>
      <point x="1031.0" y="567.0"/>
      <point x="886.0" y="751.0"/>
      <point x="751" y="783" type="qcurve"/>
      <point x="751" y="790" type="line"/>
      <point x="958" y="1065" type="line"/>
      <point x="958" y="1085" type="line" smooth="yes"/>
      <point x="958.0" y="1294.0"/>
      <point x="764.0" y="1481.0"/>
      <point x="547" y="1481" type="qcurve" smooth="yes"/>
      <point x="324.0" y="1481.0"/>
      <point x="125.0" y="1246.0"/>
      <point x="125" y="984" type="qcurve" smooth="yes"/>
    </contour>
  </outline>
</glyph>
<glyph name="endash" format="1">
  <advance width="968"/>
  <unicode hex="2013"/>
  <outline>
    <contour>
      <point x="52" y="509" type="line"/>
      <point x="915" y="509" type="line"/>
      <point x="915" y="748" type="line"/>
      <point x="52" y="748" type="line"/>
    </contour>
  </outline>
</glyph>
<glyph name="emdash" format="1">
  <advance width="1130"/>
  <unicode hex="2014"/>
  <outline>
    <contour>
      <point x="14" y="509" type="line"/>
      <point x="1115" y="509" type="line"/>
      <point x="1115" y="748" type="line"/>
      <point x="14" y="748" type="line"/>
    </contour>
  </outline>
</glyph>
<glyph name="quoteleft" format="1">
  <advance width="398"/>
  <unicode hex="2018"/>
  <outline>
    <contour>
      <point x="49" y="921" type="line"/>
      <point x="332" y="921" type="line"/>
      <point x="332" y="1105" type="line" smooth="yes"/>
      <point x="332" y="1212"/>
      <point x="394" y="1375"/>
      <point x="456" y="1451" type="qcurve"/>
      <point x="284" y="1562" type="line"/>
      <point x="175" y="1480"/>
      <point x="49" y="1244"/>
      <point x="49" y="1105" type="qcurve" smooth="yes"/>
    </contour>
  </outline>
</glyph>
<glyph name="quoteright" format="1">
  <advance width="421.750997949419"/>
  <unicode hex="2019"/>
  <outline>
    <contour>
      <point x="-9.608937115516078" y="989.4808612440191" type="qcurve"/>
      <point x="141.57536226930964" y="894.8555194805194" type="line"/>
      <point x="234.80595010252904" y="967.5868079289132"/>
      <point x="342.9762200956938" y="1171.4424128503076"/>
      <point x="342.9762200956938" y="1293.957963089542" type="qcurve" smooth="yes"/>
      <point x="342.9762200956938" y="1456.0" type="line"/>
      <point x="98.77477785372523" y="1456.0" type="line"/>
      <point x="98.77477785372523" y="1293.957963089542" type="line" smooth="yes"/>
      <point x="98.77477785372523" y="1199.3894395078605"/>
      <point x="44.90758714969241" y="1055.277853725222"/>
    </contour>
  </outline>
</glyph>
<glyph name="quotesinglbase" format="1">
  <advance width="421.750997949419"/>
  <unicode hex="201A"/>
  <outline>
    <contour>
      <point x="-9.608937115516078" y="-205.96155160628845" type="qcurve"/>
      <point x="141.57536226930964" y="-301.2359022556391" type="line"/>
      <point x="234.80595010252904" y="-227.6801093643199"/>
      <point x="342.9762200956938" y="-24.0"/>
      <point x="342.9762200956938" y="98.51555023923446" type="qcurve" smooth="yes"/>
      <point x="342.9762200956938" y="260.55758714969244" type="line"/>
      <point x="98.77477785372523" y="260.55758714969244" type="line"/>
      <point x="98.77477785372523" y="98.51555023923446" type="line" smooth="yes"/>
      <point x="98.77477785372523" y="4.1225222146274785"/>
      <point x="44.90758714969241" y="-139.98906356801095"/>
    </contour>
  </outline>
</glyph>
<glyph name="quotedblleft" format="1">
  <advance width="854"/>
  <unicode hex="201C"/>
  <outline>
    <contour>
      <point x="49" y="921" type="line"/>
      <point x="332" y="921" type="line"/>
      <point x="332" y="1105" type="line" smooth="yes"/>
      <point x="332" y="1212"/>
      <point x="394" y="1375"/>
      <point x="456" y="1451" type="qcurve"/>
      <point x="284" y="1562" type="line"/>
      <point x="175" y="1480"/>
      <point x="49" y="1244"/>
      <point x="49" y="1105" type="qcurve" smooth="yes"/>
    </contour>
    <contour>
      <point x="504" y="921" type="line"/>
      <point x="787" y="921" type="line"/>
      <point x="787" y="1105" type="line" smooth="yes"/>
      <point x="787" y="1212"/>
      <point x="849" y="1375"/>
      <point x="911" y="1451" type="qcurve"/>
      <point x="739" y="1562" type="line"/>
      <point x="630" y="1480"/>
      <point x="504" y="1244"/>
      <point x="504" y="1105" type="qcurve" smooth="yes"/>
    </contour>
  </outline>
</glyph>
<glyph name="quotedblbase" format="1">
  <advance width="854"/>
  <unicode hex="201E"/>
  <outline>
    <contour>
      <point x="-57" y="-234" type="qcurve"/>
      <point x="115" y="-347" type="line"/>
      <point x="222" y="-264"/>
      <point x="350" y="-27"/>
      <point x="350" y="112" type="qcurve" smooth="yes"/>
      <point x="350" y="296" type="line"/>
      <point x="66" y="296" type="line"/>
      <point x="66" y="112" type="line" smooth="yes"/>
      <point x="66" y="5"/>
      <point x="4" y="-158"/>
    </contour>
    <contour>
      <point x="397" y="-234" type="qcurve"/>
      <point x="569" y="-347" type="line"/>
      <point x="678" y="-264"/>
      <point x="804" y="-27"/>
      <point x="804" y="112" type="qcurve" smooth="yes"/>
      <point x="804" y="296" type="line"/>
      <point x="522" y="296" type="line"/>
      <point x="522" y="112" type="line" smooth="yes"/>
      <point x="522" y="5"/>
      <point x="460" y="-158"/>
    </contour>
  </outline>
</glyph>
<glyph name="dagger" format="1">
  <advance width="1030"/>
  <unicode hex="2020"/>
  <outline>
    <contour>
      <point x="391" y="-220" type="line"/>
      <point x="640" y="-220" type="line"/>
      <point x="695" y="500" type="line"/>
      <point x="657" y="996" type="line"/>
      <point x="699" y="1516" type="line"/>
      <point x="332" y="1516" type="line"/>
      <point x="375" y="996" type="line"/>
      <point x="336" y="500" type="line"/>
    </contour>
    <contour>
      <point x="90" y="868" type="line"/>
      <point x="516" y="890" type="line"/>
      <point x="941" y="868" type="line"/>
      <point x="941" y="1129" type="line"/>
      <point x="516" y="1107" type="line"/>
      <point x="90" y="1129" type="line"/>
    </contour>
  </outline>
</glyph>
<glyph name="bullet" format="1">
  <advance width="799"/>
  <unicode hex="2022"/>
  <outline>
    <contour>
      <point x="86" y="727" type="line" smooth="yes"/>
      <point x="86" y="612"/>
      <point x="262" y="461"/>
      <point x="399" y="461" type="qcurve" smooth="yes"/>
      <point x="538" y="461"/>
      <point x="712" y="612"/>
      <point x="712" y="727" type="qcurve" smooth="yes"/>
      <point x="712" y="781" type="line" smooth="yes"/>
      <point x="712" y="897"/>
      <point x="538" y="1048"/>
      <point x="399" y="1048" type="qcurve" smooth="yes"/>
      <point x="262" y="1048"/>
      <point x="86" y="897"/>
      <point x="86" y="781" type="qcurve" smooth="yes"/>
    </contour>
  </outline>
</glyph>
<glyph name="ellipsis" format="1">
  <advance width="2015"/>
  <unicode hex="2026"/>
  <outline>
    <contour>
      <point x="95" y="166" type="qcurve" smooth="yes"/>
      <point x="95" y="88"/>
      <point x="201" y="-22"/>
      <point x="299" y="-22" type="qcurve" smooth="yes"/>
      <point x="399" y="-22"/>
      <point x="504" y="88"/>
      <point x="504" y="166" type="qcurve" smooth="yes"/>
      <point x="504" y="243"/>
      <point x="399" y="353"/>
      <point x="299" y="353" type="qcurve" smooth="yes"/>
      <point x="201" y="353"/>
      <point x="95" y="243"/>
    </contour>
    <contour>
      <point x="804" y="166" type="qcurve" smooth="yes"/>
      <point x="804" y="88"/>
      <point x="908" y="-22"/>
      <point x="1007" y="-22" type="qcurve" smooth="yes"/>
      <point x="1107" y="-22"/>
      <point x="1211" y="88"/>
      <point x="1211" y="166" type="qcurve" smooth="yes"/>
      <point x="1211" y="243"/>
      <point x="1107" y="353"/>
      <point x="1007" y="353" type="qcurve" smooth="yes"/>
      <point x="908" y="353"/>
      <point x="804" y="243"/>
    </contour>
    <contour>
      <point x="1511" y="166" type="qcurve" smooth="yes"/>
      <point x="1511" y="88"/>
      <point x="1616" y="-22"/>
      <point x="1715" y="-22" type="qcurve" smooth="yes"/>
      <point x="1813" y="-22"/>
      <point x="1919" y="88"/>
      <point x="1919" y="166" type="qcurve" smooth="yes"/>
      <point x="1919" y="243"/>
      <point x="1813" y="353"/>
      <point x="1715" y="353" type="qcurve" smooth="yes"/>
      <point x="1616" y="353"/>
      <point x="1511" y="243"/>
    </contour>
  </outline>
</glyph>
<glyph name="perthousand" format="1">
  <advance width="2338"/>
  <unicode hex="2030"/>
  <outline>
    <contour>
      <point x="6" y="969" type="line" smooth="yes"/>
      <point x="6" y="825"/>
      <point x="187" y="660"/>
      <point x="339" y="660" type="qcurve" smooth="yes"/>
      <point x="493" y="660"/>
      <point x="673" y="825"/>
      <point x="673" y="969" type="qcurve" smooth="yes"/>
      <point x="673" y="1167" type="line" smooth="yes"/>
      <point x="673" y="1312"/>
      <point x="493" y="1476"/>
      <point x="339" y="1476" type="qcurve" smooth="yes"/>
      <point x="187" y="1476"/>
      <point x="6" y="1312"/>
      <point x="6" y="1167" type="qcurve" smooth="yes"/>
    </contour>
    <contour>
      <point x="276" y="963" type="qcurve" smooth="yes"/>
      <point x="276" y="1173" type="line" smooth="yes"/>
      <point x="276" y="1222"/>
      <point x="306" y="1278"/>
      <point x="339" y="1278" type="qcurve" smooth="yes"/>
      <point x="371" y="1278"/>
      <point x="402" y="1222"/>
      <point x="402" y="1173" type="qcurve" smooth="yes"/>
      <point x="402" y="963" type="line" smooth="yes"/>
      <point x="402" y="914"/>
      <point x="371" y="858"/>
      <point x="339" y="858" type="qcurve" smooth="yes"/>
      <point x="306" y="858"/>
      <point x="276" y="914"/>
    </contour>
    <contour>
      <point x="377" y="91" type="line"/>
      <point x="596" y="-34" type="line"/>
      <point x="1210" y="1373" type="line"/>
      <point x="986" y="1490" type="line"/>
    </contour>
    <contour>
      <point x="906" y="283" type="line" smooth="yes"/>
      <point x="906" y="139"/>
      <point x="1086" y="-26"/>
      <point x="1239" y="-26" type="qcurve" smooth="yes"/>
      <point x="1392" y="-26"/>
      <point x="1571" y="139"/>
      <point x="1571" y="283" type="qcurve" smooth="yes"/>
      <point x="1571" y="481" type="line" smooth="yes"/>
      <point x="1571" y="626"/>
      <point x="1392" y="790"/>
      <point x="1239" y="790" type="qcurve" smooth="yes"/>
      <point x="1086" y="790"/>
      <point x="906" y="626"/>
      <point x="906" y="481" type="qcurve" smooth="yes"/>
    </contour>
    <contour>
      <point x="1176" y="277" type="qcurve" smooth="yes"/>
      <point x="1176" y="487" type="line" smooth="yes"/>
      <point x="1176" y="536"/>
      <point x="1206" y="592"/>
      <point x="1239" y="592" type="qcurve" smooth="yes"/>
      <point x="1271" y="592"/>
      <point x="1300" y="536"/>
      <point x="1300" y="487" type="qcurve" smooth="yes"/>
      <point x="1300" y="277" type="line" smooth="yes"/>
      <point x="1300" y="228"/>
      <point x="1271" y="172"/>
      <point x="1239" y="172" type="qcurve" smooth="yes"/>
      <point x="1206" y="172"/>
      <point x="1176" y="228"/>
    </contour>
    <contour>
      <point x="1654" y="283" type="line" smooth="yes"/>
      <point x="1654" y="139"/>
      <point x="1834" y="-26"/>
      <point x="1986" y="-26" type="qcurve" smooth="yes"/>
      <point x="2140" y="-26"/>
      <point x="2320" y="139"/>
      <point x="2320" y="283" type="qcurve" smooth="yes"/>
      <point x="2320" y="481" type="line" smooth="yes"/>
      <point x="2320" y="626"/>
      <point x="2140" y="790"/>
      <point x="1986" y="790" type="qcurve" smooth="yes"/>
      <point x="1834" y="790"/>
      <point x="1654" y="626"/>
      <point x="1654" y="481" type="qcurve" smooth="yes"/>
    </contour>
    <contour>
      <point x="1925" y="277" type="qcurve" smooth="yes"/>
      <point x="1925" y="487" type="line" smooth="yes"/>
      <point x="1925" y="536"/>
      <point x="1955" y="592"/>
      <point x="1986" y="592" type="qcurve" smooth="yes"/>
      <point x="2019" y="592"/>
      <point x="2050" y="536"/>
      <point x="2050" y="487" type="qcurve" smooth="yes"/>
      <point x="2050" y="277" type="line" smooth="yes"/>
      <point x="2050" y="228"/>
      <point x="2019" y="172"/>
      <point x="1986" y="172" type="qcurve" smooth="yes"/>
      <point x="1955" y="172"/>
      <point x="1925" y="228"/>
    </contour>
  </outline>
</glyph>
<glyph name="guilsinglleft" format="1">
  <advance width="560.2511656658424"/>
  <unicode hex="2039"/>
  <outline>
    <contour>
      <point x="303.16723772518543" y="181.42847050512188" type="line"/>
      <point x="543.6959554927588" y="181.42847050512188" type="line"/>
      <point x="301" y="602" type="line"/>
      <point x="543.6959554927588" y="1022.5715294948782" type="line"/>
      <point x="303.16723772518543" y="1022.5715294948782" type="line"/>
      <point x="47.71529494878135" y="612.0" type="line"/>
      <point x="47.71529494878135" y="592.0" type="line"/>
    </contour>
  </outline>
</glyph>
<glyph name="guilsinglright" format="1">
  <advance width="578"/>
  <unicode hex="203A"/>
  <outline>
    <contour>
      <point x="298" y="180" type="line"/>
      <point x="570" y="592" type="line"/>
      <point x="570" y="612" type="line"/>
      <point x="298" y="1024" type="line"/>
      <point x="-25" y="1024" type="line"/>
      <point x="184" y="602" type="line"/>
      <point x="-25" y="180" type="line"/>
    </contour>
  </outline>
</glyph>
<glyph name="fraction" format="1">
  <advance width="851.7470222536206"/>
  <unicode hex="2044"/>
  <outline>
    <contour>
      <point x="5.715294948781345" y="39.90974920522784" type="line"/>
      <point x="178.45225715294947" y="-30.0" type="line"/>
      <point x="846.0317273048393" y="1416.0902507947721" type="line"/>
      <point x="672.0807947721653" y="1486.0" type="line"/>
    </contour>
  </outline>
</glyph>
<glyph name="four.superior" format="1">
  <advance width="537"/>
  <unicode hex="2074"/>
  <outline>
    <contour>
      <point x="547" y="967" type="line"/>
      <point x="128" y="967" type="line"/>
      <point x="306" y="1227" type="line"/>
      <point x="424" y="1456" type="line"/>
      <point x="317" y="1456" type="line"/>
      <point x="-8" y="939" type="line"/>
      <point x="-2" y="837" type="line"/>
      <point x="547" y="837" type="line"/>
    </contour>
    <contour>
      <point x="455" y="1456" type="line"/>
      <point x="319" y="1456" type="line"/>
      <point x="319" y="667" type="line"/>
      <point x="455" y="667" type="line"/>
    </contour>
  </outline>
</glyph>
<glyph name="one.inferior" format="2">
  <advance width="669"/>
  <unicode hex="2081"/>
  <outline>
    <contour>
      <point x="453.7747778537252" y="422.0" type="line"/>
      <point x="435.7747778537252" y="422.0" type="line"/>
      <point x="81.77477785372523" y="306.0" type="line"/>
      <point x="81.77477785372523" y="177.0" type="line"/>
      <point x="297.7747778537252" y="234.0" type="line"/>
      <point x="297.7747778537252" y="-367.0" type="line"/>
      <point x="453.7747778537252" y="-367.0" type="line"/>
    </contour>
  </outline>
</glyph>
<glyph name="two.inferior" format="1">
  <advance width="537"/>
  <unicode hex="2082"/>
  <outline>
    <contour>
      <point x="533" y="-239" type="line"/>
      <point x="190" y="-239" type="line"/>
      <point x="341" y="-93" type="line" smooth="yes"/>
      <point x="416" y="-14"/>
      <point x="506" y="117"/>
      <point x="506" y="197" type="qcurve" smooth="yes"/>
      <point x="506" y="305"/>
      <point x="375" y="433"/>
      <point x="260" y="433" type="qcurve" smooth="yes"/>
      <point x="140" y="433"/>
      <point x="2" y="279"/>
      <point x="2" y="172" type="qcurve"/>
      <point x="138" y="172" type="line"/>
      <point x="138" y="229"/>
      <point x="199" y="305"/>
      <point x="264" y="305" type="qcurve" smooth="yes"/>
      <point x="314" y="305"/>
      <point x="369" y="243"/>
      <point x="369" y="195" type="qcurve" smooth="yes"/>
      <point x="369" y="162"/>
      <point x="324" y="74"/>
      <point x="266" y="12" type="qcurve" smooth="yes"/>
      <point x="18" y="-259" type="line"/>
      <point x="18" y="-367" type="line"/>
      <point x="533" y="-367" type="line"/>
    </contour>
  </outline>
</glyph>
<glyph name="three.inferior" format="1">
  <advance width="537"/>
  <unicode hex="2083"/>
  <outline>
    <contour>
      <point x="174" y="92" type="line"/>
      <point x="174" y="14" type="line"/>
      <point x="270" y="14" type="line" smooth="yes"/>
      <point x="382" y="14"/>
      <point x="507" y="130"/>
      <point x="507" y="209" type="qcurve" smooth="yes"/>
      <point x="507" y="318"/>
      <point x="367" y="433"/>
      <point x="255" y="433" type="qcurve" smooth="yes"/>
      <point x="153" y="433"/>
      <point x="9" y="313"/>
      <point x="9" y="212" type="qcurve"/>
      <point x="144" y="212" type="line"/>
      <point x="144" y="255"/>
      <point x="209" y="305"/>
      <point x="258" y="305" type="qcurve" smooth="yes"/>
      <point x="317" y="305"/>
      <point x="372" y="245"/>
      <point x="372" y="201" type="qcurve" smooth="yes"/>
      <point x="372" y="153"/>
      <point x="308" y="92"/>
      <point x="246" y="92" type="qcurve" smooth="yes"/>
    </contour>
    <contour>
      <point x="174" y="-23" type="line"/>
      <point x="246" y="-23" type="line" smooth="yes"/>
      <point x="309" y="-23"/>
      <point x="383" y="-76"/>
      <point x="383" y="-139" type="qcurve" smooth="yes"/>
      <point x="383" y="-188"/>
      <point x="319" y="-250"/>
      <point x="260" y="-250" type="qcurve" smooth="yes"/>
      <point x="203" y="-250"/>
      <point x="135" y="-189"/>
      <point x="135" y="-144" type="qcurve"/>
      <point x="0" y="-144" type="line"/>
      <point x="0" y="-266"/>
      <point x="159" y="-378"/>
      <point x="256" y="-378" type="qcurve" smooth="yes"/>
      <point x="368" y="-378"/>
      <point x="519" y="-257"/>
      <point x="519" y="-147" type="qcurve" smooth="yes"/>
      <point x="519" y="-51"/>
      <point x="398" y="55"/>
      <point x="270" y="55" type="qcurve" smooth="yes"/>
      <point x="174" y="55" type="line"/>
    </contour>
  </outline>
</glyph>
<glyph name="four.inferior" format="1">
  <advance width="537"/>
  <unicode hex="2084"/>
  <outline>
    <contour>
      <point x="547" y="-67" type="line"/>
      <point x="128" y="-67" type="line"/>
      <point x="306" y="193" type="line"/>
      <point x="424" y="422" type="line"/>
      <point x="317" y="422" type="line"/>
      <point x="-8" y="-95" type="line"/>
      <point x="-2" y="-197" type="line"/>
      <point x="547" y="-197" type="line"/>
    </contour>
    <contour>
      <point x="455" y="422" type="line"/>
      <point x="319" y="422" type="line"/>
      <point x="319" y="-367" type="line"/>
      <point x="455" y="-367" type="line"/>
    </contour>
  </outline>
</glyph>
<glyph name="won" format="1">
  <advance width="1210.3663016601909"/>
  <unicode hex="20A9"/>
  <outline>
    <contour>
      <point x="214.1377605086542" y="-10.0" type="line"/>
      <point x="511" y="-10" type="line"/>
      <point x="575" y="424" type="line" smooth="yes"/>
      <point x="580" y="456"/>
      <point x="594" y="572"/>
      <point x="601" y="632" type="qcurve"/>
      <point x="608" y="632" type="line"/>
      <point x="615" y="572"/>
      <point x="629" y="456"/>
      <point x="634" y="424" type="qcurve" smooth="yes"/>
      <point x="697" y="-10" type="line"/>
      <point x="995.7142352525609" y="-10.0" type="line"/>
      <point x="1160.1547156481809" y="1456.0" type="line"/>
      <point x="929.7926174496645" y="1456.0" type="line"/>
      <point x="865" y="364" type="line" smooth="yes"/>
      <point x="863" y="330"/>
      <point x="857" y="223"/>
      <point x="854" y="186" type="qcurve"/>
      <point x="847" y="186" type="line"/>
      <point x="842" y="223"/>
      <point x="828" y="330"/>
      <point x="822.1040621688448" y="364.12204168138464" type="qcurve" smooth="yes"/>
      <point x="756" y="756" type="line"/>
      <point x="458" y="756" type="line"/>
      <point x="390.396644295302" y="364.12204168138464" type="line" smooth="yes"/>
      <point x="385" y="331"/>
      <point x="372" y="224"/>
      <point x="368" y="186" type="qcurve"/>
      <point x="361" y="186" type="line"/>
      <point x="358" y="224"/>
      <point x="352" y="330"/>
      <point x="350" y="365" type="qcurve" smooth="yes"/>
      <point x="283.70808901448254" y="1456.0" type="line"/>
      <point x="50.72589191098551" y="1456.0" type="line"/>
    </contour>
    <contour>
      <point x="4.035058283292116" y="870.2999823383964" type="line"/>
      <point x="1206.1744966442952" y="870.2999823383964" type="line"/>
      <point x="1206.1744966442952" y="1014.8288590604027" type="line"/>
      <point x="4.035058283292116" y="1014.8288590604027" type="line"/>
    </contour>
    <contour>
      <point x="-4.284705051218655" y="1185.0001766160367" type="line"/>
      <point x="1214.6510067114095" y="1185.0001766160367" type="line"/>
      <point x="1214.6510067114095" y="1330.200105969622" type="line"/>
      <point x="-4.284705051218655" y="1330.200105969622" type="line"/>
    </contour>
  </outline>
</glyph>
<glyph name="Euro" format="1">
  <advance width="1086"/>
  <unicode hex="20AC"/>
  <outline>
    <contour>
      <point x="69" y="642" type="line" smooth="yes"/>
      <point x="69" y="316"/>
      <point x="358" y="-30"/>
      <point x="614" y="-30" type="qcurve" smooth="yes"/>
      <point x="860" y="-30"/>
      <point x="1115" y="233"/>
      <point x="1115" y="420" type="qcurve" smooth="yes"/>
      <point x="1115" y="430" type="line"/>
      <point x="759" y="430" type="line"/>
      <point x="759" y="420" type="line" smooth="yes"/>
      <point x="759" y="332"/>
      <point x="693" y="211"/>
      <point x="614" y="211" type="qcurve" smooth="yes"/>
      <point x="517" y="211"/>
      <point x="424" y="417"/>
      <point x="424" y="642" type="qcurve" smooth="yes"/>
      <point x="424" y="814" type="line" smooth="yes"/>
      <point x="424" y="1039"/>
      <point x="517" y="1245"/>
      <point x="614" y="1245" type="qcurve" smooth="yes"/>
      <point x="693" y="1245"/>
      <point x="759" y="1124"/>
      <point x="759" y="1036" type="qcurve" smooth="yes"/>
      <point x="759" y="1026" type="line"/>
      <point x="1115" y="1026" type="line"/>
      <point x="1115" y="1036" type="line" smooth="yes"/>
      <point x="1115" y="1223"/>
      <point x="860" y="1486"/>
      <point x="614" y="1486" type="qcurve" smooth="yes"/>
      <point x="358" y="1486"/>
      <point x="69" y="1140"/>
      <point x="69" y="814" type="qcurve" smooth="yes"/>
    </contour>
    <contour>
      <point x="-29" y="431" type="line"/>
      <point x="738" y="431" type="line"/>
      <point x="738" y="656" type="line"/>
      <point x="-29" y="656" type="line"/>
    </contour>
    <contour>
      <point x="-29" y="800" type="line"/>
      <point x="738" y="800" type="line"/>
      <point x="738" y="1025" type="line"/>
      <point x="-29" y="1025" type="line"/>
    </contour>
  </outline>
</glyph>
<glyph name="indianrupee" format="1">
  <advance width="906"/>
  <unicode hex="20B9"/>
  <outline>
    <contour>
      <point x="29" y="547" type="line"/>
      <point x="360" y="0" type="line"/>
      <point x="839" y="0" type="line"/>
      <point x="495" y="547" type="line"/>
      <point x="435" y="547" type="line" smooth="yes"/>
      <point x="598" y="547"/>
      <point x="779" y="787"/>
      <point x="779" y="981" type="qcurve" smooth="yes"/>
      <point x="779" y="1052"/>
      <point x="757" y="1188"/>
      <point x="720" y="1231" type="qcurve"/>
      <point x="853" y="1231" type="line"/>
      <point x="911" y="1456" type="line"/>
      <point x="50" y="1456" type="line"/>
      <point x="-8" y="1231" type="line"/>
      <point x="247" y="1231" type="line" smooth="yes"/>
      <point x="353" y="1231"/>
      <point x="433" y="1102"/>
      <point x="433" y="1004" type="qcurve" smooth="yes"/>
      <point x="433" y="907"/>
      <point x="353" y="771"/>
      <point x="247" y="771" type="qcurve" smooth="yes"/>
      <point x="87" y="771" type="line"/>
    </contour>
    <contour>
      <point x="29" y="889" type="line"/>
      <point x="862" y="889" type="line"/>
      <point x="915" y="1108" type="line"/>
      <point x="82" y="1108" type="line"/>
    </contour>
  </outline>
</glyph>
<glyph name="numero" format="1">
  <advance width="2252"/>
  <unicode hex="2116"/>
  <outline>
    <contour>
      <point x="90" y="0" type="line"/>
      <point x="389" y="0" type="line"/>
      <point x="389" y="810" type="line" smooth="yes"/>
      <point x="389" y="840"/>
      <point x="385" y="915"/>
      <point x="382" y="945" type="qcurve"/>
      <point x="389" y="945" type="line"/>
      <point x="401" y="920"/>
      <point x="427" y="859"/>
      <point x="439" y="828" type="qcurve" smooth="yes"/>
      <point x="739" y="0" type="line"/>
      <point x="1143" y="0" type="line"/>
      <point x="1143" y="1456" type="line"/>
      <point x="843" y="1456" type="line"/>
      <point x="843" y="645" type="line" smooth="yes"/>
      <point x="843" y="615"/>
      <point x="847" y="545"/>
      <point x="850" y="510" type="qcurve"/>
      <point x="843" y="510" type="line"/>
      <point x="831" y="535"/>
      <point x="807" y="595"/>
      <point x="795" y="625" type="qcurve" smooth="yes"/>
      <point x="493" y="1456" type="line"/>
      <point x="90" y="1456" type="line"/>
    </contour>
    <contour>
      <point x="1286" y="92" type="line"/>
      <point x="1286" y="328" type="line"/>
      <point x="2168" y="328" type="line"/>
      <point x="2168" y="92" type="line"/>
    </contour>
    <contour>
      <point x="1248" y="964" type="qcurve" smooth="yes"/>
      <point x="1248" y="984" type="line" smooth="yes"/>
      <point x="1248" y="1194"/>
      <point x="1503" y="1476"/>
      <point x="1728" y="1476" type="qcurve" smooth="yes"/>
      <point x="1951" y="1476"/>
      <point x="2207" y="1194"/>
      <point x="2207" y="984" type="qcurve" smooth="yes"/>
      <point x="2207" y="964" type="line" smooth="yes"/>
      <point x="2207" y="754"/>
      <point x="1951" y="472"/>
      <point x="1728" y="472" type="qcurve" smooth="yes"/>
      <point x="1503" y="472"/>
      <point x="1248" y="754"/>
    </contour>
    <contour>
      <point x="1548" y="964" type="line" smooth="yes"/>
      <point x="1548" y="845"/>
      <point x="1638" y="695"/>
      <point x="1728" y="695" type="qcurve" smooth="yes"/>
      <point x="1818" y="695"/>
      <point x="1907" y="845"/>
      <point x="1907" y="964" type="qcurve" smooth="yes"/>
      <point x="1907" y="984" type="line" smooth="yes"/>
      <point x="1907" y="1104"/>
      <point x="1818" y="1253"/>
      <point x="1728" y="1253" type="qcurve" smooth="yes"/>
      <point x="1638" y="1253"/>
      <point x="1548" y="1104"/>
      <point x="1548" y="984" type="qcurve" smooth="yes"/>
    </contour>
  </outline>
</glyph>
<glyph name="trademark" format="1">
  <advance width="1378"/>
  <unicode hex="2122"/>
  <outline>
    <contour>
      <point x="183" y="820" type="line"/>
      <point x="441" y="820" type="line"/>
      <point x="441" y="1245" type="line"/>
      <point x="570" y="1245" type="line"/>
      <point x="570" y="1456" type="line"/>
      <point x="54" y="1456" type="line"/>
      <point x="54" y="1245" type="line"/>
      <point x="183" y="1245" type="line"/>
    </contour>
    <contour>
      <point x="619" y="820" type="line"/>
      <point x="845" y="820" type="line"/>
      <point x="845" y="1073" type="line"/>
      <point x="925" y="820" type="line"/>
      <point x="1068" y="820" type="line"/>
      <point x="1148" y="1074" type="line"/>
      <point x="1148" y="820" type="line"/>
      <point x="1385" y="820" type="line"/>
      <point x="1385" y="1456" type="line"/>
      <point x="1084" y="1456" type="line"/>
      <point x="1001" y="1178" type="line"/>
      <point x="919" y="1456" type="line"/>
      <point x="619" y="1456" type="line"/>
    </contour>
  </outline>
</glyph>
<glyph name="minus" format="1">
  <advance width="743"/>
  <unicode hex="2212"/>
  <outline>
    <contour>
      <point x="23" y="549" type="line"/>
      <point x="721" y="549" type="line"/>
      <point x="721" y="799" type="line"/>
      <point x="23" y="799" type="line"/>
    </contour>
  </outline>
</glyph>
<glyph name="divisionslash" format="1">
  <advance width="516"/>
  <unicode hex="2215"/>
  <outline>
    <contour>
      <point x="-98" y="-125" type="line"/>
      <point x="176" y="-125" type="line"/>
      <point x="570" y="1456" type="line"/>
      <point x="299" y="1456" type="line"/>
    </contour>
  </outline>
</glyph>
<glyph name="fi" format="1">
  <advance width="831"/>
  <unicode hex="FB01"/>
  <outline>
    <contour>
      <point x="90" y="0" type="line"/>
      <point x="407" y="0" type="line"/>
      <point x="407" y="840" type="line"/>
      <point x="407" y="860" type="line"/>
      <point x="407" y="1117" type="line" smooth="yes"/>
      <point x="407" y="1186"/>
      <point x="442" y="1253"/>
      <point x="467" y="1253" type="qcurve" smooth="yes"/>
      <point x="471" y="1253"/>
      <point x="480" y="1252"/>
      <point x="482" y="1250" type="qcurve"/>
      <point x="485" y="1470" type="line"/>
      <point x="476" y="1475"/>
      <point x="457" y="1478"/>
      <point x="449" y="1478" type="qcurve" smooth="yes"/>
      <point x="284" y="1478"/>
      <point x="90" y="1294"/>
      <point x="90" y="1117" type="qcurve" smooth="yes"/>
    </contour>
    <contour>
      <point x="19" y="729" type="line"/>
      <point x="490" y="729" type="line"/>
      <point x="490" y="947" type="line"/>
      <point x="264" y="947" type="line"/>
      <point x="229" y="947" type="line"/>
      <point x="19" y="947" type="line"/>
    </contour>
    <contour>
      <point x="485" y="0" type="line"/>
      <point x="800" y="0" type="line"/>
      <point x="800" y="947" type="line"/>
      <point x="485" y="947" type="line"/>
    </contour>
  </outline>
</glyph>
<glyph name="fl" format="1">
  <advance width="813"/>
  <unicode hex="FB02"/>
  <outline>
    <contour>
      <point x="89" y="0" type="line"/>
      <point x="407" y="0" type="line"/>
      <point x="407" y="840" type="line"/>
      <point x="407" y="860" type="line"/>
      <point x="407" y="1094" type="line" smooth="yes"/>
      <point x="407" y="1160"/>
      <point x="445" y="1230"/>
      <point x="466" y="1230" type="qcurve" smooth="yes"/>
      <point x="465" y="1230"/>
      <point x="466" y="1230"/>
      <point x="469" y="1230" type="qcurve"/>
      <point x="471" y="1450" type="line"/>
      <point x="464" y="1453"/>
      <point x="452" y="1455"/>
      <point x="448" y="1455" type="qcurve" smooth="yes"/>
      <point x="288" y="1455"/>
      <point x="89" y="1271"/>
      <point x="89" y="1094" type="qcurve" smooth="yes"/>
    </contour>
    <contour>
      <point x="19" y="729" type="line"/>
      <point x="489" y="729" type="line"/>
      <point x="489" y="947" type="line"/>
      <point x="263" y="947" type="line"/>
      <point x="228" y="947" type="line"/>
      <point x="19" y="947" type="line"/>
    </contour>
    <contour>
      <point x="462" y="0" type="line"/>
      <point x="777" y="0" type="line"/>
      <point x="777" y="1450" type="line"/>
      <point x="462" y="1450" type="line"/>
    </contour>
  </outline>
</glyph>
